<svg width="35" height="35" viewBox="0 0 35 35" fill="none" xmlns="http://www.w3.org/2000/svg">
<g clip-path="url(#clip0)">
<path d="M21.3548 17.5001L34.4409 4.4135C34.8008 4.05325 34.9994 3.57264 35 3.06016C35 2.5474 34.8014 2.06622 34.4409 1.70654L33.2941 0.560082C32.9336 0.198985 32.453 0.0012207 31.9399 0.0012207C31.4277 0.0012207 30.9471 0.198985 30.5866 0.560082L17.5006 13.6459L4.41398 0.560082C4.05402 0.198985 3.57313 0.0012207 3.06037 0.0012207C2.54817 0.0012207 2.06728 0.198985 1.70732 0.560082L0.56 1.70654C-0.186667 2.45321 -0.186667 3.66768 0.56 4.4135L13.6463 17.5001L0.56 30.5861C0.199756 30.947 0.00142303 31.4276 0.00142303 31.94C0.00142303 32.4525 0.199756 32.9331 0.56 33.2937L1.70703 34.4401C2.06699 34.8009 2.54817 34.999 3.06008 34.999C3.57285 34.999 4.05374 34.8009 4.4137 34.4401L17.5003 21.3541L30.5863 34.4401C30.9468 34.8009 31.4274 34.999 31.9396 34.999H31.9402C32.4527 34.999 32.9333 34.8009 33.2938 34.4401L34.4406 33.2937C34.8005 32.9334 34.9991 32.4525 34.9991 31.94C34.9991 31.4276 34.8005 30.947 34.4406 30.5864L21.3548 17.5001Z" fill="white"/>
</g>
<defs>
<clipPath id="clip0">
<rect width="35" height="35" fill="white"/>
</clipPath>
</defs>
</svg>
