<svg width="40" height="32" viewBox="0 0 40 32" fill="none" xmlns="http://www.w3.org/2000/svg">
<path d="M37.2943 5.9939H2.70594C1.16991 5.9939 0 4.59714 0 2.99695C0 1.39675 1.16991 0 2.70594 0H37.2943C38.8304 0 40 1.39675 40 2.99695C40 4.59714 38.8304 5.9939 37.2943 5.9939ZM2.70594 13.0031H37.2943C38.8304 13.0031 40 14.3998 40 16C40 17.6002 38.8304 18.9969 37.2943 18.9969H2.70594C1.16991 18.9969 0 17.6002 0 16C0 14.3998 1.16991 13.0031 2.70594 13.0031ZM2.70594 26.0061H37.2943C38.8304 26.0061 40 27.4029 40 29.003C40 30.6032 38.8304 32 37.2943 32H2.70594C1.16991 32 0 30.6032 0 29.003C0 27.4029 1.16991 26.0061 2.70594 26.0061Z" fill="#009600"/>
</svg>
