<svg width="512" height="150" viewBox="0 0 512 150" fill="none" xmlns="http://www.w3.org/2000/svg">
<g clip-path="url(#clip0)">
<path d="M170.746 19.7479H202.071V132.832H170.746V19.7479ZM218.508 132.832V19.7479H304.65V41.6725H249.832V65.0068H300.261V86.9357H249.832V110.897H304.65V132.832H218.508ZM322.2 132.832V19.7479H408.32V41.6725H353.517V65.0068H403.929V86.9357H353.517V110.897H408.32V132.832H322.2ZM425.86 132.832V19.7479H512.001V41.6725H457.203V65.0068H507.619V86.9357H457.203V110.897H512.001V132.832H425.86ZM71.4581 87.6374C71.0443 95.6224 70.9419 103.012 70.3512 111.016C73.5119 111.304 77.0778 111.58 80.4476 111.089L79.4409 88.7741L79.2639 87.712C76.6982 87.8123 74.269 87.9146 71.4581 87.6374ZM51.7195 65.2137C47.8273 67.1652 42.1009 70.1148 42.7322 75.453C43.5661 78.3685 46.7225 80.2517 49.22 81.4503C63.0252 87.5329 81.3518 87.7397 95.927 83.1991C99.5249 81.8128 104.356 79.8017 105.017 75.3933C104.978 71.7506 101.122 69.4579 98.3519 68.0631V67.8903C99.3181 67.5086 100.429 67.1652 101.429 67.0607V66.9626C96.5476 66.0881 91.8343 64.8106 87.106 63.5608C88.0167 65.636 88.6735 67.8242 89.4328 69.9804C90.8532 69.5261 92.3099 69.1806 93.8433 68.9716C96.3365 69.942 99.9067 71.3304 100.261 74.4485C100.538 77.364 97.3474 78.7844 95.332 79.968C84.6405 83.8581 72.6119 84.2378 61.4619 81.2797C58.3822 80.3093 53.9376 79.0637 53.5558 75.1416C55.7419 69.9804 61.3958 68.9055 66.1177 67.6514C63.6906 66.0881 61.223 64.704 58.8706 62.9637C56.3305 63.1044 54.0101 64.2156 51.7195 65.2137ZM75.3396 34.065L73.9555 38.5075L67.0156 58.3868C68.7537 58.5638 70.9057 58.3868 72.6119 58.5638V58.7281L71.5967 81.2135L71.7716 81.4503C73.9918 81.6678 76.7643 81.7787 79.0272 81.3927V81.0387L78.1207 59.2293L78.2572 58.4913L84.3633 58.3868C81.3177 50.34 78.3639 42.2121 75.5188 34.065H75.3396ZM72.1149 24.0774C77.2207 20.5989 81.8019 25.4616 85.7581 28.2405C101.054 40.5528 115.489 54.646 126.487 70.5605C127.873 72.6143 128.5 75.8028 127.257 78.1275C124.405 82.8835 120.558 87.2236 116.911 91.632V91.873C107.817 101.553 98.2133 111.505 87.8354 119.703C82.7701 122.785 78.1207 129.516 71.5967 125.346C56.7421 114.491 42.5274 100.995 30.4774 86.5198C28.4343 83.3378 25.2437 80.7294 23.8233 77.1208C21.8398 72.2326 26.2119 68.7263 28.7137 65.0452C41.0004 49.8921 56.2601 35.0333 72.1149 24.0774ZM84.9178 9.60462L79.2639 1.59192C78.5708 1.16963 77.707 0.470093 76.9413 0.26535C75.2735 -0.457649 73.4756 0.416775 72.1149 1.44902L61.8842 14.7744C45.4706 35.1015 26.0413 54.0829 4.84401 68.6325C3.16768 69.942 0.676635 71.2195 0.158379 73.3779C-0.398267 75.3186 0.612653 76.9203 1.81765 78.1275C18.7921 89.8192 35.0202 103.699 49.4652 119.528C52.0288 122.222 54.1082 124.901 56.6163 127.43C60.8413 133.052 65.8042 138.719 69.6879 144.75C70.9057 146.023 71.1147 148.116 73.0192 148.736C74.51 149.252 76.3506 149.602 77.7731 148.736L79.1871 147.316C96.7502 122.435 119.025 100.09 143.912 82.0496C146.403 79.8251 151.161 78.9976 151.229 74.8686C151.052 72.9641 149.943 71.0873 148.307 70.0465L147.9 69.9804C135.093 61.2682 123.16 51.4149 111.918 40.2372L99.4951 27.2595C94.4618 21.6802 89.5714 15.4995 84.9178 9.60462ZM70.2808 21.0191C75.2735 17.1332 81.5566 20.36 85.7581 23.9345C90.1579 27.2978 94.7412 31.1091 98.7635 35.0034L99.4951 35.4236C110.634 45.7589 120.98 57.2458 129.479 69.3896C130.857 71.5032 132.075 73.8982 131.305 76.7028C128.47 83.7878 122.712 89.4353 117.677 95.6223C106.783 107.348 95.2914 118.694 82.4267 127.746C79.8248 129.586 76.3143 131.286 73.1962 129.825C63.7269 124.869 55.7419 116.749 47.454 109.351C37.8418 100.438 28.1954 90.0602 20.91 79.2045C19.8265 77.6817 19.5215 75.8028 19.5535 73.7937C20.4898 70.0465 23.0576 66.9626 25.4868 63.804C34.0946 52.8332 44.6388 42.4275 55.2876 32.9219C55.5329 32.6788 55.9871 32.1605 56.3732 31.9131C60.9458 27.959 65.4885 24.4592 70.2808 21.0191Z" fill="white"/>
</g>
<defs>
<clipPath id="clip0">
<rect width="512" height="150" fill="white"/>
</clipPath>
</defs>
</svg>
