<svg width="1177" height="874" viewBox="0 0 1177 874" fill="none" xmlns="http://www.w3.org/2000/svg">
<path d="M1083.97 212.452C950.424 26.6217 668.322 -48.7591 390.883 32.4278C244.21 75.3488 102.79 161.348 32.7055 327.869C-92.5779 625.544 170.47 720.614 342.475 750.914C425.648 765.565 503.982 790.176 575.564 823.684C704.348 883.969 932.303 937.387 1104.2 686.275C1228.79 504.269 1172.92 336.233 1083.97 212.452Z" fill="white"/>
<path d="M219.494 602.524L218.226 602.049C217.948 601.944 190.234 591.325 177.251 567.249C164.268 543.172 170.626 514.182 170.691 513.893L170.99 512.573L172.257 513.048C172.535 513.153 200.249 523.771 213.232 547.847C226.215 571.925 219.858 600.914 219.792 601.203L219.494 602.524ZM179.33 566.128C190.306 586.485 212.207 596.92 217.756 599.302C218.811 593.355 222.12 569.305 211.153 548.968C200.188 528.633 178.279 518.182 172.727 515.794C171.672 521.745 168.364 545.793 179.33 566.128Z" fill="#3F3D56"/>
<path d="M187.173 558.804C210.504 572.84 219.49 600.721 219.49 600.721C219.49 600.721 190.648 605.844 167.317 591.807C143.986 577.771 135 549.89 135 549.89C135 549.89 163.842 544.767 187.173 558.804Z" fill="#009600"/>
<path d="M933.85 193.362H673.681V188H555.71V193.362H294.468C292.157 193.362 289.868 193.818 287.733 194.702C285.598 195.586 283.658 196.883 282.024 198.517C280.39 200.151 279.093 202.091 278.209 204.226C277.325 206.361 276.869 208.65 276.869 210.961V567.213C276.869 571.88 278.723 576.357 282.024 579.657C285.324 582.957 289.8 584.812 294.468 584.812H933.85C936.162 584.812 938.45 584.356 940.585 583.472C942.72 582.588 944.66 581.291 946.295 579.657C947.929 578.023 949.225 576.083 950.109 573.948C950.994 571.813 951.449 569.524 951.449 567.213V210.961C951.449 208.65 950.994 206.361 950.109 204.226C949.225 202.091 947.929 200.151 946.295 198.517C944.66 196.883 942.72 195.586 940.585 194.702C938.45 193.818 936.162 193.362 933.85 193.362Z" fill="#3F3D56"/>
<path d="M927.855 224.464H300.464V578.377H927.855V224.464Z" fill="#F0F0F0"/>
<path d="M613.623 214.812C617.177 214.812 620.058 211.931 620.058 208.377C620.058 204.823 617.177 201.942 613.623 201.942C610.069 201.942 607.188 204.823 607.188 208.377C607.188 211.931 610.069 214.812 613.623 214.812Z" fill="#F0F0F0"/>
<path d="M891.838 269.507H862.098V239.767H891.838V269.507ZM863.391 268.214H890.545V241.06H863.391V268.214Z" fill="#3F3D56"/>
<path d="M969.065 571.942H907.836V567.53C907.836 567.416 907.813 567.302 907.769 567.196C907.725 567.09 907.661 566.993 907.579 566.912C907.498 566.831 907.402 566.766 907.296 566.722C907.189 566.678 907.076 566.656 906.961 566.656H885.968C885.853 566.656 885.739 566.678 885.633 566.722C885.527 566.766 885.431 566.831 885.349 566.912C885.268 566.993 885.204 567.09 885.16 567.196C885.116 567.302 885.093 567.416 885.093 567.53V571.942H871.973V567.53C871.973 567.416 871.95 567.302 871.906 567.196C871.862 567.09 871.798 566.993 871.716 566.912C871.635 566.831 871.539 566.766 871.433 566.722C871.327 566.678 871.213 566.656 871.098 566.656H850.105C849.99 566.656 849.876 566.678 849.77 566.722C849.664 566.766 849.568 566.831 849.487 566.912C849.405 566.993 849.341 567.09 849.297 567.196C849.253 567.302 849.23 567.416 849.23 567.53V571.942H836.11V567.53C836.11 567.416 836.087 567.302 836.043 567.196C835.999 567.09 835.935 566.993 835.854 566.912C835.772 566.831 835.676 566.766 835.57 566.722C835.464 566.678 835.35 566.656 835.235 566.656H814.242C814.127 566.656 814.013 566.678 813.907 566.722C813.801 566.766 813.705 566.831 813.624 566.912C813.542 566.993 813.478 567.09 813.434 567.196C813.39 567.302 813.367 567.416 813.367 567.53V571.942H800.247V567.53C800.247 567.416 800.224 567.302 800.18 567.196C800.136 567.09 800.072 566.993 799.991 566.912C799.909 566.831 799.813 566.766 799.707 566.722C799.601 566.678 799.487 566.656 799.372 566.656H778.379C778.264 566.656 778.151 566.678 778.044 566.722C777.938 566.766 777.842 566.831 777.761 566.912C777.68 566.993 777.615 567.09 777.571 567.196C777.527 567.302 777.505 567.416 777.505 567.53V571.942H764.384V567.53C764.384 567.416 764.361 567.302 764.317 567.196C764.273 567.09 764.209 566.993 764.128 566.912C764.047 566.831 763.95 566.766 763.844 566.722C763.738 566.678 763.624 566.656 763.509 566.656H742.516C742.401 566.656 742.288 566.678 742.182 566.722C742.076 566.766 741.979 566.831 741.898 566.912C741.817 566.993 741.752 567.09 741.708 567.196C741.664 567.302 741.642 567.416 741.642 567.53V571.942H728.521V567.53C728.521 567.416 728.498 567.302 728.455 567.196C728.411 567.09 728.346 566.993 728.265 566.912C728.184 566.831 728.087 566.766 727.981 566.722C727.875 566.678 727.761 566.656 727.646 566.656H706.654C706.539 566.656 706.425 566.678 706.319 566.722C706.213 566.766 706.116 566.831 706.035 566.912C705.954 566.993 705.889 567.09 705.845 567.196C705.801 567.302 705.779 567.416 705.779 567.53V571.942H692.658V567.53C692.658 567.416 692.636 567.302 692.592 567.196C692.548 567.09 692.483 566.993 692.402 566.912C692.321 566.831 692.224 566.766 692.118 566.722C692.012 566.678 691.898 566.656 691.784 566.656H527.339C527.224 566.656 527.11 566.678 527.004 566.722C526.898 566.766 526.802 566.831 526.721 566.912C526.639 566.993 526.575 567.09 526.531 567.196C526.487 567.302 526.464 567.416 526.464 567.53V571.942H513.344V567.53C513.344 567.416 513.321 567.302 513.277 567.196C513.233 567.09 513.169 566.993 513.088 566.912C513.006 566.831 512.91 566.766 512.804 566.722C512.698 566.678 512.584 566.656 512.469 566.656H491.476C491.361 566.656 491.248 566.678 491.141 566.722C491.035 566.766 490.939 566.831 490.858 566.912C490.776 566.993 490.712 567.09 490.668 567.196C490.624 567.302 490.601 567.416 490.601 567.53V571.942H477.481V567.53C477.481 567.416 477.458 567.302 477.414 567.196C477.37 567.09 477.306 566.993 477.225 566.912C477.143 566.831 477.047 566.766 476.941 566.722C476.835 566.678 476.721 566.656 476.606 566.656H455.613C455.498 566.656 455.385 566.678 455.279 566.722C455.172 566.766 455.076 566.831 454.995 566.912C454.914 566.993 454.849 567.09 454.805 567.196C454.761 567.302 454.739 567.416 454.739 567.53V571.942H441.618V567.53C441.618 567.416 441.595 567.302 441.551 567.196C441.507 567.09 441.443 566.993 441.362 566.912C441.281 566.831 441.184 566.766 441.078 566.722C440.972 566.678 440.858 566.656 440.743 566.656H419.75C419.636 566.656 419.522 566.678 419.416 566.722C419.31 566.766 419.213 566.831 419.132 566.912C419.051 566.993 418.986 567.09 418.942 567.196C418.898 567.302 418.876 567.416 418.876 567.53V571.942H405.755V567.53C405.755 567.416 405.733 567.302 405.689 567.196C405.645 567.09 405.58 566.993 405.499 566.912C405.418 566.831 405.321 566.766 405.215 566.722C405.109 566.678 404.995 566.656 404.88 566.656H383.887C383.773 566.656 383.659 566.678 383.553 566.722C383.447 566.766 383.35 566.831 383.269 566.912C383.188 566.993 383.123 567.09 383.079 567.196C383.035 567.302 383.013 567.416 383.013 567.53V571.942H369.892V567.53C369.892 567.416 369.87 567.302 369.826 567.196C369.782 567.09 369.717 566.993 369.636 566.912C369.555 566.831 369.458 566.766 369.352 566.722C369.246 566.678 369.132 566.656 369.018 566.656H348.025C347.91 566.656 347.796 566.678 347.69 566.722C347.584 566.766 347.487 566.831 347.406 566.912C347.325 566.993 347.26 567.09 347.217 567.196C347.173 567.302 347.15 567.416 347.15 567.53V571.942H334.029V567.53C334.029 567.416 334.007 567.302 333.963 567.196C333.919 567.09 333.854 566.993 333.773 566.912C333.692 566.831 333.596 566.766 333.489 566.722C333.383 566.678 333.27 566.656 333.155 566.656H312.162C312.047 566.656 311.933 566.678 311.827 566.722C311.721 566.766 311.624 566.831 311.543 566.912C311.462 566.993 311.398 567.09 311.354 567.196C311.31 567.302 311.287 567.416 311.287 567.53V571.942H271.051C265.483 571.942 260.143 574.154 256.206 578.091C252.269 582.028 250.058 587.367 250.058 592.935V602.427C250.058 607.995 252.27 613.335 256.206 617.272C260.143 621.209 265.483 623.42 271.051 623.42H969.065C974.632 623.42 979.972 621.209 983.909 617.272C987.846 613.335 990.058 607.995 990.058 602.427V592.935C990.058 587.367 987.846 582.028 983.909 578.091C979.972 574.154 974.632 571.942 969.065 571.942Z" fill="#3F3D56"/>
<path d="M1076.4 601.883H163.711V604.669H1076.4V601.883Z" fill="#3F3D56"/>
<path d="M889.072 421.671H687.072V306.671H889.072V421.671ZM689.072 419.671H887.072V308.671H689.072V419.671Z" fill="#3F3D56"/>
<path d="M519.072 444.671H339.072V332.671H519.072V444.671ZM341.072 442.671H517.072V334.671H341.072V442.671Z" fill="#3F3D56"/>
<path d="M423.166 401.671L422.993 399.434C422.478 394.791 424.026 389.717 428.325 384.557C432.196 379.999 434.345 376.645 434.345 372.775C434.345 368.389 431.594 365.466 426.176 365.38C423.077 365.367 420.048 366.297 417.49 368.046L415.426 362.628C418.264 360.563 423.166 359.187 427.723 359.187C437.614 359.187 442.085 365.294 442.085 371.829C442.085 377.678 438.817 381.891 434.689 386.793C430.906 391.264 429.53 395.049 429.787 399.434L429.873 401.671H423.166ZM421.274 413.711C421.227 413.009 421.327 412.306 421.567 411.644C421.806 410.983 422.18 410.379 422.665 409.87C423.15 409.361 423.735 408.958 424.384 408.686C425.033 408.415 425.73 408.281 426.433 408.293C429.444 408.293 431.508 410.528 431.508 413.711C431.536 414.4 431.425 415.089 431.18 415.734C430.936 416.38 430.564 416.97 430.086 417.468C429.608 417.966 429.034 418.362 428.399 418.633C427.764 418.903 427.081 419.043 426.391 419.043C425.7 419.043 425.017 418.903 424.382 418.633C423.747 418.362 423.174 417.966 422.696 417.468C422.218 416.97 421.845 416.38 421.601 415.734C421.357 415.089 421.245 414.4 421.274 413.711Z" fill="#009600"/>
<path d="M782.166 376.671L781.994 374.434C781.478 369.791 783.026 364.717 787.326 359.557C791.196 354.999 793.346 351.645 793.346 347.775C793.346 343.389 790.594 340.466 785.176 340.38C782.077 340.367 779.048 341.297 776.49 343.046L774.426 337.628C777.264 335.563 782.166 334.187 786.723 334.187C796.614 334.187 801.085 340.294 801.085 346.829C801.085 352.678 797.817 356.891 793.689 361.793C789.906 366.264 788.53 370.049 788.787 374.434L788.873 376.671H782.166ZM780.274 388.711C780.228 388.009 780.327 387.306 780.567 386.644C780.806 385.983 781.18 385.379 781.665 384.87C782.15 384.361 782.735 383.958 783.384 383.686C784.033 383.415 784.73 383.281 785.433 383.293C788.444 383.293 790.508 385.528 790.508 388.711C790.536 389.4 790.425 390.089 790.18 390.734C789.936 391.38 789.564 391.97 789.086 392.468C788.608 392.966 788.034 393.362 787.399 393.633C786.764 393.903 786.081 394.043 785.391 394.043C784.7 394.043 784.017 393.903 783.382 393.633C782.747 393.362 782.174 392.966 781.696 392.468C781.218 391.97 780.845 391.38 780.601 390.734C780.357 390.089 780.245 389.4 780.274 388.711Z" fill="#009600"/>
<path d="M617.693 535.141C665.351 535.141 703.985 496.507 703.985 448.849C703.985 401.191 665.351 362.556 617.693 362.556C570.035 362.556 531.401 401.191 531.401 448.849C531.401 496.507 570.035 535.141 617.693 535.141Z" fill="#2F2E41"/>
<path d="M584.365 567.018L558.568 562.348L566.935 508.484L592.731 513.154L584.365 567.018Z" fill="#2F2E41"/>
<path d="M644.324 522.493L618.527 517.824L610.161 564.042L635.957 568.711L644.324 522.493Z" fill="#2F2E41"/>
<path d="M653.199 571.229C654.094 566.794 645.232 561.263 633.405 558.876C621.579 556.488 611.266 558.148 610.37 562.583C609.475 567.018 618.337 572.549 630.163 574.936C641.99 577.324 652.303 575.664 653.199 571.229Z" fill="#2F2E41"/>
<path d="M599.47 569.836C600.064 565.351 590.85 560.43 578.889 558.846C566.928 557.261 556.75 559.613 556.156 564.098C555.562 568.583 564.776 573.504 576.737 575.088C588.698 576.673 598.876 574.321 599.47 569.836Z" fill="#2F2E41"/>
<path d="M623.734 457.233C640.022 457.233 653.227 444.029 653.227 427.741C653.227 411.453 640.022 398.249 623.734 398.249C607.446 398.249 594.242 411.453 594.242 427.741C594.242 444.029 607.446 457.233 623.734 457.233Z" fill="white"/>
<path d="M635.856 427C641.285 427 645.686 422.599 645.686 417.17C645.686 411.74 641.285 407.339 635.856 407.339C630.426 407.339 626.025 411.74 626.025 417.17C626.025 422.599 630.426 427 635.856 427Z" fill="#3F3D56"/>
<path d="M549.621 354.972C548.323 323.025 575.856 295.966 611.118 294.534C646.38 293.102 676.017 317.838 677.315 349.785C678.613 381.732 654.101 388.99 618.839 390.423C583.578 391.855 550.918 386.919 549.621 354.972Z" fill="#009600"/>
<path d="M700.398 446.33C723.625 441.006 741.099 430.779 739.428 423.488C737.756 416.196 717.572 414.601 694.346 419.925C671.119 425.249 653.645 435.476 655.317 442.768C656.988 450.059 677.172 451.654 700.398 446.33Z" fill="#2F2E41"/>
<path d="M531.01 474.499C554.236 469.175 571.71 458.948 570.039 451.657C568.368 444.365 548.184 442.77 524.957 448.094C501.731 453.418 484.257 463.645 485.928 470.937C487.599 478.228 507.783 479.823 531.01 474.499Z" fill="#2F2E41"/>
<path d="M593.993 482.855C593.533 485.396 593.578 488.003 594.125 490.526C594.673 493.049 595.712 495.44 597.183 497.562C598.654 499.683 600.529 501.495 602.7 502.892C604.872 504.289 607.297 505.245 609.838 505.705C612.378 506.165 614.985 506.12 617.508 505.572C620.031 505.025 622.422 503.986 624.544 502.515C626.666 501.043 628.477 499.169 629.874 496.997C631.271 494.826 632.227 492.401 632.687 489.86C634.621 479.175 626.36 475.394 615.675 473.46C604.99 471.525 595.927 472.17 593.993 482.855Z" fill="white"/>
<path d="M431.422 201.122H289.535V336.09H431.422V201.122Z" fill="white"/>
<path d="M415.298 217.246H305.658V301.088H415.298V217.246Z" fill="#009600"/>
<path d="M365.186 310.979H305.55V314.118H365.186V310.979Z" fill="#2F2E41"/>
<path d="M365.186 320.396H305.55V323.534H365.186V320.396Z" fill="#2F2E41"/>
<path d="M325.167 271.745C332.101 271.745 337.722 266.124 337.722 259.19C337.722 252.256 332.101 246.634 325.167 246.634C318.233 246.634 312.612 252.256 312.612 259.19C312.612 266.124 318.233 271.745 325.167 271.745Z" fill="#3F3D56"/>
<path d="M360.478 271.745C367.412 271.745 373.033 266.124 373.033 259.19C373.033 252.256 367.412 246.634 360.478 246.634C353.544 246.634 347.923 252.256 347.923 259.19C347.923 266.124 353.544 271.745 360.478 271.745Z" fill="#F0F0F0"/>
<path d="M395.789 271.745C402.723 271.745 408.345 266.124 408.345 259.19C408.345 252.256 402.723 246.634 395.789 246.634C388.855 246.634 383.234 252.256 383.234 259.19C383.234 266.124 388.855 271.745 395.789 271.745Z" fill="#E6E6E6"/>
<path d="M360.478 215.247C363.945 215.247 366.756 212.436 366.756 208.969C366.756 205.502 363.945 202.692 360.478 202.692C357.011 202.692 354.201 205.502 354.201 208.969C354.201 212.436 357.011 215.247 360.478 215.247Z" fill="#3F3D56"/>
<path d="M498.909 462.459H357.022V597.426H498.909V462.459Z" fill="white"/>
<path d="M482.786 478.582H373.146V562.425H482.786V478.582Z" fill="#009600"/>
<path d="M435.709 492.361H397.272V530.798H435.709V492.361Z" fill="#F0F0F0"/>
<path d="M411.986 501.973V548.646H458.66V501.973H411.986ZM456.635 546.622H414.01V503.997H456.635V546.622Z" fill="#3F3D56"/>
<path d="M432.674 570.747H373.037V573.885H432.674V570.747Z" fill="#2F2E41"/>
<path d="M427.966 476.583C431.433 476.583 434.243 473.773 434.243 470.306C434.243 466.839 431.433 464.028 427.966 464.028C424.499 464.028 421.688 466.839 421.688 470.306C421.688 473.773 424.499 476.583 427.966 476.583Z" fill="#3F3D56"/>
<path d="M868.323 422.053H726.437V557.02H868.323V422.053Z" fill="white"/>
<path d="M852.2 438.176H742.56V522.019H852.2V438.176Z" fill="#009600"/>
<path d="M809.173 503.812H785.587V510.802H809.173V503.812Z" fill="#3F3D56"/>
<path d="M837.688 449.393H757.072V452.388H837.688V449.393Z" fill="#3F3D56"/>
<path d="M837.688 458.879H757.072V461.874H837.688V458.879Z" fill="#3F3D56"/>
<path d="M837.688 468.365H757.072V471.36H837.688V468.365Z" fill="#3F3D56"/>
<path d="M837.688 477.851H757.072V480.846H837.688V477.851Z" fill="#3F3D56"/>
<path d="M837.688 487.337H757.072V490.332H837.688V487.337Z" fill="#3F3D56"/>
<path d="M802.088 530.341H742.451V533.479H802.088V530.341Z" fill="#2F2E41"/>
<path d="M825.629 538.187H742.451V541.326H825.629V538.187Z" fill="#2F2E41"/>
<path d="M797.38 436.177C800.847 436.177 803.658 433.367 803.658 429.9C803.658 426.433 800.847 423.622 797.38 423.622C793.913 423.622 791.102 426.433 791.102 429.9C791.102 433.367 793.913 436.177 797.38 436.177Z" fill="#3F3D56"/>
</svg>
