<svg width="1007" height="608" viewBox="0 0 1007 608" fill="none" xmlns="http://www.w3.org/2000/svg">
<g clip-path="url(#clip0)">
<path d="M857.177 407.016C860.521 407.175 863.857 406.555 866.92 405.204C869.984 403.854 872.692 401.81 874.832 399.234C876.971 396.659 878.482 393.621 879.248 390.362C880.013 387.102 880.01 383.709 879.24 380.451C878.471 377.192 876.954 374.157 874.811 371.585C872.669 369.012 869.957 366.972 866.892 365.626C863.826 364.28 860.49 363.665 857.145 363.828C853.801 363.991 850.541 364.929 847.621 366.568L851.44 377.033L843.582 369.489C839.369 373.341 836.857 378.708 836.598 384.411C836.499 386.411 836.684 388.416 837.147 390.365C838.221 394.941 840.757 399.042 844.372 402.047C847.986 405.051 852.481 406.796 857.177 407.016V407.016Z" fill="#57B894"/>
<path d="M920.355 522.53C915.771 514.044 920.972 503.643 926.949 496.075C932.927 488.507 940.212 480.632 940.057 470.989C939.835 457.13 925.125 448.947 913.372 441.6C904.652 436.147 896.608 429.68 889.411 422.334C886.525 419.388 883.736 416.238 882.048 412.476C879.617 407.058 879.685 400.893 879.838 394.957C880.349 375.181 881.326 355.424 882.769 335.687" stroke="#3F3D56" stroke-miterlimit="10"/>
<path d="M857.177 404.016C860.521 404.175 863.857 403.555 866.92 402.204C869.984 400.854 872.692 398.81 874.832 396.234C876.971 393.659 878.482 390.621 879.248 387.362C880.013 384.102 880.01 380.709 879.24 377.451C878.471 374.192 876.954 371.157 874.811 368.585C872.669 366.012 869.957 363.972 866.892 362.626C863.826 361.28 860.49 360.665 857.145 360.828C853.801 360.991 850.541 361.929 847.621 363.568L851.44 374.033L843.582 366.489C839.369 370.341 836.857 375.708 836.598 381.411C836.499 383.411 836.684 385.416 837.147 387.365C838.221 391.941 840.757 396.042 844.372 399.047C847.986 402.051 852.481 403.796 857.177 404.016V404.016Z" stroke="#3F3D56" stroke-miterlimit="10"/>
<path d="M860.427 338.606C860.595 334.986 861.672 331.466 863.558 328.371C865.444 325.276 868.078 322.706 871.218 320.897L876.058 330.47L875.912 318.881C880.308 317.586 885.001 317.722 889.315 319.268C893.629 320.815 897.34 323.692 899.911 327.485C902.483 331.278 903.783 335.79 903.624 340.37C903.464 344.949 901.853 349.36 899.024 352.965C896.194 356.569 892.292 359.181 887.881 360.424C883.47 361.666 878.778 361.475 874.483 359.877C870.188 358.279 866.512 355.358 863.986 351.534C861.459 347.711 860.213 343.184 860.427 338.606V338.606Z" fill="#57B894"/>
<path d="M860.427 334.606C860.595 330.986 861.672 327.466 863.558 324.371C865.444 321.276 868.078 318.706 871.218 316.897L876.058 326.47L875.912 314.881C880.308 313.586 885.001 313.722 889.315 315.268C893.629 316.815 897.34 319.692 899.911 323.485C902.483 327.278 903.783 331.79 903.624 336.37C903.464 340.949 901.853 345.36 899.024 348.965C896.194 352.569 892.292 355.181 887.881 356.424C883.47 357.666 878.778 357.475 874.483 355.877C870.188 354.279 866.512 351.358 863.986 347.534C861.459 343.711 860.213 339.184 860.427 334.606V334.606Z" stroke="#3F3D56" stroke-miterlimit="10"/>
<path d="M909.812 442.931C915.114 443.179 920.323 441.466 924.444 438.121C928.566 434.775 931.312 430.029 932.159 424.789C933.007 419.548 931.896 414.179 929.04 409.705C926.183 405.231 921.779 401.964 916.669 400.528L916.781 409.433L911.888 399.746C911.868 399.743 911.849 399.742 911.829 399.743C908.993 399.61 906.159 400.037 903.488 401C900.818 401.963 898.363 403.443 896.264 405.354C894.165 407.266 892.463 409.572 891.256 412.141C890.048 414.71 889.358 417.492 889.226 420.328C889.094 423.164 889.521 425.998 890.484 428.669C891.447 431.339 892.926 433.794 894.838 435.893C896.749 437.992 899.055 439.694 901.625 440.901C904.194 442.109 906.976 442.799 909.812 442.931V442.931Z" fill="#57B894"/>
<path d="M909.646 438.931C914.948 439.179 920.157 437.466 924.278 434.12C928.399 430.775 931.146 426.029 931.993 420.789C932.841 415.549 931.73 410.179 928.873 405.705C926.017 401.231 921.614 397.964 916.503 396.528L916.615 405.433L911.722 395.746C911.702 395.743 911.683 395.742 911.663 395.743C908.827 395.61 905.993 396.037 903.322 397C900.652 397.963 898.197 399.443 896.098 401.354C893.999 403.266 892.297 405.572 891.09 408.141C889.882 410.71 889.192 413.492 889.06 416.328C888.928 419.164 889.355 421.998 890.318 424.669C891.281 427.339 892.76 429.794 894.672 431.893C896.583 433.992 898.889 435.694 901.459 436.901C904.028 438.109 906.81 438.799 909.646 438.931V438.931Z" stroke="#3F3D56" stroke-miterlimit="10"/>
<path d="M898.974 483.895C901.242 488.303 904.957 491.797 909.496 493.791C914.034 495.784 919.12 496.157 923.901 494.846C928.682 493.535 932.866 490.62 935.753 486.59C938.64 482.56 940.053 477.66 939.755 472.711C939.458 467.763 937.468 463.068 934.12 459.412C930.771 455.757 926.268 453.364 921.364 452.635C916.461 451.906 911.456 452.885 907.189 455.408C902.922 457.931 899.652 461.845 897.928 466.492L911.429 477.478L896.577 474.036C896.575 477.467 897.397 480.848 898.974 483.895V483.895Z" fill="#57B894"/>
<path d="M898.974 480.895C901.242 485.303 904.957 488.797 909.496 490.791C914.034 492.784 919.12 493.157 923.901 491.846C928.682 490.535 932.866 487.62 935.753 483.59C938.64 479.56 940.053 474.66 939.755 469.711C939.458 464.763 937.468 460.068 934.12 456.412C930.771 452.757 926.268 450.364 921.364 449.635C916.461 448.906 911.456 449.885 907.189 452.408C902.922 454.931 899.652 458.845 897.928 463.492L911.429 474.478L896.577 471.036C896.575 474.467 897.397 477.848 898.974 480.895V480.895Z" stroke="#3F3D56" stroke-miterlimit="10"/>
<path d="M734.074 152.714C736.679 162.974 734.695 174.009 730.285 183.632C725.875 193.255 719.175 201.643 712.085 209.504C708.517 213.459 704.657 217.663 703.9 222.935C702.891 229.964 707.631 236.326 710.814 242.673C713.598 248.233 715.287 254.276 715.788 260.473C716.216 265.795 715.551 271.66 711.823 275.482C708.229 279.167 702.71 280.059 697.585 280.535C683.469 281.845 669.249 281.501 655.213 279.511C659.146 274.28 657.668 271.035 657.299 264.5C656.573 251.682 647.245 240.076 645.433 227.365C643.993 217.26 650.682 207.983 657.005 199.97L685.997 163.226C690.801 157.137 695.586 150.866 699.036 143.886C701.501 138.897 701.963 129.532 708.165 127.869C719.851 124.735 731.801 143.765 734.074 152.714Z" fill="#47465A"/>
<path d="M591.799 183C591.799 183 571.799 242 561.799 246C551.799 250 621.799 322 621.799 322L672.799 297L674.799 249L654.799 248C654.799 248 651.799 228 661.799 218C671.799 208 591.799 183 591.799 183Z" fill="#FBBEBE"/>
<path opacity="0.1" d="M591.799 183C591.799 183 571.799 242 561.799 246C551.799 250 621.799 322 621.799 322L672.799 297L674.799 249L654.799 248C654.799 248 651.799 228 661.799 218C671.799 208 591.799 183 591.799 183Z" fill="black"/>
<path d="M614.799 283C614.799 283 571.799 254 569.799 230C569.799 230 537.799 251 527.799 250C517.799 249 490.799 255 490.799 259C490.799 263 515.799 376 515.799 376C515.799 376 497.799 424 506.799 439C515.799 454 520.799 524 520.799 524H728.799C728.799 524 700.799 475 715.799 440C730.799 405 736.799 258 736.799 258C736.799 258 725.799 250 714.799 252C703.799 254 690.799 246 682.799 245C674.799 244 656.668 248.094 656.668 248.094L614.799 283Z" fill="#009600"/>
<path d="M1006.8 522.928V566.928C1006.8 574.672 1003.75 582.103 998.306 587.612C992.865 593.121 985.472 596.263 977.729 596.359L51.9117 607.789C49.6744 607.817 47.4539 607.4 45.3788 606.563C43.3038 605.726 41.4156 604.485 39.8238 602.913C38.2319 601.34 36.968 599.467 36.1053 597.403C35.2427 595.338 34.7985 593.123 34.7985 590.886V542.247C34.7985 537.893 36.4937 533.709 39.5249 530.583C42.5561 527.457 46.6853 525.633 51.0377 525.499L979.883 496.831C983.378 496.723 986.859 497.318 990.12 498.581C993.38 499.844 996.354 501.749 998.864 504.183C1001.37 506.617 1003.37 509.531 1004.73 512.751C1006.1 515.971 1006.8 519.432 1006.8 522.928V522.928Z" fill="#47465A"/>
<path opacity="0.1" d="M1006.8 555V566.928C1006.8 574.672 1003.75 582.103 998.306 587.612C992.865 593.121 985.472 596.263 977.729 596.359L51.9117 607.789C49.6744 607.817 47.4539 607.4 45.3788 606.563C43.3038 605.726 41.4156 604.485 39.8238 602.912C38.2319 601.34 36.968 599.467 36.1053 597.403C35.2427 595.338 34.7985 593.123 34.7985 590.886V589.32L1006.8 555Z" fill="black"/>
<path d="M824.799 524L707.659 508.801L499.362 516.4L574.799 540L824.799 524Z" fill="#F2F2F2"/>
<path d="M513.799 517V529L399.799 555L388.659 552.43L386.799 552L304.799 508L513.799 517Z" fill="#9493B6"/>
<path opacity="0.1" d="M513.799 517V529L399.799 555L388.659 552.43L386.799 540L513.799 517Z" fill="black"/>
<path d="M382.799 536C384.799 535 426.799 527 426.799 527L350.799 520L382.799 536Z" fill="#47465A"/>
<path d="M645.799 234C681.697 234 710.799 204.899 710.799 169C710.799 133.102 681.697 104 645.799 104C609.9 104 580.799 133.102 580.799 169C580.799 204.899 609.9 234 645.799 234Z" fill="#FBBEBE"/>
<path d="M456.799 463C456.799 463 398.799 488 384.799 481C370.799 474 328.799 456 315.799 493C305.315 522.838 366.515 524.712 390.6 524.319C393.512 524.272 396.379 523.593 399.003 522.329C401.627 521.065 403.946 519.247 405.799 517V517L489.299 488.5C489.299 488.5 470.799 457 456.799 463Z" fill="#FBBEBE"/>
<path d="M620.799 417L627.799 423L562.799 515C562.799 515 552.799 516 555.799 511L620.799 417Z" fill="#47465A"/>
<path d="M624.799 423L631.799 414L628.799 412L621.799 420L624.799 423Z" fill="#47465A"/>
<path d="M506.299 252.5C506.299 252.5 472.299 258.5 473.299 284.5C474.299 310.5 465.799 340 457.799 354C449.799 368 455.799 379 457.799 398C459.799 417 447.799 437 453.799 447C459.799 457 388.799 464 388.799 474C388.799 484 433.799 503 425.799 516C420.043 525.353 460.612 509.602 483.829 500.028C489.875 497.59 495.243 493.73 499.479 488.774C503.714 483.819 506.691 477.915 508.158 471.563C508.861 468.375 509.049 465.5 508.299 463.5C505.299 455.5 540.799 445 541.799 425C542.799 405 536.799 385 531.799 365C526.799 345 506.299 252.5 506.299 252.5Z" fill="#009600"/>
<path d="M10.7767 357.161L304.016 359.936C306.043 359.955 308.023 360.552 309.723 361.656C311.423 362.761 312.773 364.327 313.615 366.171L392.642 539.321C393.397 540.974 393.716 542.792 393.571 544.603C393.425 546.413 392.819 548.157 391.811 549.668C390.802 551.179 389.424 552.407 387.808 553.236C386.191 554.065 384.389 554.467 382.574 554.404L88.3054 544.225C86.3459 544.158 84.4431 543.551 82.806 542.472C81.169 541.393 79.8612 539.883 79.0264 538.109L1.02812 372.363C0.259753 370.73 -0.0816519 368.929 0.0358903 367.128C0.153432 365.328 0.726074 363.586 1.70018 362.067C2.67429 360.548 4.01799 359.301 5.60545 358.443C7.19292 357.585 8.97219 357.144 10.7767 357.161Z" fill="#7A799C"/>
<path d="M702.799 463C702.799 463 644.799 488 630.799 481C616.799 474 574.799 456 561.799 493C551.315 522.839 612.515 524.712 636.6 524.319C639.512 524.272 642.379 523.593 645.003 522.329C647.627 521.065 649.946 519.247 651.799 517V517L736.799 508C736.799 508 716.799 457 702.799 463Z" fill="#FBBEBE"/>
<path opacity="0.1" d="M737.299 273.5C737.299 273.5 751.799 254 758.799 272C765.799 290 764.799 360 764.799 360C764.799 360 776.799 395 772.799 418C768.799 441 776.799 444 776.799 444C776.799 444 778.799 454 772.799 459C766.799 464 762.799 486 764.799 489C766.799 492 761.799 511 757.799 511C753.799 511 745.299 509.5 745.299 509.5C745.299 509.5 724.799 472 681.799 469C681.799 469 688.799 459 684.799 439C680.799 419 737.299 273.5 737.299 273.5Z" fill="black"/>
<path d="M734.799 259C734.799 259 751.299 252.5 758.299 270.5C765.299 288.5 771.799 360 771.799 360C771.799 360 783.799 395 779.799 418C775.799 441 783.799 444 783.799 444C783.799 444 785.799 454 779.799 459C773.799 464 769.799 486 771.799 489C773.799 492 768.799 511 764.799 511C760.799 511 723.799 517 723.799 517C723.799 517 731.799 472 688.799 469C688.799 469 695.799 459 691.799 439C687.799 419 734.799 259 734.799 259Z" fill="#009600"/>
<path d="M667.573 77.2723C657.601 71.0351 646.317 67.1997 634.61 66.0685C622.903 64.9374 611.093 66.5414 600.111 70.7542C588.339 75.3848 577.94 82.9241 568.214 91.0144C560.412 97.5044 552.804 104.585 548.011 113.53C540.744 127.092 540.765 143.236 540.962 158.622C541.133 172.017 541.307 185.453 543.133 198.725C545.637 216.927 551.246 234.949 549.958 253.277C548.67 271.606 537.898 291.161 519.891 294.817C536.642 296.085 553.48 295.6 570.13 293.37C580.624 291.964 591.64 289.561 599.312 282.264C604.915 276.936 608.082 269.589 610.838 262.364C613.607 255.103 616.143 247.557 616.045 239.786C615.843 223.616 604.615 210.053 597.287 195.638C595.231 191.592 593.425 187.242 593.497 182.703C593.568 178.165 595.937 173.401 600.155 171.725C605.36 169.657 611.387 172.742 616.798 171.296C625.491 168.974 627.748 156.901 635.729 152.746C641.635 149.672 649.173 151.977 654.139 156.412C656.36 158.396 658.262 160.793 660.837 162.287C664.329 164.312 668.571 164.411 672.608 164.455C680.144 164.539 705.867 152.725 711.299 147.5C716.597 174.753 755.997 151.035 733.385 110.827C725.513 96.8275 715.07 83.8249 701.179 75.7617C687.288 67.6986 669.565 65.1977 654.982 71.9296" fill="#47465A"/>
<path d="M600.299 200.5C605.269 200.5 609.299 193.337 609.299 184.5C609.299 175.664 605.269 168.5 600.299 168.5C595.328 168.5 591.299 175.664 591.299 184.5C591.299 193.337 595.328 200.5 600.299 200.5Z" fill="#FBBEBE"/>
<path d="M688.799 246.519C688.799 246.519 744.299 254.5 747.299 258.5C750.299 262.5 744.299 286.5 744.299 286.5L704.299 293.5L673.519 286.862L688.799 246.519Z" fill="#009600"/>
<path opacity="0.1" d="M518.679 285.677C510.321 284.236 502.169 291.801 497.841 301.775C493.513 311.749 492.337 323.7 491.912 335.311C491.489 346.851 491.739 358.636 494.367 369.607C499.763 392.136 514.25 408.064 522.634 428.78C529.073 445.216 531.677 462.905 530.247 480.5" fill="black"/>
<path d="M524.679 285.677C516.321 284.236 508.169 291.801 503.841 301.775C499.513 311.749 498.337 323.7 497.912 335.311C497.489 346.851 497.739 358.636 500.367 369.607C505.763 392.136 520.25 408.064 528.634 428.78C535.073 445.216 537.677 462.905 536.247 480.5" fill="#009600"/>
<path d="M846.099 509.119L942.837 547.814L1003.3 536.931L998.026 493.653L997.252 487.353L895.678 455.913L888.422 463.168L846.099 509.119Z" fill="#009600"/>
<path opacity="0.1" d="M901.724 463.616V505.491L1003.3 536.931L998.026 493.653L901.724 463.616Z" fill="black"/>
<path d="M808.219 518.162L815.065 520.697L896.711 550.934L903.056 553.283C903.255 553.358 903.47 553.385 903.682 553.36C903.894 553.335 904.097 553.259 904.273 553.14L911.75 548.127L989.528 495.946L996.876 491.018C997.088 490.876 997.255 490.677 997.359 490.443C997.462 490.209 997.497 489.951 997.459 489.698C997.422 489.446 997.314 489.209 997.147 489.015C996.98 488.822 996.762 488.679 996.518 488.605L984.801 485.017L902.44 459.786L895.249 457.58C895.057 457.52 894.853 457.504 894.653 457.534C894.454 457.564 894.263 457.638 894.096 457.752L888.431 461.569L815.051 510.986L807.94 515.777C807.733 515.915 807.569 516.108 807.466 516.333C807.362 516.558 807.322 516.808 807.351 517.055C807.38 517.301 807.476 517.535 807.629 517.73C807.782 517.925 807.986 518.075 808.219 518.162V518.162Z" fill="#7A799C"/>
<path d="M976.677 495.519L903.799 545.084C903.447 545.323 903.043 545.476 902.62 545.528C902.198 545.581 901.769 545.532 901.369 545.386L823.999 517.14C823.529 516.967 823.115 516.666 822.806 516.272C822.496 515.877 822.302 515.404 822.245 514.906C822.188 514.408 822.271 513.904 822.484 513.45C822.697 512.996 823.033 512.61 823.452 512.335L893.992 466.303C894.322 466.087 894.696 465.947 895.087 465.892C895.478 465.837 895.876 465.87 896.253 465.986L975.962 490.7C976.447 490.852 976.88 491.138 977.21 491.524C977.54 491.911 977.755 492.382 977.83 492.885C977.904 493.388 977.836 493.902 977.632 494.368C977.428 494.833 977.097 495.232 976.677 495.519Z" fill="#F2F2F2"/>
<path d="M984.801 485.017V495.946H989.528L996.876 491.018C997.088 490.876 997.255 490.677 997.359 490.443C997.462 490.209 997.497 489.951 997.459 489.699C997.422 489.446 997.314 489.209 997.147 489.015C996.98 488.822 996.762 488.679 996.518 488.605L984.801 485.017Z" fill="#009600"/>
<path d="M896.71 547.511V550.934L903.056 553.284C903.255 553.359 903.47 553.385 903.682 553.36C903.894 553.335 904.097 553.26 904.273 553.14L911.75 548.127V547.511H896.71Z" fill="#009600"/>
<path d="M808.219 518.162L815.065 520.697V510.986H815.051L807.94 515.777C807.733 515.915 807.569 516.108 807.466 516.333C807.362 516.558 807.322 516.808 807.351 517.055C807.38 517.301 807.476 517.535 807.629 517.73C807.782 517.926 807.986 518.075 808.219 518.162V518.162Z" fill="#009600"/>
<path d="M888.431 461.569H902.44V459.786L895.249 457.58C895.057 457.52 894.853 457.504 894.653 457.534C894.454 457.564 894.263 457.638 894.096 457.752L888.431 461.569Z" fill="#009600"/>
<path d="M857.799 486C858.351 486 858.799 485.552 858.799 485C858.799 484.448 858.351 484 857.799 484C857.246 484 856.799 484.448 856.799 485C856.799 485.552 857.246 486 857.799 486Z" fill="#F2F2F2"/>
<path d="M432.669 26H34.669V228H432.669V26Z" fill="#F2F2F2"/>
<path d="M104.527 209.5L194.669 59L288.169 209.5" fill="#009600"/>
<path d="M241.169 132.5L259.169 85.5L361.169 209.5H240.669L241.169 132.5Z" fill="#009600"/>
<path d="M222.218 113.826C225.02 112.111 227.458 109.861 229.39 107.205C231.322 104.548 232.712 101.536 233.48 98.3419C234.248 95.1476 234.379 91.8333 233.865 88.5885C233.351 85.3436 232.202 82.2319 230.485 79.4311C228.768 76.6304 226.516 74.1955 223.857 72.2658C221.198 70.336 218.185 68.9492 214.99 68.1846C211.795 67.42 208.481 67.2926 205.236 67.8097C201.992 68.3268 198.881 69.4782 196.082 71.1982" fill="#009600"/>
<path d="M456.169 0.5H58.169V202.5H456.169V0.5Z" stroke="#3F3D56" stroke-miterlimit="10"/>
<path d="M109.527 202.5L199.669 52L293.169 202.5" stroke="#3F3D56" stroke-miterlimit="10"/>
<path d="M244.169 123.5L262.169 76.5L364.169 202.5" stroke="#3F3D56" stroke-miterlimit="10"/>
<path d="M229.218 99.8258C232.02 98.1114 234.458 95.8615 236.39 93.2047C238.322 90.5478 239.712 87.5362 240.48 84.3419C241.248 81.1476 241.379 77.8333 240.865 74.5885C240.351 71.3436 239.202 68.2319 237.485 65.4311C235.768 62.6304 233.516 60.1955 230.857 58.2658C228.198 56.336 225.185 54.9492 221.99 54.1846C218.795 53.42 215.481 53.2926 212.236 53.8097C208.992 54.3268 205.881 55.4782 203.082 57.1982" stroke="#3F3D56" stroke-miterlimit="10"/>
</g>
<defs>
<clipPath id="clip0">
<rect width="1006.8" height="607.79" fill="white"/>
</clipPath>
</defs>
</svg>
