<svg width="1177" height="495" viewBox="0 0 1177 495" fill="none" xmlns="http://www.w3.org/2000/svg">
<g clip-path="url(#clip0)">
<path d="M588.5 494.25C913.52 494.25 1177 484.848 1177 473.25C1177 461.652 913.52 452.25 588.5 452.25C263.48 452.25 0 461.652 0 473.25C0 484.848 263.48 494.25 588.5 494.25Z" fill="#009600"/>
<path d="M1047.5 355.82C1049.68 352.005 1050.81 347.676 1050.77 343.28C1050.77 331.95 1043.77 322.76 1035.09 322.76C1026.41 322.76 1019.42 331.95 1019.42 343.28C1019.38 347.676 1020.51 352.005 1022.69 355.82C1020.55 359.652 1019.42 363.969 1019.42 368.36C1019.42 372.751 1020.55 377.068 1022.69 380.9C1020.55 384.73 1019.42 389.046 1019.42 393.435C1019.42 397.824 1020.55 402.14 1022.69 405.97C1020.55 409.802 1019.42 414.119 1019.42 418.51C1019.42 422.901 1020.55 427.218 1022.69 431.05C1020.51 434.865 1019.38 439.194 1019.42 443.59C1019.42 454.92 1026.42 464.11 1035.09 464.11C1043.76 464.11 1050.77 454.92 1050.77 443.59C1050.81 439.194 1049.68 434.865 1047.5 431.05C1049.64 427.218 1050.77 422.901 1050.77 418.51C1050.77 414.119 1049.64 409.802 1047.5 405.97C1049.64 402.14 1050.77 397.824 1050.77 393.435C1050.77 389.046 1049.64 384.73 1047.5 380.9C1049.64 377.068 1050.77 372.751 1050.77 368.36C1050.77 363.969 1049.64 359.652 1047.5 355.82Z" fill="#3F3D56"/>
<path d="M1035.05 338.72C1043.7 338.72 1050.72 329.533 1050.72 318.2C1050.72 306.867 1043.7 297.68 1035.05 297.68C1026.4 297.68 1019.38 306.867 1019.38 318.2C1019.38 329.533 1026.4 338.72 1035.05 338.72Z" fill="#3F3D56"/>
<path d="M1035.05 313.64C1043.7 313.64 1050.72 304.453 1050.72 293.12C1050.72 281.787 1043.7 272.6 1035.05 272.6C1026.4 272.6 1019.38 281.787 1019.38 293.12C1019.38 304.453 1026.4 313.64 1035.05 313.64Z" fill="#3F3D56"/>
<path d="M976.38 121.5C974.238 118.774 972.287 115.904 970.54 112.91L1011.73 106.15L967.18 106.48C962.908 97.1825 960.578 87.1112 960.332 76.8823C960.086 66.6534 961.93 56.4818 965.75 46.9899L1025.51 77.9899L970.4 37.4799C975.557 28.5483 982.499 20.7749 990.792 14.6445C999.086 8.51411 1008.55 4.15813 1018.6 1.84824C1028.66 -0.461653 1039.08 -0.675919 1049.21 1.21878C1059.35 3.11348 1068.99 7.07653 1077.53 12.8608C1086.07 18.6451 1093.32 26.1265 1098.84 34.8385C1104.36 43.5505 1108.03 53.3063 1109.61 63.4975C1111.19 73.6888 1110.66 84.0968 1108.04 94.0726C1105.43 104.049 1100.78 113.378 1094.4 121.48C1097.74 125.721 1100.61 130.315 1102.96 135.18L1049.5 162.97L1106.5 143.84C1110.5 155.672 1111.49 168.314 1109.38 180.624C1107.26 192.934 1102.11 204.522 1094.39 214.34C1103.1 225.414 1108.53 238.716 1110.04 252.727C1111.55 266.737 1109.08 280.89 1102.93 293.566C1096.77 306.243 1087.18 316.931 1075.23 324.409C1063.29 331.887 1049.48 335.853 1035.39 335.853C1021.3 335.853 1007.49 331.887 995.547 324.409C983.604 316.931 974.005 306.243 967.85 293.566C961.695 280.89 959.232 266.737 960.742 252.727C962.252 238.716 967.675 225.414 976.39 214.34C965.98 201.106 960.32 184.758 960.32 167.92C960.32 151.082 965.98 134.734 976.39 121.5H976.38Z" fill="#D6D6D6"/>
<path opacity="0.1" d="M1110.5 167.92C1110.53 184.762 1104.86 201.119 1094.43 214.34C1103.14 225.414 1108.57 238.716 1110.08 252.727C1111.59 266.737 1109.12 280.89 1102.97 293.566C1096.81 306.243 1087.22 316.931 1075.27 324.409C1063.33 331.887 1049.52 335.853 1035.43 335.853C1021.34 335.853 1007.53 331.887 995.587 324.409C983.644 316.931 974.045 306.243 967.89 293.566C961.735 280.89 959.272 266.737 960.782 252.727C962.292 238.716 967.715 225.414 976.43 214.34C966.32 201.57 1110.5 159.5 1110.5 167.92Z" fill="black"/>
<path d="M985.08 7H191.92C180.642 7 171.5 16.1423 171.5 27.42V442.58C171.5 453.858 180.642 463 191.92 463H985.08C996.358 463 1005.5 453.858 1005.5 442.58V27.42C1005.5 16.1423 996.358 7 985.08 7Z" fill="#F2F2F2"/>
<path d="M172 29.5H440V463.5H192.42C187.004 463.5 181.81 461.349 177.981 457.519C174.151 453.69 172 448.496 172 443.08V29.5Z" fill="#D6D6D6"/>
<path d="M1005.5 27.42V39.01H171.5V27.42C171.5 24.7389 172.028 22.084 173.055 19.6071C174.081 17.1302 175.585 14.8798 177.481 12.9844C179.378 11.089 181.629 9.58585 184.106 8.56074C186.584 7.53563 189.239 7.00869 191.92 7.01001H985.08C987.761 7.00869 990.416 7.53563 992.894 8.56074C995.371 9.58585 997.622 11.089 999.518 12.9844C1001.41 14.8798 1002.92 17.1302 1003.95 19.6071C1004.97 22.084 1005.5 24.7389 1005.5 27.42Z" fill="#009600"/>
<path d="M193 29.5C196.314 29.5 199 26.8137 199 23.5C199 20.1863 196.314 17.5 193 17.5C189.686 17.5 187 20.1863 187 23.5C187 26.8137 189.686 29.5 193 29.5Z" fill="#D6D6D6"/>
<path d="M208 29.5C211.314 29.5 214 26.8137 214 23.5C214 20.1863 211.314 17.5 208 17.5C204.686 17.5 202 20.1863 202 23.5C202 26.8137 204.686 29.5 208 29.5Z" fill="#D6D6D6"/>
<path d="M223 29.5C226.314 29.5 229 26.8137 229 23.5C229 20.1863 226.314 17.5 223 17.5C219.686 17.5 217 20.1863 217 23.5C217 26.8137 219.686 29.5 223 29.5Z" fill="#D6D6D6"/>
<path opacity="0.3" d="M956.26 93.1199H611.74C611.055 93.1199 610.5 93.6751 610.5 94.3599V102.88C610.5 103.565 611.055 104.12 611.74 104.12H956.26C956.945 104.12 957.5 103.565 957.5 102.88V94.3599C957.5 93.6751 956.945 93.1199 956.26 93.1199Z" fill="#D6D6D6"/>
<path d="M951.26 114.12H880.74C880.055 114.12 879.5 114.675 879.5 115.36V137.88C879.5 138.565 880.055 139.12 880.74 139.12H951.26C951.945 139.12 952.5 138.565 952.5 137.88V115.36C952.5 114.675 951.945 114.12 951.26 114.12Z" fill="#009600"/>
<path opacity="0.3" d="M956.26 226.88H611.74C611.055 226.88 610.5 227.435 610.5 228.12V236.64C610.5 237.325 611.055 237.88 611.74 237.88H956.26C956.945 237.88 957.5 237.325 957.5 236.64V228.12C957.5 227.435 956.945 226.88 956.26 226.88Z" fill="#D6D6D6"/>
<path d="M951.26 247.88H880.74C880.055 247.88 879.5 248.435 879.5 249.12V271.64C879.5 272.325 880.055 272.88 880.74 272.88H951.26C951.945 272.88 952.5 272.325 952.5 271.64V249.12C952.5 248.435 951.945 247.88 951.26 247.88Z" fill="#009600"/>
<path opacity="0.3" d="M956.26 362.88H611.74C611.055 362.88 610.5 363.435 610.5 364.12V372.64C610.5 373.325 611.055 373.88 611.74 373.88H956.26C956.945 373.88 957.5 373.325 957.5 372.64V364.12C957.5 363.435 956.945 362.88 956.26 362.88Z" fill="#D6D6D6"/>
<path d="M951.26 383.88H880.74C880.055 383.88 879.5 384.435 879.5 385.12V407.64C879.5 408.325 880.055 408.88 880.74 408.88H951.26C951.945 408.88 952.5 408.325 952.5 407.64V385.12C952.5 384.435 951.945 383.88 951.26 383.88Z" fill="#009600"/>
<path d="M535.19 299.4C562.539 299.4 584.71 277.229 584.71 249.88C584.71 222.531 562.539 200.36 535.19 200.36C507.841 200.36 485.67 222.531 485.67 249.88C485.67 277.229 507.841 299.4 535.19 299.4Z" fill="#3F3D56" fill-opacity="0.24"/>
<path d="M578.89 276C578.836 276.119 578.765 276.23 578.68 276.33C578.141 277.222 577.557 278.087 576.93 278.92C571.438 286.522 563.894 292.402 555.18 295.87C554.32 296.23 553.44 296.56 552.55 296.87C551.726 296.21 550.963 295.477 550.27 294.68C548.204 292.334 546.821 289.467 546.27 286.39C544.952 286.644 543.612 286.771 542.27 286.77C542.137 286.78 542.003 286.78 541.87 286.77C531.57 286.59 522.73 279.05 518.78 268.29L518.62 267.83C516.211 260.821 515.94 253.254 517.84 246.09C517.89 245.85 517.97 245.61 518.04 245.38C521.42 233.77 530.34 225.31 540.95 224.64C541.28 224.64 541.61 224.64 541.95 224.64C542.29 224.64 542.49 224.64 542.76 224.64H543.24C556.68 225.13 567.5 238.13 568 254.39C570.747 256.194 572.922 258.744 574.27 261.741C575.618 264.738 576.083 268.058 575.61 271.31C576.951 272.685 578.059 274.269 578.89 276Z" fill="#192534"/>
<path opacity="0.1" d="M578.68 276.33C578.141 277.222 577.557 278.087 576.93 278.92C576.206 277.621 575.307 276.426 574.26 275.37C574.375 274.545 574.435 273.713 574.44 272.88C574.44 270.017 573.728 267.2 572.368 264.681C571.008 262.162 569.043 260.021 566.65 258.45C566.1 241.85 554.81 228.59 540.98 228.59C531.1 228.59 522.53 235.33 518.22 245.23C518.11 245.49 518.01 245.74 517.89 246.01C517.53 246.87 517.21 247.74 516.89 248.65C517.243 246.822 517.734 245.023 518.36 243.27L518.5 243.13C522.35 232.52 530.95 224.99 541.05 224.54C541.38 224.54 541.71 224.54 542.05 224.54C542.39 224.54 542.59 224.54 542.86 224.54H543.34C556.59 225.34 567.2 238.28 567.71 254.37C570.463 256.169 572.644 258.718 573.996 261.716C575.348 264.714 575.815 268.036 575.34 271.29C576.745 272.758 577.876 274.465 578.68 276.33Z" fill="black"/>
<path d="M526.5 262.13C526.624 263.143 526.507 264.171 526.16 265.13C525.57 266.5 524.16 267.73 524.55 269.13C524.748 269.569 525.047 269.956 525.422 270.258C525.798 270.56 526.239 270.77 526.71 270.87C531.02 272.33 535.71 271.46 540.27 271.66C541.789 271.793 543.315 271.846 544.84 271.82C546.374 271.786 547.858 271.268 549.08 270.34C546.711 269.189 544.475 267.784 542.41 266.15C541.908 265.778 541.454 265.345 541.06 264.86C540.212 263.488 539.804 261.89 539.89 260.28C539.89 258.69 539.89 257.1 539.89 255.52C536.63 255.52 533.38 255.47 530.12 255.47C529.12 255.47 525.89 255.22 525.52 256.35C525.34 256.91 526.04 258.56 526.15 259.19C526.318 260.163 526.435 261.145 526.5 262.13Z" fill="#A0616A"/>
<path opacity="0.1" d="M526.5 262.13C526.624 263.143 526.507 264.171 526.16 265.13C525.57 266.5 524.16 267.73 524.55 269.13C524.748 269.569 525.047 269.956 525.422 270.258C525.798 270.56 526.239 270.77 526.71 270.87C531.02 272.33 535.71 271.46 540.27 271.66C541.789 271.793 543.315 271.846 544.84 271.82C546.374 271.786 547.858 271.268 549.08 270.34C546.711 269.189 544.475 267.784 542.41 266.15C541.908 265.778 541.454 265.345 541.06 264.86C540.212 263.488 539.804 261.89 539.89 260.28C539.89 258.69 539.89 257.1 539.89 255.52C536.63 255.52 533.38 255.47 530.12 255.47C529.12 255.47 525.89 255.22 525.52 256.35C525.34 256.91 526.04 258.56 526.15 259.19C526.318 260.163 526.435 261.145 526.5 262.13Z" fill="black"/>
<path d="M533.2 260.69C539.546 260.69 544.69 255.546 544.69 249.2C544.69 242.854 539.546 237.71 533.2 237.71C526.854 237.71 521.71 242.854 521.71 249.2C521.71 255.546 526.854 260.69 533.2 260.69Z" fill="#A0616A"/>
<path d="M554.99 282.53C554.99 282.84 554.93 283.17 554.88 283.53C554.508 285.394 553.962 287.218 553.25 288.98C552.828 290.175 552.32 291.338 551.73 292.46C551.3 293.23 550.73 293.94 550.27 294.69L549.61 295.76C549.189 296.481 548.831 297.237 548.54 298.02C546.611 298.514 544.649 298.871 542.67 299.09C540.735 299.322 538.789 299.439 536.84 299.44C526.39 299.44 515.12 296.73 507.13 291.19C507.13 291.19 508.3 290.38 508.13 290.19C508.13 289.73 508.08 289.28 508.08 288.82C508.068 287.636 508.261 286.458 508.65 285.34C508.99 284.268 509.584 283.294 510.38 282.5C511.38 281.5 512.72 280.88 513.79 279.92C515.157 278.598 516.124 276.917 516.58 275.07C516.83 274.27 517.01 273.42 517.18 272.6C517.332 271.479 517.642 270.385 518.1 269.35C518.164 269.218 518.237 269.091 518.32 268.97C518.472 268.713 518.653 268.475 518.86 268.26C519.88 267.266 521.073 266.466 522.38 265.9C523.47 265.34 525 264.9 525.76 265.83V265.9C526.009 266.472 526.219 267.06 526.39 267.66C527 268.92 528.7 269.08 530.08 269.05C534.961 268.948 539.83 268.54 544.66 267.83L547 267.45C548.69 267.17 549.87 268.65 550.82 270.09C553.28 273.8 555.36 278.07 554.99 282.53Z" fill="#D6D6D6"/>
<path opacity="0.1" d="M519.9 283.31C518.83 283.55 518.21 284.63 517.71 285.61C516.762 287.221 516.345 289.089 516.52 290.95C516.491 291.681 516.568 292.412 516.75 293.12C516.934 293.833 517.385 294.449 518.01 294.84" stroke="black" stroke-miterlimit="10"/>
<path d="M548.59 244.128C549.457 240.735 544.586 236.56 537.711 234.802C530.835 233.045 524.558 234.37 523.691 237.762C522.823 241.155 527.694 245.33 534.57 247.087C541.446 248.845 547.723 247.52 548.59 244.128Z" fill="#192534"/>
<path opacity="0.1" d="M535.21 244.68C529.1 243.12 524.58 239.68 524.21 236.52C523.926 236.876 523.722 237.289 523.61 237.73C522.74 241.12 527.61 245.29 534.48 247.05C541.35 248.81 547.63 247.48 548.48 244.05C548.576 243.671 548.604 243.278 548.56 242.89C546.73 245.41 541.2 246.21 535.21 244.68Z" fill="black"/>
<path d="M555.29 290.68C555.29 292.42 555.29 294.15 555.18 295.87C554.32 296.23 553.44 296.56 552.55 296.87C551.239 297.325 549.904 297.706 548.55 298.01C546.621 298.504 544.659 298.862 542.68 299.08C542.33 294.94 541.54 290.95 541.93 286.75C542.255 283.533 543.36 280.443 545.15 277.75C545.852 276.57 546.857 275.6 548.06 274.94C548.661 274.621 549.34 274.48 550.019 274.533C550.697 274.586 551.346 274.831 551.89 275.24C552.571 275.951 553.047 276.832 553.27 277.79C553.945 279.666 554.486 281.588 554.89 283.54C554.89 283.75 554.96 283.98 554.99 284.2C555.267 286.348 555.367 288.515 555.29 290.68Z" fill="#A0616A"/>
<path d="M584.7 385.88C584.723 394.162 582.66 402.316 578.7 409.59C578.26 410.39 577.8 411.2 577.28 412C577.226 412.119 577.155 412.23 577.07 412.33C576.531 413.222 575.947 414.087 575.32 414.92C571.521 420.189 566.711 424.649 561.17 428.04L560.88 428.24C559.059 429.333 557.172 430.312 555.23 431.17C554.69 431.41 554.13 431.64 553.57 431.87C553.01 432.1 552.49 432.31 551.93 432.49C551.65 432.61 551.35 432.71 551.06 432.81C551.027 432.806 550.993 432.806 550.96 432.81C550.35 433.03 549.72 433.22 549.1 433.41L548.63 433.52C548.07 433.69 547.51 433.83 546.95 433.95C545.018 434.445 543.053 434.802 541.07 435.02C539.149 435.253 537.215 435.37 535.28 435.37C535.08 435.37 534.88 435.37 534.68 435.37C531.997 435.362 529.319 435.114 526.68 434.63L526.2 434.55C525.71 434.47 525.2 434.37 524.73 434.25L523.8 434.04C522.814 433.824 521.839 433.557 520.88 433.24C518.926 432.654 517.012 431.943 515.15 431.11L514.94 431.02C512.213 429.785 509.606 428.302 507.15 426.59C506.941 426.467 506.74 426.33 506.55 426.18C499.637 421.252 494.107 414.628 490.492 406.946C486.877 399.264 485.298 390.781 485.908 382.313C486.517 373.845 489.294 365.675 493.971 358.59C498.648 351.504 505.069 345.74 512.617 341.852C520.164 337.964 528.585 336.082 537.07 336.388C545.554 336.693 553.818 339.175 561.067 343.595C568.315 348.015 574.306 354.225 578.462 361.629C582.618 369.032 584.801 377.38 584.8 385.87L584.7 385.88Z" fill="#3F3D56" fill-opacity="0.24"/>
<path d="M547.17 373.95C547.052 376.656 545.894 379.211 543.938 381.084C541.982 382.956 539.378 384.002 536.67 384.002C533.962 384.002 531.358 382.956 529.402 381.084C527.446 379.211 526.288 376.656 526.17 373.95C526.17 373.78 526.17 373.61 526.17 373.45C526.17 370.665 527.276 367.995 529.245 366.025C531.214 364.056 533.885 362.95 536.67 362.95C539.455 362.95 542.125 364.056 544.095 366.025C546.064 367.995 547.17 370.665 547.17 373.45C547.16 373.61 547.17 373.78 547.17 373.95Z" fill="#192534"/>
<path opacity="0.1" d="M547.17 373.95C547.052 376.656 545.894 379.211 543.938 381.084C541.982 382.956 539.378 384.002 536.67 384.002C533.962 384.002 531.358 382.956 529.402 381.084C527.446 379.211 526.288 376.656 526.17 373.95C526.17 373.78 526.17 373.61 526.17 373.45C529.132 371.026 532.842 369.701 536.67 369.701C540.498 369.701 544.208 371.026 547.17 373.45C547.16 373.61 547.17 373.78 547.17 373.95Z" fill="black"/>
<path d="M536.66 403.81C545.822 403.81 553.25 396.382 553.25 387.22C553.25 378.058 545.822 370.63 536.66 370.63C527.498 370.63 520.07 378.058 520.07 387.22C520.07 396.382 527.498 403.81 536.66 403.81Z" fill="#192534"/>
<path d="M526.61 371.63C526.612 369.085 527.537 366.626 529.215 364.712C530.892 362.797 533.207 361.557 535.73 361.22C534.244 361.019 532.733 361.138 531.297 361.569C529.861 362 528.534 362.734 527.405 363.72C526.276 364.707 525.371 365.924 524.751 367.289C524.131 368.654 523.81 370.136 523.81 371.635C523.81 373.134 524.131 374.616 524.751 375.981C525.371 377.346 526.276 378.563 527.405 379.549C528.534 380.536 529.861 381.27 531.297 381.701C532.733 382.132 534.244 382.251 535.73 382.05C533.205 381.713 530.889 380.471 529.211 378.554C527.534 376.638 526.609 374.177 526.61 371.63Z" fill="#192534"/>
<path d="M517.94 393.96C516.032 392.274 514.801 389.953 514.475 387.428C514.15 384.902 514.752 382.345 516.17 380.23C515.817 380.543 515.483 380.877 515.17 381.23C514.218 382.258 513.482 383.467 513.004 384.784C512.526 386.102 512.316 387.501 512.387 388.901C512.458 390.3 512.808 391.672 513.417 392.934C514.026 394.196 514.881 395.324 515.932 396.251C516.983 397.178 518.208 397.885 519.537 398.331C520.865 398.778 522.269 398.954 523.667 398.849C525.064 398.745 526.427 398.362 527.674 397.723C528.921 397.085 530.028 396.203 530.93 395.13C531.236 394.781 531.52 394.414 531.78 394.03C529.856 395.696 527.392 396.608 524.847 396.595C522.301 396.582 519.847 395.646 517.94 393.96Z" fill="#192534"/>
<path d="M527.98 408.26C527.116 408.43 526.281 408.723 525.5 409.13C524.12 410.13 524.17 412.13 524.58 413.76C525.52 417.48 527.82 421.05 531.34 422.57C533.519 423.374 535.842 423.714 538.16 423.57C540.67 423.57 543.51 423.23 545.07 421.25C545.772 420.206 546.252 419.028 546.48 417.79C547.25 414.79 548.03 411.69 547.75 408.59C546.23 408.72 544.53 408.81 543.33 407.85C542.13 406.89 541.86 405.06 541.33 403.54C541.272 403.296 541.135 403.078 540.94 402.92C540.721 402.821 540.478 402.786 540.24 402.82C538.644 402.888 537.045 402.822 535.46 402.62C534.46 402.49 532.04 401.46 531.3 402.33C530.76 402.96 531.1 404.88 530.68 405.77C530.417 406.343 530.043 406.858 529.58 407.286C529.116 407.713 528.573 408.044 527.98 408.26Z" fill="#FFC1C7"/>
<path opacity="0.05" d="M527.98 408.26C527.116 408.43 526.281 408.723 525.5 409.13C524.12 410.13 524.17 412.13 524.58 413.76C525.52 417.48 527.82 421.05 531.34 422.57C533.519 423.374 535.842 423.714 538.16 423.57C540.67 423.57 543.51 423.23 545.07 421.25C545.772 420.206 546.252 419.028 546.48 417.79C547.25 414.79 548.03 411.69 547.75 408.59C546.23 408.72 544.53 408.81 543.33 407.85C542.13 406.89 541.86 405.06 541.33 403.54C541.272 403.296 541.135 403.078 540.94 402.92C540.721 402.821 540.478 402.786 540.24 402.82C538.644 402.888 537.045 402.822 535.46 402.62C534.46 402.49 532.04 401.46 531.3 402.33C530.76 402.96 531.1 404.88 530.68 405.77C530.417 406.343 530.043 406.858 529.58 407.286C529.116 407.713 528.573 408.044 527.98 408.26Z" fill="black"/>
<path d="M536.43 406.83C542.836 406.83 548.03 401.637 548.03 395.23C548.03 388.824 542.836 383.63 536.43 383.63C530.023 383.63 524.83 388.824 524.83 395.23C524.83 401.637 530.023 406.83 536.43 406.83Z" fill="#FFC1C7"/>
<path d="M561.86 420.36C561.78 420.46 561.7 420.58 561.61 420.68L561.12 421.32C558.65 424.28 556.65 427.602 555.19 431.17C554.65 431.41 554.09 431.64 553.53 431.87C552.97 432.1 552.45 432.31 551.89 432.49C551.61 432.61 551.31 432.71 551.02 432.81C550.987 432.806 550.953 432.806 550.92 432.81C550.31 433.03 549.68 433.22 549.06 433.41L548.59 433.52C548.03 433.69 547.47 433.83 546.91 433.95C544.978 434.445 543.013 434.802 541.03 435.02C539.109 435.253 537.175 435.37 535.24 435.37C535.04 435.37 534.84 435.37 534.64 435.37C531.957 435.362 529.279 435.114 526.64 434.63L526.16 434.55C525.67 434.47 525.16 434.37 524.69 434.25L523.76 434.04C522.774 433.824 521.799 433.557 520.84 433.24C521.108 431.564 521.854 430.001 522.99 428.74C520.74 426.05 517.04 424.99 514.65 422.45C514.442 422.208 514.248 421.955 514.07 421.69C513.945 421.498 513.841 421.294 513.76 421.08C513.689 420.911 513.645 420.732 513.63 420.55C513.555 420.182 513.524 419.806 513.54 419.43C513.48 416.59 513.61 413.35 515.81 411.57C516.89 410.813 518.106 410.27 519.39 409.97C521.623 409.271 523.797 408.395 525.89 407.35C526.082 407.797 526.21 408.268 526.27 408.75C526.47 409.91 526.45 411.13 526.72 412.28C527.244 414.331 528.513 416.114 530.28 417.28C532.042 418.434 534.048 419.163 536.14 419.41C538.2 419.71 539.84 418.64 541.78 417.91C542.639 417.635 543.433 417.186 544.11 416.59C544.986 415.579 545.453 414.277 545.42 412.94C545.42 411.62 545.27 410.3 545.35 408.94C545.352 408.802 545.369 408.665 545.4 408.53C545.403 408.182 545.514 407.844 545.719 407.562C545.923 407.281 546.21 407.07 546.54 406.96C546.915 406.929 547.291 406.998 547.63 407.16L551.37 408.59C552.991 409.151 554.552 409.871 556.03 410.74C557.664 411.801 559.036 413.217 560.046 414.883C561.055 416.549 561.676 418.421 561.86 420.36Z" fill="#D6D6D6"/>
<path opacity="0.1" d="M526.59 434.64L526.11 434.56C525.62 434.48 525.11 434.38 524.64 434.26L523.71 434.05C522.724 433.834 521.749 433.567 520.79 433.25C518.836 432.664 516.922 431.953 515.06 431.12C514.124 428.074 513.784 424.875 514.06 421.7C514.182 420.338 514.464 418.996 514.9 417.7C517 419.7 520.58 418.57 522.96 420.17C523.605 420.627 524.133 421.23 524.5 421.93C525.166 423.211 525.619 424.593 525.84 426.02C525.99 426.8 526.13 427.59 526.25 428.38C526.25 428.52 526.25 428.63 526.25 428.75C526.25 428.87 526.25 429 526.25 429.13C526.33 429.69 526.4 430.27 526.43 430.84C526.59 432.13 526.59 433.37 526.59 434.64Z" fill="black"/>
<path d="M526.11 434.56C525.62 434.48 525.11 434.38 524.64 434.26L523.71 434.05C522.724 433.834 521.749 433.567 520.79 433.25C518.836 432.664 516.922 431.953 515.06 431.12L514.85 431.03C513.702 427.667 513.269 424.1 513.58 420.56C513.723 419.282 513.998 418.022 514.4 416.8C516.5 418.8 520.08 417.69 522.46 419.29C523.377 419.949 524.074 420.869 524.46 421.93C524.849 422.957 525.14 424.018 525.33 425.1C525.55 426.27 525.76 427.44 525.9 428.63C525.931 428.795 525.948 428.962 525.95 429.13C525.95 429.24 525.95 429.38 525.95 429.49C525.95 429.6 525.95 429.77 525.95 429.92C526.14 431.45 526.13 433.01 526.11 434.56Z" fill="#D6D6D6"/>
<path opacity="0.1" d="M560.84 428.24C559.019 429.333 557.132 430.312 555.19 431.17C554.65 431.41 554.09 431.64 553.53 431.87C552.97 432.1 552.45 432.31 551.89 432.49C551.61 432.61 551.31 432.71 551.02 432.81C550.987 432.806 550.953 432.806 550.92 432.81C550.31 433.03 549.68 433.22 549.06 433.41L548.59 433.52C548.59 432.63 548.59 431.71 548.69 430.81C548.76 430.1 548.84 429.39 548.94 428.68C548.94 428.55 548.94 428.42 548.99 428.29C549 428.207 549 428.123 548.99 428.04C549.11 427.36 549.24 426.67 549.37 425.99C549.577 424.56 550.031 423.176 550.71 421.9C551.085 421.213 551.616 420.624 552.26 420.18C554.64 418.58 558.26 419.67 560.26 417.71C560.654 418.872 560.925 420.072 561.07 421.29C561.341 423.605 561.263 425.948 560.84 428.24Z" fill="black"/>
<path d="M561.13 428.04L560.84 428.24C559.019 429.333 557.132 430.312 555.19 431.17C554.65 431.41 554.09 431.64 553.53 431.87C552.97 432.1 552.45 432.31 551.89 432.49C551.61 432.61 551.31 432.71 551.02 432.81C550.987 432.806 550.953 432.806 550.92 432.81C550.31 433.03 549.68 433.22 549.06 433.41C549.06 432.23 549.06 431.06 549.16 429.89C549.16 429.59 549.16 429.28 549.24 428.98C549.24 428.85 549.24 428.7 549.24 428.57C549.24 428.44 549.24 428.35 549.24 428.26C549.39 427.18 549.57 426.13 549.79 425.07C549.98 423.988 550.271 422.927 550.66 421.9C551.046 420.839 551.743 419.919 552.66 419.26C555.04 417.66 558.66 418.75 560.66 416.77C561.09 418.026 561.371 419.328 561.5 420.65C561.769 423.117 561.644 425.612 561.13 428.04Z" fill="#D6D6D6"/>
<path d="M536.2 393.6C543.888 393.6 550.12 389.445 550.12 384.32C550.12 379.195 543.888 375.04 536.2 375.04C528.512 375.04 522.28 379.195 522.28 384.32C522.28 389.445 528.512 393.6 536.2 393.6Z" fill="#192534"/>
<path opacity="0.05" d="M524.63 432.86C524.63 433.07 524.63 433.29 524.63 433.52C524.63 433.75 524.63 433.96 524.63 434.18C524.626 434.207 524.626 434.233 524.63 434.26L523.7 434.05C523.685 433.874 523.685 433.696 523.7 433.52C523.699 432.593 523.898 431.676 524.282 430.832C524.667 429.988 525.229 429.237 525.93 428.63C526.022 428.533 526.126 428.449 526.24 428.38C526.777 427.944 527.386 427.605 528.04 427.38C528.64 427.148 529.277 427.026 529.92 427.02C530.006 427.01 530.094 427.01 530.18 427.02C530.34 427.01 530.5 427.01 530.66 427.02H530.33C528.799 427.181 527.378 427.892 526.33 429.02C526.213 429.128 526.109 429.249 526.02 429.38C525.22 430.375 524.736 431.587 524.63 432.86Z" fill="black"/>
<path d="M534.81 433.52C534.809 434.146 534.735 434.771 534.59 435.38C531.907 435.372 529.229 435.124 526.59 434.64L526.11 434.56C525.62 434.48 525.11 434.38 524.64 434.26V434.18C524.64 433.96 524.64 433.75 524.64 433.52C524.64 433.29 524.64 433.07 524.64 432.86C524.725 431.518 525.182 430.226 525.96 429.13C526.049 428.992 526.153 428.865 526.27 428.75C526.736 428.168 527.337 427.708 528.02 427.41C528.545 427.16 529.119 427.03 529.7 427.03C529.766 427.02 529.834 427.02 529.9 427.03C530.037 427.02 530.174 427.02 530.31 427.03C532.84 427.46 534.81 430.2 534.81 433.52Z" fill="#D6D6D6"/>
<path opacity="0.05" d="M551.89 432.49C551.61 432.61 551.31 432.71 551.02 432.81C550.877 431.378 550.249 430.037 549.24 429.01L548.94 428.71C547.941 427.814 546.692 427.245 545.36 427.08H545.03C545.183 427.07 545.337 427.07 545.49 427.08C545.58 427.07 545.67 427.07 545.76 427.08C546.406 427.095 547.044 427.217 547.65 427.44C548.131 427.605 548.591 427.827 549.02 428.1C549.131 428.157 549.232 428.231 549.32 428.32C550.002 428.811 550.581 429.432 551.022 430.148C551.463 430.864 551.758 431.66 551.89 432.49Z" fill="black"/>
<path d="M551.02 432.81C550.987 432.806 550.953 432.806 550.92 432.81C550.31 433.03 549.68 433.22 549.06 433.41L548.59 433.52C548.03 433.69 547.47 433.83 546.91 433.95C544.978 434.445 543.013 434.802 541.03 435.02C540.929 434.516 540.878 434.004 540.88 433.49C540.88 430.17 542.88 427.43 545.39 427.05C545.523 427.04 545.657 427.04 545.79 427.05C545.853 427.04 545.917 427.04 545.98 427.05C546.568 427.048 547.149 427.177 547.68 427.43C548.177 427.651 548.631 427.959 549.02 428.34C549.13 428.422 549.23 428.516 549.32 428.62C550.323 429.797 550.919 431.267 551.02 432.81Z" fill="#D6D6D6"/>
<path opacity="0.1" d="M536.2 392.68C528.74 392.68 522.65 388.78 522.29 383.87C522.29 384.02 522.29 384.17 522.29 384.33C522.29 389.46 528.53 393.61 536.22 393.61C543.91 393.61 550.14 389.46 550.14 384.33C550.14 384.17 550.14 384.02 550.14 383.87C549.74 388.78 543.65 392.68 536.2 392.68Z" fill="black"/>
<path d="M485.67 116.13C485.653 124.408 487.716 132.558 491.67 139.83C492.12 140.64 492.58 141.45 493.09 142.24C493.148 142.36 493.222 142.471 493.31 142.57C493.861 143.454 494.458 144.309 495.1 145.13C497.177 148.019 499.572 150.666 502.24 153.02C502.735 153.495 503.256 153.942 503.8 154.36C505.513 155.791 507.332 157.092 509.24 158.25L509.54 158.45C511.36 159.54 513.244 160.522 515.18 161.39L516.85 162.08C517.4 162.31 517.92 162.53 518.49 162.71C518.77 162.82 519.06 162.92 519.36 163.02H519.5C520.107 163.24 520.727 163.44 521.36 163.62L521.82 163.73C522.38 163.9 522.95 164.05 523.51 164.16C524.27 164.36 525.02 164.53 525.8 164.67C526.97 164.9 528.18 165.1 529.38 165.24C531.301 165.47 533.235 165.583 535.17 165.58H535.76C538.443 165.563 541.12 165.313 543.76 164.83C543.922 164.814 544.082 164.787 544.24 164.75C544.73 164.67 545.24 164.57 545.71 164.45C546.03 164.39 546.32 164.32 546.64 164.24C547.64 164.02 548.64 163.76 549.56 163.45C550.15 163.26 550.73 163.08 551.31 162.88C552.48 162.47 553.65 162.03 554.77 161.53C554.945 161.472 555.115 161.402 555.28 161.32L555.5 161.22C556.98 160.553 558.42 159.81 559.82 158.99C561.01 158.31 562.17 157.57 563.29 156.79H563.36C563.542 156.684 563.716 156.563 563.88 156.43C570.801 151.506 576.339 144.885 579.962 137.202C583.584 129.519 585.169 121.034 584.564 112.561C583.959 104.089 581.185 95.9147 576.508 88.8245C571.831 81.7344 565.408 75.9667 557.858 72.0761C550.307 68.1855 541.883 66.3028 533.395 66.6091C524.906 66.9154 516.639 69.4004 509.389 73.825C502.139 78.2497 496.149 84.4653 491.995 91.8741C487.841 99.283 485.663 107.636 485.67 116.13Z" fill="#3F3D56" fill-opacity="0.24"/>
<path d="M546.18 135.75C546.91 136.393 547.418 137.251 547.63 138.2C546.19 138.58 544.72 137.87 543.38 137.2C539.219 135.248 534.827 133.834 530.31 132.99C529.948 132.956 529.603 132.825 529.31 132.61C529.083 132.304 528.966 131.93 528.977 131.55C528.988 131.169 529.126 130.803 529.37 130.51C529.87 129.99 530.81 130.06 531.49 130.03C534.2 129.891 536.909 130.326 539.44 131.304C541.972 132.283 544.268 133.784 546.18 135.71V135.75Z" fill="#D6D6D6"/>
<path d="M531.55 131.77C531.25 132.519 530.803 133.2 530.234 133.772C529.666 134.344 528.987 134.796 528.24 135.1C527.43 135.39 526.56 135.44 525.74 135.67C525.32 135.758 524.927 135.941 524.59 136.207C524.253 136.472 523.983 136.812 523.8 137.2C523.69 137.549 523.639 137.914 523.65 138.28C523.52 141.73 523.42 145.28 524.8 148.48C525.99 151.22 528.17 153.38 530.33 155.43C532.85 157.84 535.52 160.28 538.84 161.36C540.78 161.99 543.07 162.06 544.68 160.81C545.312 160.262 545.861 159.625 546.31 158.92C547.433 157.449 548.373 155.847 549.11 154.15C550.48 150.63 550.02 146.69 549.54 142.94C549.537 142.717 549.452 142.503 549.3 142.34C549.091 142.21 548.84 142.167 548.6 142.22C547.741 142.307 546.877 142.123 546.128 141.692C545.38 141.261 544.786 140.607 544.43 139.82C544.223 139.106 544.145 138.361 544.2 137.62L544.27 133.34C544.303 132.881 544.249 132.419 544.11 131.98C543.717 131.267 543.082 130.717 542.32 130.43C539.983 129.26 537.547 128.3 535.04 127.56C533.94 127.24 533.1 126.7 532.61 127.88C532.12 129.06 532.12 130.53 531.55 131.77Z" fill="#FBBEBE"/>
<path opacity="0.1" d="M531.55 131.77C531.25 132.519 530.803 133.2 530.234 133.772C529.666 134.344 528.987 134.796 528.24 135.1C527.43 135.39 526.56 135.44 525.74 135.67C525.32 135.758 524.927 135.941 524.59 136.207C524.253 136.472 523.983 136.812 523.8 137.2C523.69 137.549 523.639 137.914 523.65 138.28C523.52 141.73 523.42 145.28 524.8 148.48C525.99 151.22 528.17 153.38 530.33 155.43C532.85 157.84 535.52 160.28 538.84 161.36C540.78 161.99 543.07 162.06 544.68 160.81C545.312 160.262 545.861 159.625 546.31 158.92C547.433 157.449 548.373 155.847 549.11 154.15C550.48 150.63 550.02 146.69 549.54 142.94C549.537 142.717 549.452 142.503 549.3 142.34C549.091 142.21 548.84 142.167 548.6 142.22C547.741 142.307 546.877 142.123 546.128 141.692C545.38 141.261 544.786 140.607 544.43 139.82C544.223 139.106 544.145 138.361 544.2 137.62L544.27 133.34C544.303 132.881 544.249 132.419 544.11 131.98C543.717 131.267 543.082 130.717 542.32 130.43C539.983 129.26 537.547 128.3 535.04 127.56C533.94 127.24 533.1 126.7 532.61 127.88C532.12 129.06 532.12 130.53 531.55 131.77Z" fill="black"/>
<path d="M543.13 135.24C550.343 135.24 556.19 129.393 556.19 122.18C556.19 114.967 550.343 109.12 543.13 109.12C535.917 109.12 530.07 114.967 530.07 122.18C530.07 129.393 535.917 135.24 543.13 135.24Z" fill="#FBBEBE"/>
<path d="M525.78 164.73C526.95 164.96 528.16 165.16 529.36 165.3C531.281 165.53 533.215 165.643 535.15 165.64H535.74C538.423 165.623 541.1 165.373 543.74 164.89C543.902 164.874 544.062 164.847 544.22 164.81C544.71 164.73 545.22 164.63 545.69 164.51C546.01 164.45 546.3 164.38 546.62 164.3C547.62 164.08 548.62 163.82 549.54 163.51C550.13 163.32 550.71 163.14 551.29 162.94C552.46 162.53 553.63 162.09 554.75 161.59C554.462 160.701 554.225 159.796 554.04 158.88C553.718 156.924 553.59 154.941 553.66 152.96C553.66 151.37 553.73 149.79 553.66 148.21C553.685 146.928 553.499 145.651 553.11 144.43C552.912 143.82 552.594 143.255 552.175 142.769C551.756 142.284 551.244 141.886 550.67 141.6C549.18 140.94 546.94 140.6 545.47 141.34C545.302 141.43 545.141 141.534 544.99 141.65C544.67 141.918 544.422 142.262 544.27 142.65C543.79 143.85 543.27 145.06 542.81 146.26C542.514 147.096 542.121 147.895 541.64 148.64C540.914 149.62 539.902 150.352 538.743 150.733C537.585 151.114 536.336 151.127 535.17 150.77C535.023 150.722 534.88 150.665 534.74 150.6C532.74 149.79 530.91 148.04 528.82 148.51C528.242 148.664 527.707 148.947 527.254 149.339C526.802 149.73 526.445 150.22 526.21 150.77C526.181 150.828 526.158 150.888 526.14 150.95C525.72 151.996 525.476 153.104 525.42 154.23C525.118 157.732 525.239 161.257 525.78 164.73Z" fill="#F2F2F2"/>
<path d="M502.24 153.05C502.735 153.525 503.256 153.972 503.8 154.39C505.513 155.821 507.332 157.122 509.24 158.28L509.54 158.48C511.36 159.57 513.244 160.552 515.18 161.42L516.85 162.11C517.4 162.34 517.92 162.56 518.49 162.74C518.77 162.85 519.06 162.95 519.36 163.05H519.5C520.107 163.27 520.727 163.47 521.36 163.65L521.82 163.76C522.38 163.93 522.95 164.08 523.51 164.19C524.27 164.39 525.02 164.56 525.8 164.7C526.97 164.93 528.18 165.13 529.38 165.27C531.301 165.5 533.235 165.613 535.17 165.61H535.76C538.443 165.593 541.12 165.343 543.76 164.86C543.922 164.844 544.082 164.817 544.24 164.78C544.73 164.7 545.24 164.6 545.71 164.48C546.03 164.42 546.32 164.35 546.64 164.27C547.64 164.05 548.64 163.79 549.56 163.48C550.15 163.29 550.73 163.11 551.31 162.91C552.48 162.5 553.65 162.06 554.77 161.56C554.945 161.502 555.115 161.432 555.28 161.35L555.5 161.25C556.98 160.583 558.42 159.84 559.82 159.02C560.802 156.402 561.637 153.731 562.32 151.02C562.316 150.967 562.316 150.913 562.32 150.86C560.76 148.09 559.38 145.21 557.83 142.44C557.389 141.397 556.681 140.489 555.776 139.808C554.872 139.126 553.804 138.696 552.68 138.56C551.597 138.203 550.47 137.994 549.33 137.94C548.682 137.88 548.041 137.769 547.41 137.61C546.11 137.32 544.67 137.04 544.19 137.61C544.169 137.625 544.152 137.645 544.14 137.667C544.128 137.69 544.121 137.714 544.12 137.74C543.94 138.412 544.022 139.127 544.35 139.74C544.57 140.37 544.86 141.03 545.01 141.57C545.099 141.828 545.15 142.097 545.16 142.37C545.195 143.541 545.155 144.714 545.04 145.88C544.76 147.58 543.82 149.08 543.38 150.73C543.18 151.51 543.08 152.32 542.95 153.11C542.672 154.894 542.206 156.644 541.56 158.33C541.444 158.688 541.272 159.026 541.05 159.33C540.23 160.33 538.87 159.95 537.58 159.76C536.64 158.96 536.69 157.54 536.58 156.34C536.304 154.324 535.689 152.37 534.76 150.56L534.42 149.84C533.42 147.77 532.42 145.71 531.48 143.63C530.27 141.05 529.02 138.1 530.02 135.43C530.31 134.63 530.78 133.92 531.1 133.15C531.152 133.037 531.196 132.92 531.23 132.8C531.322 132.505 531.372 132.199 531.38 131.89C531.415 131.614 531.393 131.333 531.314 131.066C531.234 130.8 531.1 130.552 530.92 130.34C530.867 130.258 530.799 130.187 530.72 130.13C530.687 130.095 530.646 130.067 530.6 130.05C530.271 129.861 529.901 129.753 529.522 129.735C529.143 129.718 528.765 129.792 528.42 129.95C528.025 130.093 527.641 130.264 527.27 130.46C525.307 131.566 523.413 132.792 521.6 134.13C521.068 134.446 520.654 134.927 520.42 135.5C520.378 135.88 520.314 136.257 520.23 136.63C519.95 137.34 519.1 137.55 518.37 137.71C515.351 138.407 512.506 139.713 510.01 141.548C507.513 143.382 505.417 145.707 503.85 148.38C503.32 149.239 502.903 150.164 502.61 151.13C502.432 151.758 502.308 152.401 502.24 153.05Z" fill="#D6D6D6"/>
<path d="M548.88 114.81C547.11 116.62 544.28 116.69 541.75 116.65L541.83 115.65L538.28 116.92C539.203 116.236 539.992 115.389 540.61 114.42C540.363 114.236 540.068 114.128 539.761 114.109C539.454 114.089 539.148 114.159 538.88 114.31C538.348 114.619 537.903 115.06 537.59 115.59C536.582 117.1 535.94 118.825 535.716 120.627C535.492 122.429 535.692 124.259 536.3 125.97C535.939 126.148 535.537 126.227 535.135 126.201C534.733 126.175 534.345 126.043 534.01 125.82C533.343 125.363 532.831 124.714 532.54 123.96C532.33 123.48 532.11 122.96 531.61 122.77C531.394 122.717 531.167 122.738 530.964 122.828C530.762 122.919 530.595 123.074 530.49 123.27C530.28 123.658 530.196 124.102 530.25 124.54C530.32 125.54 531.07 126.54 531.25 127.54C531.43 128.54 532.91 129.34 532.13 130.01C531.216 130.354 530.261 130.579 529.29 130.68C529.098 130.622 528.922 130.518 528.779 130.377C528.636 130.236 528.53 130.062 528.47 129.87C527.68 128.13 527.96 126.1 527.47 124.25C527.016 122.782 526.319 121.399 525.41 120.16C525.191 119.781 524.929 119.429 524.63 119.11C524.315 118.88 524.056 118.583 523.87 118.24C523.74 117.88 523.99 117.35 524.37 117.42C523.75 116.819 523.081 116.27 522.37 115.78C523.07 114.9 523.75 114 524.37 113.1C524.6 112.78 524.84 112.39 524.67 112.04C524.574 111.877 524.436 111.742 524.27 111.65L522.5 110.45C522.5 109.61 524.17 109.92 524.43 109.13C524.495 108.922 524.495 108.698 524.43 108.49L523.81 106.23L526.17 107.3C526.443 107.457 526.756 107.53 527.07 107.51C527.69 107.42 527.99 106.69 528.07 106.06C528.006 105.43 528.088 104.793 528.31 104.2C529.38 104.2 530.45 104.2 531.51 104.2C531.58 103.665 531.44 103.124 531.12 102.69L539 102.25C540.339 102.097 541.695 102.192 543 102.53C543.416 102.726 543.87 102.829 544.33 102.83C544.78 102.83 545.24 102.36 545.11 101.92C546.292 102.587 547.373 103.419 548.32 104.39C548.572 104.696 548.881 104.951 549.23 105.14C549.407 105.231 549.607 105.268 549.805 105.245C550.003 105.221 550.189 105.14 550.34 105.01C550.56 104.78 550.66 104.37 550.98 104.35C551.3 104.33 551.34 104.51 551.46 104.66C551.911 105.239 552.278 105.879 552.55 106.56C553.116 106.483 553.671 106.335 554.2 106.12C553.953 106.384 553.792 106.716 553.738 107.073C553.685 107.43 553.741 107.796 553.9 108.12C554.16 108.79 554.64 109.36 554.96 110C555.275 110.692 555.487 111.426 555.59 112.18C555.75 113.12 555.75 114.31 554.92 114.77C554.526 114.906 554.102 114.929 553.696 114.837C553.29 114.745 552.917 114.542 552.62 114.25C550.71 112.89 550.36 113.29 548.88 114.81Z" fill="#192534"/>
<path d="M503.8 154.39C505.513 155.821 507.332 157.122 509.24 158.28L509.54 158.48C511.36 159.57 513.244 160.552 515.18 161.42L516.85 162.11C517.4 162.34 517.92 162.56 518.49 162.74C518.77 162.85 519.06 162.95 519.36 163.05C519.01 162.05 518.78 161.05 518.47 160.05C517.645 157.379 516.171 154.953 514.18 152.99C512.46 151.27 509.72 148.76 507.18 150.28C506.406 150.802 505.729 151.455 505.18 152.21C504.693 152.766 504.276 153.381 503.94 154.04C503.89 154.13 503.85 154.25 503.8 154.39Z" fill="#D6D6D6"/>
<path d="M551.35 162.93C552.52 162.52 553.69 162.08 554.81 161.58C554.985 161.522 555.155 161.452 555.32 161.37L555.54 161.27C557.02 160.603 558.46 159.86 559.86 159.04C561.05 158.36 562.21 157.62 563.33 156.84H563.4C563.31 155.725 563.31 154.605 563.4 153.49C563.458 153.116 563.434 152.734 563.33 152.37C563.191 152.082 563.001 151.821 562.77 151.6C562.623 151.453 562.486 151.296 562.36 151.13C561.23 149.86 560.31 148.49 558.36 148.69C556.41 148.89 554.73 150.57 553.91 152.44C553.82 152.62 553.747 152.807 553.69 153C553.132 154.737 552.698 156.512 552.39 158.31C552.13 159.42 551.8 160.49 551.56 161.6C551.5 162.01 551.41 162.47 551.35 162.93Z" fill="#D6D6D6"/>
<path d="M325.93 457.56L325.49 457.8L325.93 457.56Z" fill="url(#paint0_linear)"/>
<path d="M264.5 403.55C260.64 414.67 265.15 432.72 267.24 440.77C268.625 446.594 269.542 452.52 269.98 458.49C274.684 459.29 279.497 459.182 284.16 458.17L280.78 441.58C283.19 431.75 280.78 405.49 280.78 405.49C280.78 405.49 286.25 395.34 286.78 379.87C287.25 364.65 291 359.73 291.12 359.57C298.85 363.57 308.68 406.78 308.68 406.78C307.87 417.25 308.84 433.36 312.06 442.06C314.013 447.587 314.836 453.449 314.48 459.3C315.106 459.749 315.821 460.057 316.578 460.202C317.334 460.347 318.113 460.326 318.86 460.14C323.46 459.4 328.98 455.43 328.98 455.43C328.98 455.43 327.21 408.43 325.92 406.62C324.63 404.81 325.92 394.7 325.92 394.7L323.82 378.26C323.82 378.26 324.14 350.39 321.08 345.56C318.44 341.38 317.83 334.05 317.71 332.12C317.71 331.82 317.71 331.65 317.71 331.65L313.05 326.06C313.05 326.06 267.94 322.68 264.55 326.06C263.72 326.89 263.21 328.78 262.9 331.16C261.97 338.47 263.04 350.39 263.04 350.39C263.04 350.39 264.39 359.25 266.33 368.27C267.49 373.689 267.49 379.291 266.33 384.71C266.946 391.049 266.325 397.448 264.5 403.55Z" fill="#29384A"/>
<path d="M267.28 474.2C269.28 476.86 281.14 475.73 283.15 474.9C284.38 474.4 284.29 472.08 283.96 469.7C283.75 468.18 283.44 466.63 283.31 465.5C282.99 462.6 284.31 456.72 284.31 456.72C284.31 456.72 281.65 459.54 281.01 456.72C280.86 456.182 280.567 455.696 280.162 455.312C279.757 454.928 279.255 454.661 278.71 454.54C277.331 454.122 275.847 454.214 274.53 454.8C272.43 455.7 268.94 457.64 269.53 460.26C270.41 463.96 267.27 469.26 267.27 469.26C266.702 469.969 266.392 470.851 266.392 471.76C266.392 472.669 266.702 473.551 267.27 474.26L267.28 474.2Z" fill="#CBCEDA"/>
<path opacity="0.1" d="M267.28 474.2C269.28 476.86 281.14 475.73 283.15 474.9C284.38 474.4 284.29 472.08 283.96 469.7C282.69 470.29 280.52 470.79 276.96 470.45C276.119 470.373 275.274 470.347 274.43 470.37C271.866 470.492 269.297 470.441 266.74 470.22C266.454 470.869 266.353 471.584 266.448 472.286C266.544 472.989 266.831 473.651 267.28 474.2Z" fill="black"/>
<path opacity="0.1" d="M308.61 406.78C307.8 417.25 308.77 433.36 311.99 442.06C313.943 447.587 314.766 453.449 314.41 459.3C315.035 459.749 315.751 460.057 316.508 460.202C317.264 460.347 318.043 460.326 318.79 460.14C317.79 453.35 313.68 424.07 311.02 400.94C309.095 384.92 303.2 369.634 293.87 356.47L291.05 359.57C298.78 363.6 308.61 406.78 308.61 406.78Z" fill="black"/>
<path d="M272.12 237.45L274.12 247.12L283.76 263.31L295.64 258.24C295.64 258.24 311.79 241.32 301.64 238.9C300.423 238.645 299.274 238.133 298.27 237.4C297.4 236.707 296.708 235.817 296.25 234.803C295.793 233.789 295.584 232.681 295.64 231.57C295.719 229.173 296.28 226.816 297.29 224.64L276.5 218.13C277.35 220.862 277.851 223.692 277.99 226.55C278.15 232.21 276.04 235 274.32 236.33C273.668 236.845 272.92 237.226 272.12 237.45Z" fill="#FBBEBE"/>
<path opacity="0.1" d="M276.5 218.13C277.35 220.862 277.851 223.692 277.99 226.55C278.365 227.003 278.769 227.431 279.2 227.83C282.24 230.746 286.288 232.376 290.5 232.38C292.226 232.384 293.941 232.11 295.58 231.57C295.658 229.173 296.22 226.816 297.23 224.64L276.5 218.13Z" fill="black"/>
<path d="M274.08 215.46C274.078 218.713 275.041 221.893 276.847 224.598C278.653 227.304 281.221 229.412 284.226 230.658C287.231 231.903 290.538 232.229 293.729 231.594C296.919 230.959 299.849 229.392 302.148 227.091C304.448 224.79 306.013 221.859 306.646 218.669C307.279 215.478 306.951 212.171 305.704 209.167C304.457 206.163 302.346 203.596 299.64 201.792C296.934 199.987 293.753 199.026 290.5 199.03C288.34 199.021 286.2 199.439 284.203 200.262C282.206 201.084 280.392 202.295 278.865 203.822C277.338 205.35 276.129 207.165 275.308 209.162C274.487 211.16 274.069 213.3 274.08 215.46Z" fill="#FBBEBE"/>
<path opacity="0.1" d="M272.12 237.45L274.12 247.12L283.76 263.31L295.64 258.24C295.64 258.24 311.79 241.32 301.64 238.9C300.423 238.645 299.274 238.133 298.27 237.4C300.1 242.4 292.54 252.92 292.54 252.92C291.66 254.21 289.64 253.4 289.64 253.4C284.76 252.66 275.79 238.65 274.33 236.32C273.676 236.84 272.925 237.224 272.12 237.45Z" fill="black"/>
<path opacity="0.1" d="M262.81 331.13C265.67 331.78 281.5 335.29 287.5 334.41C294.11 333.41 306.95 332.8 306.95 332.8C306.95 332.8 315.13 333.24 317.64 332.09C317.64 331.79 317.64 331.62 317.64 331.62L312.98 326.03C312.98 326.03 267.87 322.65 264.48 326.03C263.63 326.89 263.12 328.78 262.81 331.13Z" fill="black"/>
<path d="M292.5 253.4C292.5 253.4 301 241.63 297.79 237.04L312.15 242.93C312.15 242.93 320.79 241.88 323.91 254.78C324.409 256.925 324.591 259.132 324.45 261.33C324.365 264.744 325.178 268.12 326.81 271.12C330.36 278.21 329.55 294.48 322.3 296.12C315.05 297.76 312.47 296.92 312.47 296.92C312.47 296.92 313.47 326.4 317.63 329.79C321.79 333.18 306.95 332.37 306.95 332.37C306.95 332.37 294.11 333.01 287.5 333.98C280.89 334.95 262.37 330.59 262.37 330.59C262.37 330.59 265.11 318.19 266.07 310.29C267.03 302.39 269.3 285.59 269.3 285.59L252.86 263.33C252.86 263.33 249.96 249.88 260.11 243.92C270.26 237.96 274.11 236.49 274.11 236.49C274.11 236.49 284.31 253.1 289.63 253.91C289.6 253.89 291.62 254.7 292.5 253.4Z" fill="#009600"/>
<path opacity="0.1" d="M311.35 258.07C311.35 258.07 311.51 263.39 310.54 265.49C309.57 267.59 306.03 279.18 306.03 279.18H314.08C314.08 279.18 309.73 274.51 310.08 272.25C310.43 269.99 311.35 258.07 311.35 258.07Z" fill="black"/>
<path d="M287.5 298.19C287.5 298.19 305.29 293.84 306.95 290.13C308.61 286.42 313.18 278.13 313.18 278.13L311.3 275.6L302.65 282.39C302.65 282.39 292.34 290.61 287.5 291.39C282.66 292.17 287.5 298.19 287.5 298.19Z" fill="#FBBEBE"/>
<path opacity="0.05" d="M287.5 298.19C287.5 298.19 305.29 293.84 306.95 290.13C308.61 286.42 313.18 278.13 313.18 278.13L311.3 275.6L302.65 282.39C302.65 282.39 292.34 290.61 287.5 291.39C282.66 292.17 287.5 298.19 287.5 298.19Z" fill="black"/>
<path d="M272.12 277.25V286.9H273.67C281.333 286.9 288.87 288.851 295.57 292.57L298.48 294.18L299.26 294.62L304.26 283.37L299.59 279.18H299.35C298.2 279.29 293.26 279.71 291.17 279C289.08 278.29 286.71 276.18 280.84 277.68C277.96 278.42 275.49 281.68 272.69 280.68L272.12 277.25Z" fill="#FBBEBE"/>
<path opacity="0.1" d="M256.57 259.69L253.35 263.31V272.13C253.35 272.13 256.09 299.84 264.79 302.9C273.49 305.96 289.02 301.13 289.02 301.13C289.02 301.13 293.02 290.5 291.15 289.85C289.28 289.2 274.57 285.32 274.57 285.32C274.57 285.32 274.77 269.07 271.57 264.24C271.57 264.24 273.67 249.09 266.42 248.77C259.17 248.45 256.57 259.69 256.57 259.69Z" fill="black"/>
<path d="M256.09 259.69L252.86 263.31V272.13C252.86 272.13 255.6 299.84 264.3 302.9C273 305.96 288.5 301.13 288.5 301.13C288.5 301.13 292.5 290.5 290.64 289.85C288.78 289.2 274.05 285.32 274.05 285.32C274.05 285.32 274.26 269.07 271.05 264.24C271.05 264.24 273.14 249.09 265.89 248.77C258.64 248.45 256.09 259.69 256.09 259.69Z" fill="#006594"/>
<path opacity="0.1" d="M278.59 222.44C278.449 221.382 278.576 220.306 278.96 219.31C279.164 218.82 279.522 218.41 279.981 218.142C280.439 217.875 280.973 217.765 281.5 217.83C282.88 218.15 283.5 219.95 284.83 220.38C285.416 220.497 286.024 220.412 286.555 220.137C287.086 219.863 287.507 219.416 287.75 218.87C288.212 217.761 288.404 216.558 288.31 215.36C288.31 214.02 288.31 212.67 288.31 211.36C288.31 210.05 288.36 208.31 289.26 207.16C290.39 205.73 293.03 205.1 294.79 205.16C295.963 205.169 297.089 205.623 297.94 206.43C298.371 206.861 298.892 207.191 299.467 207.395C300.041 207.599 300.654 207.672 301.26 207.61C301.796 207.529 302.298 207.298 302.708 206.944C303.118 206.59 303.421 206.128 303.58 205.61C303.575 205.594 303.575 205.576 303.58 205.56C302.209 203.754 300.479 202.251 298.499 201.146C296.52 200.041 294.332 199.358 292.075 199.139C289.819 198.921 287.541 199.172 285.386 199.877C283.231 200.581 281.245 201.725 279.553 203.234C277.861 204.744 276.5 206.587 275.556 208.649C274.611 210.71 274.104 212.945 274.065 215.212C274.026 217.479 274.457 219.729 275.33 221.822C276.204 223.914 277.501 225.803 279.14 227.37C278.86 225.739 278.677 224.093 278.59 222.44Z" fill="black"/>
<path d="M301.28 207.13C301.815 207.046 302.316 206.815 302.726 206.461C303.136 206.108 303.439 205.647 303.6 205.13C303.73 204.61 303.7 204.05 303.85 203.54C304.23 202.27 305.58 201.61 306.48 200.65C308.3 198.72 308.18 195.55 306.89 193.24C305.89 191.37 303.89 189.8 301.74 190.16C300.44 190.39 299.31 191.32 297.99 191.4C296.717 191.311 295.484 190.913 294.4 190.24C291.605 188.974 288.464 188.696 285.49 189.45C284.576 189.632 283.728 190.061 283.04 190.69C282.573 191.275 282.139 191.886 281.74 192.52C280.23 194.44 277.54 194.81 275.15 195.24C272.76 195.67 270.05 196.62 269.26 198.93C268.74 200.45 269.26 202.11 269.54 203.7C269.647 204.029 269.626 204.386 269.48 204.7C269.11 205.32 268.17 205.06 267.48 205.21C266.13 205.49 265.78 207.21 265.73 208.63C265.67 210.22 265.63 211.81 265.6 213.4C265.515 214.139 265.608 214.887 265.87 215.583C266.133 216.279 266.558 216.902 267.11 217.4L272.43 223.79C274.79 226.63 277.29 229.93 276.82 233.59C277.93 234.09 279.26 233.12 279.63 231.95C279.88 230.744 279.818 229.495 279.45 228.32C279.02 226.246 278.739 224.144 278.61 222.03C278.469 220.972 278.596 219.896 278.98 218.9C279.183 218.407 279.543 217.994 280.004 217.727C280.465 217.459 281.001 217.351 281.53 217.42C282.91 217.74 283.53 219.53 284.86 219.97C285.446 220.086 286.053 219.999 286.584 219.725C287.114 219.451 287.536 219.005 287.78 218.46C288.242 217.351 288.434 216.148 288.34 214.95V210.95C288.34 209.49 288.39 207.95 289.29 206.75C290.42 205.32 293.06 204.7 294.82 204.75C295.991 204.769 297.113 205.221 297.97 206.02C298.405 206.439 298.927 206.756 299.5 206.948C300.072 207.14 300.681 207.202 301.28 207.13Z" fill="#3F3D56"/>
<path opacity="0.1" d="M297.57 257.67L292.57 278.4C292.57 278.4 288.55 278.37 297.57 257.67Z" fill="black"/>
<path opacity="0.1" d="M280.33 254.21C280.33 254.21 286.94 265.03 284.33 276.21L283.1 276.3C283.1 276.3 285.33 271.13 280.33 254.21Z" fill="black"/>
<path opacity="0.1" d="M276.14 315.43C276.14 315.43 268.03 312.75 267.44 318.97C267.44 318.97 268.97 314.7 276.14 315.43Z" fill="black"/>
<path opacity="0.1" d="M299.59 279.66C299.59 279.66 301.2 290.94 298.3 295.45C302.851 297.06 307.684 297.717 312.5 297.38L313.5 279.66H299.59Z" fill="black"/>
<path opacity="0.1" d="M298.5 294.18L299.28 294.62L304.28 283.37L299.61 279.18H299.36C299.42 279.72 300.72 289.41 298.5 294.18Z" fill="black"/>
<path d="M299.59 279.18C299.59 279.18 301.2 290.46 298.3 294.97C302.852 296.574 307.685 297.231 312.5 296.9L318.14 279.18H299.59Z" fill="#076793"/>
<path d="M313.5 467.34C313.593 468.144 313.951 468.894 314.518 469.472C315.085 470.05 315.828 470.422 316.63 470.53C321 471.19 331.54 472.85 334.2 474.12C337.59 475.73 350.96 474.6 351.6 472.99C351.691 472.669 351.717 472.333 351.678 472.002C351.638 471.671 351.534 471.351 351.37 471.06C350.915 470.074 350.158 469.258 349.21 468.73C348.889 468.559 348.555 468.415 348.21 468.3C345.69 467.46 340.94 465.68 339.65 463.81C339.65 463.81 333.72 458.62 332.03 455.81C331.712 455.258 331.263 454.793 330.722 454.456C330.181 454.12 329.566 453.922 328.93 453.88C327.52 453.82 325.93 454.53 325.31 457.62C325.31 457.62 317.58 462.03 315.49 458.16C315.49 458.16 315.16 464.1 313.88 465.73C313.546 466.195 313.409 466.774 313.5 467.34Z" fill="#CBCEDA"/>
<g opacity="0.1">
<path opacity="0.1" d="M269.56 203.89C269.56 203.89 269.56 203.84 269.56 203.82C269.251 202.624 269.086 201.395 269.07 200.16C269.148 201.158 269.291 202.151 269.5 203.13C269.574 203.376 269.594 203.635 269.56 203.89Z" fill="black"/>
<path opacity="0.1" d="M278.96 218.97C278.707 219.555 278.571 220.183 278.56 220.82C278.489 219.944 278.626 219.063 278.96 218.25C279.164 217.758 279.524 217.346 279.985 217.079C280.446 216.812 280.982 216.703 281.51 216.77C282.89 217.09 283.51 218.89 284.84 219.32C285.426 219.437 286.034 219.352 286.565 219.077C287.096 218.803 287.517 218.356 287.76 217.81C288.223 216.701 288.415 215.498 288.32 214.3C288.32 212.96 288.32 211.61 288.32 210.3C288.32 208.99 288.37 207.25 289.27 206.1C290.4 204.67 293.04 204.04 294.8 204.1C295.973 204.109 297.099 204.563 297.95 205.37C298.381 205.801 298.902 206.131 299.477 206.335C300.051 206.539 300.664 206.612 301.27 206.55C301.806 206.47 302.309 206.239 302.719 205.885C303.13 205.531 303.432 205.068 303.59 204.55C303.72 204.03 303.69 203.47 303.84 202.96C304.22 201.69 305.57 201.03 306.47 200.07C307.321 199.139 307.804 197.931 307.83 196.67C307.898 197.415 307.813 198.166 307.579 198.876C307.345 199.587 306.967 200.241 306.47 200.8C305.57 201.8 304.22 202.42 303.84 203.68C303.69 204.2 303.72 204.75 303.59 205.27C303.431 205.788 303.128 206.25 302.718 206.604C302.308 206.958 301.806 207.189 301.27 207.27C300.663 207.333 300.049 207.259 299.474 207.053C298.9 206.847 298.379 206.515 297.95 206.08C297.096 205.277 295.972 204.824 294.8 204.81C293.04 204.75 290.4 205.38 289.27 206.81C288.37 207.96 288.33 209.55 288.32 211.01C288.31 212.47 288.32 213.7 288.32 215.01C288.414 216.205 288.222 217.404 287.76 218.51C287.52 219.058 287.099 219.508 286.568 219.782C286.036 220.057 285.426 220.141 284.84 220.02C283.49 219.59 282.89 217.8 281.51 217.48C280.98 217.41 280.442 217.519 279.98 217.789C279.518 218.058 279.16 218.474 278.96 218.97Z" fill="black"/>
<path opacity="0.1" d="M265.72 214.54C266.017 215.368 266.483 216.124 267.09 216.76L272.41 223.15C274.65 225.84 277.02 228.95 276.84 232.39C276.68 229.24 274.49 226.39 272.41 223.87L267.09 217.48C266.538 216.982 266.113 216.359 265.85 215.663C265.588 214.967 265.495 214.219 265.58 213.48C265.58 213.838 265.627 214.194 265.72 214.54Z" fill="black"/>
<path opacity="0.1" d="M279.61 231.31C279.698 231.027 279.752 230.735 279.77 230.44C279.813 230.975 279.758 231.514 279.61 232.03C279.24 233.2 277.92 234.17 276.8 233.66C276.832 233.428 276.848 233.194 276.85 232.96C277.435 233.103 278.052 233.01 278.568 232.701C279.085 232.392 279.459 231.892 279.61 231.31Z" fill="black"/>
</g>
<path opacity="0.1" d="M333.14 457.28C333.14 457.28 331.46 460.28 325.36 457.63L333.14 457.28Z" fill="black"/>
<path opacity="0.1" d="M281.55 457.99C281.55 457.99 276.29 464.19 269.66 459.99L281.55 457.99Z" fill="black"/>
<path opacity="0.1" d="M266.24 384.71C266.24 384.71 269.95 387.03 270.08 388.36C270.21 389.69 268.16 387.36 268.16 387.36L266.24 384.71Z" fill="black"/>
<path opacity="0.1" d="M264.77 402.52C266.062 403.599 267.669 404.227 269.35 404.31C272.13 404.43 271.9 408.05 270.08 406.97C268.2 405.624 266.425 404.136 264.77 402.52Z" fill="black"/>
<path opacity="0.1" d="M264.06 404.84C264.06 404.84 265.85 413.61 267.3 411.92L264.06 404.84Z" fill="black"/>
<path d="M83.29 459.76C86.29 454.25 82.88 447.5 79 442.59C75.12 437.68 70.39 432.59 70.49 426.3C70.64 417.3 80.19 411.98 87.82 407.21C93.4856 403.673 98.7091 399.474 103.38 394.7C105.334 392.862 106.952 390.696 108.16 388.3C109.74 384.78 109.69 380.78 109.59 376.93C109.257 364.083 108.623 351.253 107.69 338.44" stroke="#3F3D56" stroke-width="4" stroke-miterlimit="10"/>
<path d="M122.2 337.74C122.094 335.389 121.397 333.103 120.173 331.093C118.95 329.083 117.239 327.414 115.2 326.24L112.06 332.45L112.15 324.93C109.304 324.098 106.267 324.192 103.477 325.198C100.687 326.203 98.2886 328.069 96.6273 330.525C94.966 332.982 94.1276 335.902 94.233 338.866C94.3383 341.829 95.382 344.683 97.2136 347.015C99.0451 349.347 101.57 351.038 104.424 351.843C107.278 352.648 110.314 352.525 113.094 351.494C115.875 350.462 118.256 348.574 119.894 346.103C121.532 343.631 122.343 340.702 122.21 337.74H122.2Z" fill="#57B894"/>
<path d="M97.17 432.73C95.6978 435.583 93.2897 437.844 90.3491 439.133C87.4085 440.422 84.1142 440.661 81.0182 439.81C77.9223 438.959 75.2129 437.07 73.3441 434.459C71.4754 431.849 70.5608 428.675 70.7536 425.47C70.9465 422.265 72.2351 419.224 74.4035 416.856C76.5719 414.488 79.4882 412.937 82.6639 412.464C85.8395 411.99 89.0813 412.623 91.8461 414.255C94.6109 415.888 96.7306 418.421 97.85 421.43L89.08 428.56L98.73 426.33C98.7264 428.557 98.1916 430.751 97.17 432.73Z" fill="#57B894"/>
<path d="M90.24 405.48C86.7529 405.726 83.2997 404.659 80.5597 402.488C77.8196 400.317 75.9908 397.2 75.433 393.749C74.8751 390.298 75.6286 386.763 77.5452 383.839C79.4618 380.916 82.4029 378.815 85.79 377.95L85.71 383.73L88.89 377.44C90.7314 377.35 92.5725 377.624 94.3075 378.248C96.0425 378.871 97.6374 379.831 99.0004 381.072C100.364 382.314 101.468 383.812 102.25 385.481C103.033 387.151 103.478 388.958 103.56 390.8C103.642 392.419 103.439 394.041 102.96 395.59C102.117 398.348 100.442 400.778 98.1654 402.548C95.8886 404.318 93.1207 405.342 90.24 405.48Z" fill="#57B894"/>
<path d="M124.31 382.81C122.155 382.891 120.011 382.473 118.045 381.588C116.078 380.704 114.343 379.377 112.973 377.712C111.604 376.047 110.637 374.088 110.149 371.987C109.662 369.887 109.666 367.703 110.161 365.604C110.656 363.506 111.629 361.55 113.005 359.889C114.38 358.229 116.12 356.908 118.09 356.031C120.06 355.154 122.205 354.743 124.36 354.832C126.514 354.92 128.619 355.504 130.51 356.54L128.03 363.34L133.14 358.44C135.873 360.943 137.502 364.428 137.67 368.13C137.737 369.43 137.619 370.733 137.32 372C136.62 374.97 134.971 377.632 132.624 379.582C130.277 381.533 127.358 382.666 124.31 382.81Z" fill="#57B894"/>
<path opacity="0.1" d="M120.31 341.48C117.07 341.83 113.92 342.84 110.67 343.04C107.42 343.24 103.85 342.46 101.79 339.94C100.69 338.58 100.13 336.85 99.2 335.37C98.3118 333.986 97.0959 332.842 95.66 332.04C94.8132 333.81 94.348 335.738 94.2945 337.7C94.2409 339.661 94.6003 341.612 95.3493 343.426C96.0983 345.239 97.2202 346.875 98.6422 348.227C100.064 349.579 101.754 350.618 103.603 351.274C105.452 351.931 107.419 352.192 109.375 352.04C111.331 351.887 113.234 351.326 114.959 350.391C116.684 349.456 118.194 348.169 119.389 346.613C120.585 345.057 121.441 343.268 121.9 341.36C121.373 341.38 120.843 341.42 120.31 341.48Z" fill="black"/>
<path opacity="0.1" d="M124.31 382.81C121.89 382.933 119.479 382.425 117.313 381.337C115.148 380.248 113.302 378.616 111.956 376.601C110.611 374.585 109.812 372.254 109.637 369.837C109.462 367.42 109.918 364.998 110.96 362.81C112.074 363.559 113.031 364.516 113.78 365.63C114.78 367.14 115.39 368.89 116.56 370.27C118.75 372.84 122.48 373.68 125.87 373.53C129.26 373.38 132.53 372.41 135.87 372.1C136.34 372.1 136.81 372.03 137.29 372.02C136.587 374.982 134.942 377.635 132.601 379.581C130.26 381.527 127.35 382.66 124.31 382.81Z" fill="black"/>
<path opacity="0.1" d="M90.24 405.48C87.8412 405.603 85.451 405.107 83.2993 404.04C81.1477 402.972 79.3069 401.369 77.9539 399.384C76.601 397.399 75.7815 395.1 75.5741 392.707C75.3668 390.314 75.7786 387.908 76.77 385.72C77.936 386.478 78.9529 387.444 79.77 388.57C80.86 390.11 81.54 391.88 82.82 393.3C85.19 395.94 89.17 396.87 92.75 396.78C96.33 396.69 99.58 395.86 103.03 395.59C102.183 398.359 100.498 400.797 98.2069 402.568C95.9163 404.339 93.1329 405.357 90.24 405.48Z" fill="black"/>
<path opacity="0.1" d="M97.17 432.73C95.6516 436.123 92.8474 438.775 89.3743 440.101C85.9011 441.427 82.0435 441.318 78.65 439.8C75.2566 438.282 72.6053 435.477 71.2794 432.004C69.9535 428.531 70.0616 424.673 71.58 421.28C72.7408 422.034 73.7794 422.962 74.66 424.03C76 425.65 76.88 427.5 78.42 429.03C81.29 431.85 85.92 433.03 90.05 433.12C92.429 433.131 94.8065 433.001 97.17 432.73Z" fill="black"/>
<path d="M62.12 453.42C62.12 453.42 73.2 453.13 76.5 450.7C79.8 448.27 93.5 445.49 94.36 449.3C95.22 453.11 111.01 468.3 98.5 468.36C85.99 468.42 69.45 466.36 66.11 464.36C62.77 462.36 62.12 453.42 62.12 453.42Z" fill="#656380"/>
<path opacity="0.2" d="M98.77 467.03C86.26 467.14 69.71 465.09 66.38 463.03C63.84 461.48 62.83 455.93 62.49 453.38H62.12C62.12 453.38 62.82 462.31 66.12 464.38C69.42 466.45 86.01 468.46 98.51 468.38C102.12 468.38 103.37 467.07 103.3 465.17C102.83 466.3 101.5 467.01 98.77 467.03Z" fill="black"/>
</g>
<defs>
<linearGradient id="paint0_linear" x1="325.71" y1="457.8" x2="325.71" y2="457.56" gradientUnits="userSpaceOnUse">
<stop stop-color="#808080" stop-opacity="0.25"/>
<stop offset="0.54" stop-color="#808080" stop-opacity="0.12"/>
<stop offset="1" stop-color="#808080" stop-opacity="0.1"/>
</linearGradient>
<clipPath id="clip0">
<rect width="1177" height="495" fill="white"/>
</clipPath>
</defs>
</svg>
