<svg width="1121" height="814" viewBox="0 0 1121 814" fill="none" xmlns="http://www.w3.org/2000/svg">
<g clip-path="url(#clip0)">
<path d="M1032.19 197.872C905.025 24.7947 636.398 -45.4129 372.212 30.2023C232.545 70.1777 97.88 150.275 31.1433 305.368C-88.1557 582.614 162.327 671.16 326.116 699.38C405.316 713.026 479.908 735.948 548.071 767.156C670.703 823.304 887.769 873.056 1051.46 639.177C1170.09 469.662 1116.89 313.158 1032.19 197.872Z" fill="white"/>
<path opacity="0.2" d="M782.032 569.46H733.336V541.289H782.032V569.46ZM735.394 567.347H779.975V543.401H735.394V567.347Z" fill="black"/>
<path opacity="0.2" d="M830.728 568.051H782.032V539.88H830.728V568.051ZM784.09 565.938H828.671V541.993H784.09V565.938Z" fill="black"/>
<path opacity="0.2" d="M879.424 568.051H830.728V539.88H879.424V568.051ZM832.786 565.938H877.367V541.993H832.786V565.938Z" fill="black"/>
<path opacity="0.2" d="M879.424 539.88H830.728V511.709H879.424V539.88ZM832.786 537.767H877.367V513.822H832.786V537.767Z" fill="black"/>
<path opacity="0.2" d="M830.728 539.88H782.032V511.709H830.728V539.88ZM784.09 537.767H828.671V513.822H784.09V537.767Z" fill="black"/>
<path opacity="0.2" d="M282.041 568.051H233.345V539.88H282.041V568.051ZM235.403 565.938H279.984V541.993H235.403V565.938Z" fill="black"/>
<path opacity="0.2" d="M330.737 568.051H282.041V539.88H330.737V568.051ZM284.099 565.938H328.68V541.993H284.099V565.938Z" fill="black"/>
<path opacity="0.2" d="M379.433 568.051H330.737V539.88H379.433V568.051ZM332.795 565.938H377.376V541.993H332.795V565.938Z" fill="black"/>
<path opacity="0.2" d="M428.129 569.46H379.433V541.289H428.129V569.46ZM381.491 567.347H426.072V543.401H381.491V567.347Z" fill="black"/>
<path opacity="0.2" d="M379.433 539.88H330.737V511.709H379.433V539.88ZM332.795 537.767H377.376V513.822H332.795V537.767Z" fill="black"/>
<path opacity="0.2" d="M330.737 539.88H282.041V511.709H330.737V539.88ZM284.099 537.767H328.68V513.822H284.099V537.767Z" fill="black"/>
<path d="M831.606 480.974C831.606 480.974 822.594 449.542 833.293 426.406C837.844 416.733 839.215 405.805 837.203 395.263C836.21 390.265 834.772 385.371 832.909 380.642" stroke="black" stroke-width="2" stroke-miterlimit="10"/>
<path d="M839.576 366C839.576 369.852 832.786 381.022 832.786 381.022C832.786 381.022 825.996 369.852 825.996 366C825.996 364.15 826.712 362.376 827.986 361.067C829.26 359.759 830.988 359.024 832.789 359.024C834.591 359.024 836.319 359.759 837.593 361.067C838.867 362.376 839.583 364.15 839.583 366H839.576Z" fill="black"/>
<path d="M850.803 387.361C848.746 390.593 837.148 396.178 837.148 396.178C837.148 396.178 837.361 383.008 839.398 379.776C839.882 379.007 840.509 378.343 841.244 377.823C841.978 377.303 842.805 376.937 843.677 376.745C844.549 376.553 845.45 376.539 846.327 376.704C847.204 376.87 848.041 377.211 848.79 377.709C849.539 378.206 850.185 378.85 850.692 379.604C851.198 380.358 851.555 381.208 851.742 382.103C851.929 382.999 851.942 383.923 851.781 384.824C851.62 385.725 851.288 386.585 850.803 387.354V387.361Z" fill="black"/>
<path d="M850.31 423.829C846.963 425.561 834.192 424.364 834.192 424.364C834.192 424.364 840.845 413.095 844.199 411.37C845.807 410.537 847.673 410.394 849.384 410.973C851.095 411.552 852.513 412.806 853.324 414.458C854.135 416.11 854.274 418.026 853.71 419.783C853.146 421.54 851.925 422.995 850.316 423.829H850.31Z" fill="black"/>
<path d="M843.89 451.331C840.872 453.62 828.115 454.655 828.115 454.655C828.115 454.655 832.82 442.407 835.838 440.111C836.555 439.567 837.369 439.172 838.235 438.951C839.1 438.729 839.999 438.685 840.882 438.82C841.764 438.956 842.611 439.268 843.376 439.74C844.14 440.211 844.807 440.833 845.337 441.569C845.868 442.306 846.252 443.142 846.467 444.03C846.683 444.919 846.726 445.843 846.595 446.748C846.463 447.654 846.158 448.524 845.699 449.309C845.24 450.094 844.634 450.779 843.917 451.324L843.89 451.331Z" fill="black"/>
<path d="M822.889 396.932C825.578 399.615 838.115 402.397 838.115 402.397C838.115 402.397 835.042 389.608 832.354 386.903C831.714 386.265 830.958 385.762 830.129 385.424C829.3 385.086 828.414 384.919 827.522 384.932C826.63 384.946 825.749 385.14 824.93 385.502C824.111 385.865 823.37 386.39 822.748 387.047C822.127 387.705 821.638 388.481 821.308 389.332C820.979 390.184 820.816 391.093 820.829 392.009C820.842 392.925 821.031 393.829 821.384 394.67C821.738 395.511 822.249 396.273 822.889 396.911V396.932Z" fill="black"/>
<path d="M815.777 429.188C819.124 430.921 831.894 429.723 831.894 429.723C831.894 429.723 825.241 418.455 821.888 416.729C820.279 415.896 818.413 415.754 816.702 416.333C814.991 416.912 813.573 418.166 812.762 419.818C811.951 421.47 811.812 423.385 812.376 425.142C812.94 426.9 814.161 428.355 815.77 429.188H815.777Z" fill="black"/>
<path d="M813.054 461.522C816.071 463.811 828.828 464.846 828.828 464.846C828.828 464.846 824.151 452.627 821.126 450.31C820.409 449.765 819.595 449.37 818.73 449.149C817.864 448.927 816.965 448.883 816.083 449.018C815.201 449.154 814.353 449.466 813.589 449.938C812.824 450.409 812.158 451.031 811.627 451.767C811.097 452.504 810.713 453.34 810.497 454.229C810.281 455.117 810.238 456.041 810.37 456.946C810.501 457.852 810.806 458.722 811.265 459.507C811.724 460.292 812.33 460.977 813.047 461.522H813.054Z" fill="black"/>
<path opacity="0.25" d="M839.576 366C839.576 369.852 832.786 381.022 832.786 381.022C832.786 381.022 825.996 369.852 825.996 366C825.996 364.15 826.712 362.376 827.986 361.067C829.26 359.759 830.988 359.024 832.789 359.024C834.591 359.024 836.319 359.759 837.593 361.067C838.867 362.376 839.583 364.15 839.583 366H839.576Z" fill="black"/>
<path opacity="0.25" d="M850.803 387.361C848.746 390.593 837.148 396.178 837.148 396.178C837.148 396.178 837.361 383.008 839.398 379.776C839.882 379.007 840.509 378.343 841.244 377.823C841.978 377.303 842.805 376.937 843.677 376.745C844.549 376.553 845.45 376.539 846.327 376.704C847.204 376.87 848.041 377.211 848.79 377.709C849.539 378.206 850.185 378.85 850.692 379.604C851.198 380.358 851.555 381.208 851.742 382.103C851.929 382.999 851.942 383.923 851.781 384.824C851.62 385.725 851.288 386.585 850.803 387.354V387.361Z" fill="black"/>
<path opacity="0.25" d="M850.31 423.829C846.963 425.561 834.192 424.364 834.192 424.364C834.192 424.364 840.845 413.095 844.199 411.37C845.807 410.537 847.673 410.394 849.384 410.973C851.095 411.552 852.513 412.806 853.324 414.458C854.135 416.11 854.274 418.026 853.71 419.783C853.146 421.54 851.925 422.995 850.316 423.829H850.31Z" fill="black"/>
<path opacity="0.25" d="M843.89 451.331C840.872 453.62 828.115 454.655 828.115 454.655C828.115 454.655 832.82 442.407 835.838 440.111C836.555 439.567 837.369 439.172 838.235 438.951C839.1 438.729 839.999 438.685 840.882 438.82C841.764 438.956 842.611 439.268 843.376 439.74C844.14 440.211 844.807 440.833 845.337 441.569C845.868 442.306 846.252 443.142 846.467 444.03C846.683 444.919 846.726 445.843 846.595 446.748C846.463 447.654 846.158 448.524 845.699 449.309C845.24 450.094 844.634 450.779 843.917 451.324L843.89 451.331Z" fill="black"/>
<path opacity="0.25" d="M822.889 396.932C825.578 399.615 838.115 402.397 838.115 402.397C838.115 402.397 835.042 389.608 832.354 386.903C831.714 386.265 830.958 385.762 830.129 385.424C829.3 385.086 828.414 384.919 827.522 384.932C826.63 384.946 825.749 385.14 824.93 385.502C824.111 385.865 823.37 386.39 822.748 387.047C822.127 387.705 821.638 388.481 821.308 389.332C820.979 390.184 820.816 391.093 820.829 392.009C820.842 392.925 821.031 393.829 821.384 394.67C821.738 395.511 822.249 396.273 822.889 396.911V396.932Z" fill="black"/>
<path opacity="0.25" d="M815.777 429.188C819.124 430.921 831.894 429.723 831.894 429.723C831.894 429.723 825.241 418.455 821.888 416.729C820.279 415.896 818.413 415.754 816.702 416.333C814.991 416.912 813.573 418.166 812.762 419.818C811.951 421.47 811.812 423.385 812.376 425.142C812.94 426.9 814.161 428.355 815.77 429.188H815.777Z" fill="black"/>
<path opacity="0.25" d="M813.054 461.522C816.071 463.811 828.828 464.846 828.828 464.846C828.828 464.846 824.151 452.627 821.126 450.31C820.409 449.765 819.595 449.37 818.73 449.149C817.864 448.927 816.965 448.883 816.083 449.018C815.201 449.154 814.353 449.466 813.589 449.938C812.824 450.409 812.158 451.031 811.627 451.767C811.097 452.504 810.713 453.34 810.497 454.229C810.281 455.117 810.238 456.041 810.37 456.946C810.501 457.852 810.806 458.722 811.265 459.507C811.724 460.292 812.33 460.977 813.047 461.522H813.054Z" fill="black"/>
<path d="M336.773 481.213C336.773 481.213 327.624 449.316 338.488 425.864C343.107 416.047 344.5 404.955 342.459 394.256C341.451 389.171 339.991 384.192 338.097 379.381" stroke="black" stroke-width="2" stroke-miterlimit="10"/>
<path d="M344.859 364.591C344.859 368.5 337.966 379.839 337.966 379.839C337.966 379.839 331.067 368.465 331.067 364.591C331.067 362.714 331.793 360.914 333.085 359.587C334.378 358.259 336.131 357.513 337.959 357.513C339.788 357.513 341.541 358.259 342.833 359.587C344.126 360.914 344.852 362.714 344.852 364.591H344.859Z" fill="black"/>
<path d="M356.251 386.213C354.194 389.495 342.397 395.164 342.397 395.164C342.397 395.164 342.61 381.783 344.681 378.522C345.163 377.721 345.797 377.028 346.544 376.481C347.291 375.935 348.136 375.548 349.031 375.341C349.925 375.135 350.851 375.113 351.754 375.279C352.657 375.444 353.518 375.793 354.288 376.305C355.058 376.817 355.72 377.481 356.237 378.259C356.753 379.037 357.114 379.913 357.297 380.835C357.479 381.758 357.481 382.709 357.302 383.632C357.122 384.556 356.765 385.433 356.251 386.213Z" fill="black"/>
<path d="M355.751 423.216C352.321 424.976 339.393 423.758 339.393 423.758C339.393 423.758 346.149 412.335 349.544 410.574C351.176 409.729 353.069 409.584 354.805 410.172C356.542 410.76 357.98 412.032 358.803 413.708C359.626 415.384 359.767 417.328 359.194 419.111C358.622 420.894 357.383 422.371 355.751 423.216Z" fill="black"/>
<path d="M349.256 451.126C346.197 453.451 333.22 454.5 333.22 454.5C333.22 454.5 338.021 442.069 341.06 439.71C341.787 439.155 342.614 438.753 343.494 438.526C344.373 438.299 345.287 438.253 346.183 438.389C347.08 438.525 347.942 438.841 348.72 439.319C349.498 439.797 350.176 440.428 350.716 441.175C351.257 441.922 351.649 442.772 351.869 443.674C352.09 444.577 352.136 445.516 352.003 446.437C351.871 447.357 351.563 448.242 351.097 449.041C350.632 449.84 350.018 450.536 349.29 451.091L349.256 451.126Z" fill="black"/>
<path d="M327.918 395.918C330.662 398.643 343.371 401.461 343.371 401.461C343.371 401.461 340.257 388.488 337.527 385.762C336.881 385.1 336.113 384.576 335.268 384.222C334.423 383.867 333.517 383.688 332.604 383.696C331.691 383.703 330.789 383.897 329.949 384.266C329.11 384.634 328.35 385.17 327.714 385.843C327.078 386.516 326.579 387.311 326.245 388.184C325.911 389.057 325.749 389.988 325.768 390.926C325.788 391.863 325.989 392.787 326.359 393.644C326.729 394.501 327.262 395.274 327.925 395.918H327.918Z" fill="black"/>
<path d="M320.703 428.681C324.133 430.442 337.061 429.223 337.061 429.223C337.061 429.223 330.305 417.8 326.91 416.039C325.278 415.194 323.385 415.049 321.649 415.637C319.912 416.225 318.474 417.497 317.651 419.173C316.828 420.85 316.687 422.793 317.26 424.576C317.832 426.359 319.071 427.836 320.703 428.681Z" fill="black"/>
<path d="M317.939 461.472C320.998 463.796 333.975 464.846 333.975 464.846C333.975 464.846 329.174 452.415 326.135 450.056C324.666 448.935 322.822 448.46 321.011 448.735C319.2 449.009 317.57 450.012 316.478 451.521C315.387 453.03 314.924 454.923 315.192 456.782C315.459 458.642 316.435 460.316 317.905 461.437L317.939 461.472Z" fill="black"/>
<path opacity="0.5" d="M344.859 364.591C344.859 368.5 337.966 379.839 337.966 379.839C337.966 379.839 331.067 368.465 331.067 364.591C331.067 362.714 331.793 360.914 333.085 359.587C334.378 358.259 336.131 357.513 337.959 357.513C339.788 357.513 341.541 358.259 342.833 359.587C344.126 360.914 344.852 362.714 344.852 364.591H344.859Z" fill="black"/>
<path opacity="0.5" d="M356.251 386.213C354.194 389.495 342.397 395.164 342.397 395.164C342.397 395.164 342.61 381.783 344.681 378.522C345.163 377.721 345.797 377.028 346.544 376.481C347.291 375.935 348.136 375.548 349.031 375.341C349.925 375.135 350.851 375.113 351.754 375.279C352.657 375.444 353.518 375.793 354.288 376.305C355.058 376.817 355.72 377.481 356.237 378.259C356.753 379.037 357.114 379.913 357.297 380.835C357.479 381.758 357.481 382.709 357.302 383.632C357.122 384.556 356.765 385.433 356.251 386.213Z" fill="black"/>
<path opacity="0.5" d="M355.751 423.216C352.321 424.976 339.393 423.758 339.393 423.758C339.393 423.758 346.149 412.335 349.544 410.574C351.176 409.729 353.069 409.584 354.805 410.172C356.542 410.76 357.98 412.032 358.803 413.708C359.626 415.384 359.767 417.328 359.194 419.111C358.622 420.894 357.383 422.371 355.751 423.216Z" fill="black"/>
<path opacity="0.5" d="M349.256 451.126C346.197 453.451 333.22 454.5 333.22 454.5C333.22 454.5 338.021 442.069 341.06 439.71C341.787 439.155 342.614 438.753 343.494 438.526C344.373 438.299 345.287 438.253 346.183 438.389C347.08 438.525 347.942 438.841 348.72 439.319C349.498 439.797 350.176 440.428 350.716 441.175C351.257 441.922 351.649 442.772 351.869 443.674C352.09 444.577 352.136 445.516 352.003 446.437C351.871 447.357 351.563 448.242 351.097 449.041C350.632 449.84 350.018 450.536 349.29 451.091L349.256 451.126Z" fill="black"/>
<path opacity="0.5" d="M327.918 395.918C330.662 398.643 343.371 401.461 343.371 401.461C343.371 401.461 340.257 388.488 337.527 385.762C336.881 385.1 336.113 384.576 335.268 384.222C334.423 383.867 333.517 383.688 332.604 383.696C331.691 383.703 330.789 383.897 329.949 384.266C329.11 384.634 328.35 385.17 327.714 385.843C327.078 386.516 326.579 387.311 326.245 388.184C325.911 389.057 325.749 389.988 325.768 390.926C325.788 391.863 325.989 392.787 326.359 393.644C326.729 394.501 327.262 395.274 327.925 395.918H327.918Z" fill="black"/>
<path opacity="0.5" d="M320.703 428.681C324.133 430.442 337.061 429.223 337.061 429.223C337.061 429.223 330.305 417.8 326.91 416.039C325.278 415.194 323.385 415.049 321.649 415.637C319.912 416.225 318.474 417.497 317.651 419.173C316.828 420.85 316.687 422.793 317.26 424.576C317.832 426.359 319.071 427.836 320.703 428.681Z" fill="black"/>
<path opacity="0.5" d="M317.939 461.472C320.998 463.796 333.975 464.846 333.975 464.846C333.975 464.846 329.174 452.415 326.135 450.056C324.666 448.935 322.822 448.46 321.011 448.735C319.2 449.009 317.57 450.012 316.478 451.521C315.387 453.03 314.924 454.923 315.192 456.782C315.459 458.642 316.435 460.316 317.905 461.437L317.939 461.472Z" fill="black"/>
<path d="M284.572 480.425C284.572 480.425 277.604 456.148 285.882 438.224C289.402 430.743 290.463 422.291 288.907 414.138C288.139 410.273 287.028 406.49 285.587 402.834" stroke="black" stroke-width="2" stroke-miterlimit="10"/>
<path d="M290.738 391.523C290.738 394.502 285.484 403.144 285.484 403.144C285.484 403.144 280.231 394.502 280.231 391.523C280.231 390.092 280.784 388.72 281.77 387.708C282.755 386.697 284.091 386.128 285.484 386.128C286.878 386.128 288.214 386.697 289.199 387.708C290.185 388.72 290.738 390.092 290.738 391.523Z" fill="black"/>
<path d="M299.421 408.024C297.844 410.525 288.859 414.849 288.859 414.849C288.859 414.849 289.023 404.665 290.601 402.172C290.976 401.577 291.462 401.064 292.03 400.662C292.598 400.26 293.238 399.977 293.913 399.829C294.587 399.681 295.284 399.671 295.963 399.799C296.641 399.927 297.288 400.191 297.868 400.577C298.447 400.962 298.946 401.46 299.338 402.044C299.729 402.627 300.005 403.284 300.149 403.977C300.294 404.67 300.304 405.385 300.179 406.082C300.054 406.779 299.796 407.444 299.421 408.039V408.024Z" fill="black"/>
<path d="M299.044 436.224C296.451 437.562 286.575 436.639 286.575 436.639C286.575 436.639 291.719 427.934 294.311 426.589C295.556 425.945 296.998 425.834 298.322 426.282C299.645 426.73 300.741 427.699 301.369 428.977C301.996 430.254 302.104 431.736 301.668 433.095C301.232 434.454 300.288 435.579 299.044 436.224Z" fill="black"/>
<path d="M294.078 457.5C291.746 459.275 281.856 460.071 281.856 460.071C281.856 460.071 285.498 450.598 287.83 448.802C288.951 447.952 290.354 447.593 291.733 447.805C293.111 448.017 294.35 448.782 295.179 449.933C296.008 451.083 296.357 452.525 296.151 453.94C295.944 455.355 295.199 456.628 294.078 457.479V457.5Z" fill="black"/>
<path d="M277.83 415.426C279.888 417.504 289.606 419.652 289.606 419.652C289.606 419.652 287.233 409.792 285.148 407.679C284.653 407.186 284.068 406.798 283.426 406.536C282.785 406.275 282.099 406.146 281.409 406.157C280.719 406.168 280.038 406.318 279.404 406.599C278.771 406.88 278.198 407.287 277.717 407.796C277.237 408.304 276.858 408.905 276.604 409.564C276.35 410.223 276.224 410.926 276.235 411.635C276.245 412.344 276.391 413.043 276.665 413.694C276.939 414.344 277.335 414.933 277.83 415.426Z" fill="black"/>
<path d="M272.33 440.379C274.922 441.717 284.799 440.795 284.799 440.795C284.799 440.795 279.655 432.09 277.062 430.745C275.818 430.1 274.375 429.99 273.052 430.437C271.728 430.885 270.632 431.854 270.005 433.132C269.377 434.41 269.269 435.891 269.705 437.25C270.141 438.609 271.085 439.735 272.33 440.379Z" fill="black"/>
<path d="M270.224 465.381C272.556 467.156 282.446 467.952 282.446 467.952C282.446 467.952 278.804 458.479 276.472 456.683C275.917 456.262 275.287 455.957 274.618 455.786C273.948 455.615 273.252 455.581 272.57 455.685C271.887 455.79 271.232 456.032 270.64 456.398C270.049 456.763 269.534 457.244 269.123 457.814C268.713 458.383 268.416 459.03 268.249 459.718C268.083 460.406 268.049 461.12 268.152 461.821C268.254 462.522 268.49 463.195 268.845 463.802C269.201 464.409 269.669 464.939 270.224 465.36V465.381Z" fill="black"/>
<path opacity="0.25" d="M290.738 391.523C290.738 394.502 285.484 403.144 285.484 403.144C285.484 403.144 280.231 394.502 280.231 391.523C280.231 390.092 280.784 388.72 281.77 387.708C282.755 386.697 284.091 386.128 285.484 386.128C286.878 386.128 288.214 386.697 289.199 387.708C290.185 388.72 290.738 390.092 290.738 391.523Z" fill="black"/>
<path opacity="0.25" d="M299.421 408.024C297.844 410.525 288.859 414.849 288.859 414.849C288.859 414.849 289.023 404.665 290.601 402.172C290.976 401.577 291.462 401.064 292.03 400.662C292.598 400.26 293.238 399.977 293.913 399.829C294.587 399.681 295.284 399.671 295.963 399.799C296.641 399.927 297.288 400.191 297.868 400.577C298.447 400.962 298.946 401.46 299.338 402.044C299.729 402.627 300.005 403.284 300.149 403.977C300.294 404.67 300.304 405.385 300.179 406.082C300.054 406.779 299.796 407.444 299.421 408.039V408.024Z" fill="black"/>
<path opacity="0.25" d="M299.044 436.224C296.451 437.562 286.575 436.639 286.575 436.639C286.575 436.639 291.719 427.934 294.311 426.589C295.556 425.945 296.998 425.834 298.322 426.282C299.645 426.73 300.741 427.699 301.369 428.977C301.996 430.254 302.104 431.736 301.668 433.095C301.232 434.454 300.288 435.579 299.044 436.224Z" fill="black"/>
<path opacity="0.25" d="M294.078 457.5C291.746 459.275 281.856 460.071 281.856 460.071C281.856 460.071 285.498 450.598 287.83 448.802C288.951 447.952 290.354 447.593 291.733 447.805C293.111 448.017 294.35 448.782 295.179 449.933C296.008 451.083 296.357 452.525 296.151 453.94C295.944 455.355 295.199 456.628 294.078 457.479V457.5Z" fill="black"/>
<path opacity="0.25" d="M277.83 415.426C279.888 417.504 289.606 419.652 289.606 419.652C289.606 419.652 287.233 409.792 285.148 407.679C284.653 407.186 284.068 406.798 283.426 406.536C282.785 406.275 282.099 406.146 281.409 406.157C280.719 406.168 280.038 406.318 279.404 406.599C278.771 406.88 278.198 407.287 277.717 407.796C277.237 408.304 276.858 408.905 276.604 409.564C276.35 410.223 276.224 410.926 276.235 411.635C276.245 412.344 276.391 413.043 276.665 413.694C276.939 414.344 277.335 414.933 277.83 415.426Z" fill="black"/>
<path opacity="0.25" d="M272.33 440.379C274.922 441.717 284.799 440.795 284.799 440.795C284.799 440.795 279.655 432.09 277.062 430.745C275.818 430.1 274.375 429.99 273.052 430.437C271.728 430.885 270.632 431.854 270.005 433.132C269.377 434.41 269.269 435.891 269.705 437.25C270.141 438.609 271.085 439.735 272.33 440.379Z" fill="black"/>
<path opacity="0.25" d="M270.224 465.381C272.556 467.156 282.446 467.952 282.446 467.952C282.446 467.952 278.804 458.479 276.472 456.683C275.917 456.262 275.287 455.957 274.618 455.786C273.948 455.615 273.252 455.581 272.57 455.685C271.887 455.79 271.232 456.032 270.64 456.398C270.049 456.763 269.534 457.244 269.123 457.814C268.713 458.383 268.416 459.03 268.249 459.718C268.083 460.406 268.049 461.12 268.152 461.821C268.254 462.522 268.49 463.195 268.845 463.802C269.201 464.409 269.669 464.939 270.224 465.36V465.381Z" fill="black"/>
<g opacity="0.7">
<path opacity="0.6" d="M900 155.342H221V511.004H900V155.342Z" fill="#009600"/>
<path opacity="0.25" d="M221 155.342V511.709H900V155.342H221ZM251.178 186.331H545.411V318.031H251.178V186.331ZM251.178 349.02H545.411V480.72H251.178V349.02ZM869.822 480.72H575.589V349.02H869.822V480.72ZM869.822 318.031H575.589V186.331H869.822V318.031Z" fill="white"/>
</g>
<g opacity="0.7">
<path opacity="0.7" d="M470.042 526.414C470.042 526.414 410.619 504.102 402.485 535.506L425.276 594.997L427.718 633.028H477.367V600.779C477.367 600.779 470.042 568.551 488.766 548.726L470.042 526.414Z" fill="url(#paint0_linear)"/>
<g opacity="0.1">
<path opacity="0.1" d="M479.994 349.372C477.47 348.513 474.432 347.745 472.374 349.456C471.181 350.449 470.666 352.048 469.74 353.302C466.661 357.45 460.454 356.675 455.55 358.161C448.342 360.345 443.89 367.676 441.339 374.86C430.05 406.553 442.635 442.802 432.807 474.988C429.913 484.46 425.18 494.975 429.858 503.687C431.415 506.596 433.973 509.018 434.727 512.23C435.783 516.589 433.746 522.308 437.306 524.963C438.417 525.787 439.823 526.048 441.154 526.372C449.165 528.541 455.234 534.943 461.339 540.634C467.443 546.324 474.781 551.832 483.06 551.458C485.735 551.232 488.377 550.693 490.933 549.853L532.016 538.105C536.131 536.929 540.603 535.506 542.99 531.9C544.451 529.696 544.91 526.971 545.281 524.351C546.698 514.339 547.37 504.232 547.29 494.116C547.29 490.777 547.139 487.362 545.919 484.256C544.547 480.671 541.804 477.805 539.808 474.53C535.953 468.191 534.917 460.578 533.964 453.204C532.448 441.464 530.933 429.491 533.031 417.842C533.93 412.842 535.48 407.982 536.509 403.017C538.176 394.928 538.44 386.6 537.291 378.416C536.33 371.62 534.273 364.725 529.746 359.612C526.783 356.205 522.758 353.964 518.361 353.274C512.805 352.569 510.041 355.851 505.09 357.077C497.765 358.957 487.038 351.759 479.994 349.372Z" fill="url(#paint1_linear)"/>
</g>
<path opacity="0.7" d="M479.994 347.689C477.47 346.829 474.432 346.062 472.374 347.773C471.181 348.766 470.666 350.365 469.74 351.619C466.661 355.767 460.454 354.992 455.55 356.478C448.342 358.661 443.89 365.993 441.339 373.177C430.05 404.869 442.635 441.119 432.807 473.304C429.913 482.777 425.18 493.292 429.858 502.004C431.415 504.912 433.973 507.335 434.727 510.547C435.783 514.906 433.746 520.625 437.306 523.28C438.417 524.104 439.823 524.365 441.154 524.689C449.165 526.858 455.234 533.26 461.339 538.95C467.443 544.641 474.768 550.212 483.06 549.817C485.735 549.591 488.377 549.052 490.933 548.212L532.016 536.464C536.131 535.288 540.603 533.865 542.99 530.259C544.451 528.055 544.91 525.33 545.281 522.71C546.698 512.698 547.37 502.591 547.29 492.475C547.29 489.137 547.139 485.721 545.919 482.615C544.547 479.03 541.804 476.164 539.808 472.889C535.953 466.55 534.917 458.937 533.964 451.563C532.448 439.823 530.933 427.85 533.031 416.201C533.93 411.201 535.48 406.341 536.509 401.376C538.176 393.287 538.44 384.959 537.291 376.775C536.33 369.979 534.273 363.084 529.746 357.971C526.783 354.564 522.758 352.323 518.361 351.633C512.805 350.928 510.041 354.21 505.09 355.436C497.765 357.267 487.038 350.111 479.994 347.689Z" fill="url(#paint2_linear)"/>
<path opacity="0.7" d="M468.417 285.141C468.417 285.141 469.233 316.538 459.466 315.714C449.7 314.89 487.113 367.768 487.113 367.768L518.855 350.414C518.855 350.414 500.144 319.848 513.176 300.84C526.207 281.831 468.417 285.141 468.417 285.141Z" fill="url(#paint3_linear)"/>
<g opacity="0.1">
<path opacity="0.1" d="M413.877 552.029C413.877 552.029 407.368 597.476 391.086 585.081C374.804 572.685 377.245 552.029 377.245 552.029C377.245 552.029 408.994 464.444 407.368 451.218C405.743 437.992 461.551 335.223 461.551 335.223L482.223 504.103C482.223 504.103 420.386 527.238 413.877 552.029Z" fill="url(#paint4_linear)"/>
</g>
<path opacity="0.7" d="M412.252 552.029C412.252 552.029 405.743 597.476 389.461 585.081C373.178 572.685 375.62 552.029 375.62 552.029C375.62 552.029 407.368 464.444 405.736 451.218C404.104 437.992 459.919 335.223 459.919 335.223L480.591 504.103C480.591 504.103 418.76 527.238 412.252 552.029Z" fill="url(#paint5_linear)"/>
<path opacity="0.7" d="M470.042 304.974C470.042 304.974 438.294 327.265 426.072 326.455L416.586 329.103C407.207 331.686 398.718 336.911 392.079 344.188C385.44 351.465 380.915 360.503 379.015 370.282L378.864 371.071C373.994 397.517 372.362 470.234 372.362 470.234C372.362 470.234 373.178 489.249 381.313 494.179L433.438 530.534C433.438 530.534 431.812 490.876 451.346 486.742C470.879 482.608 446.462 485.087 446.462 485.087L410.647 463.606C410.647 463.606 411.463 431.378 421.23 420.645C430.996 409.912 465.186 353.738 465.186 353.738L455.42 319.039L470.042 304.974Z" fill="url(#paint6_linear)"/>
<g opacity="0.1">
<path opacity="0.1" d="M505.041 326.455C505.041 326.455 525.034 331.828 539.033 334.455C541.214 334.856 543.272 335.778 545.041 337.149C546.809 338.52 548.238 340.299 549.211 342.343C553.436 351.295 559.876 367.486 558.765 380.987L570.973 429.737L605.952 472.699L574.217 487.58L538.415 447.091L567.715 523.935L513.176 526.414C513.176 526.414 496.893 402.461 500.967 381.818L505.041 326.455Z" fill="url(#paint7_linear)"/>
</g>
<path opacity="0.7" d="M506.667 326.455C506.667 326.455 526.66 331.828 540.658 334.455C542.839 334.856 544.898 335.778 546.666 337.149C548.435 338.52 549.863 340.299 550.836 342.343C555.061 351.295 561.501 367.486 560.39 380.987L572.599 429.737L607.577 472.699L575.836 487.573L540.02 447.084L569.348 523.935L514.808 526.414C514.808 526.414 498.526 402.461 502.6 381.818L506.667 326.455Z" fill="url(#paint8_linear)"/>
<path opacity="0.7" d="M467.367 302.34L478.588 358.267L460.275 367.768L450.241 317.391L467.367 302.34Z" fill="url(#paint9_linear)"/>
<path opacity="0.7" d="M498.121 362.401L506.667 326.455L517.661 347.527L511.962 364.88L498.121 362.401Z" fill="url(#paint10_linear)"/>
<path opacity="0.1" d="M529.053 373.141C529.053 373.141 529.053 429.329 536.378 433.456L529.053 373.141Z" fill="url(#paint11_linear)"/>
<path opacity="0.1" d="M424.048 387.185C424.048 387.185 407.156 442.52 411.936 448.316L424.048 387.185Z" fill="url(#paint12_linear)"/>
<path opacity="0.1" d="M420.797 463.191C420.797 463.191 453.362 484.805 457.834 485.15L420.797 463.191Z" fill="url(#paint13_linear)"/>
<g opacity="0.1">
<path opacity="0.1" d="M469.226 288.445C469.226 288.445 469.349 293.283 468.91 299.107C471.814 306.024 476.63 311.913 482.763 316.045C488.896 320.176 496.075 322.368 503.409 322.349C505.419 322.347 507.426 322.182 509.41 321.856C509.198 315.672 510.357 309.467 513.992 304.171C527.016 285.141 469.226 288.445 469.226 288.445Z" fill="url(#paint14_linear)"/>
</g>
<path opacity="0.7" d="M502.6 319.024C523.278 319.024 540.041 302.007 540.041 281.014C540.041 260.022 523.278 243.004 502.6 243.004C481.922 243.004 465.159 260.022 465.159 281.014C465.159 302.007 481.922 319.024 502.6 319.024Z" fill="url(#paint15_linear)"/>
<g opacity="0.1">
<path opacity="0.1" d="M526.358 265.034C530.891 265.654 536.646 264.119 537.544 259.555C538.649 253.794 531.056 250.047 529.883 244.293C529.444 242.138 529.966 239.884 529.712 237.694C529.204 233.285 525.693 229.891 522.119 227.327C510.774 219.261 497.03 215.542 483.286 216.819C481.585 216.981 479.795 217.263 478.485 218.369C476.99 219.615 476.427 221.644 475.392 223.299C471.88 229.06 463.993 229.736 458.334 233.328C451.716 237.553 448.438 245.772 448.143 253.688C447.848 261.604 450.07 269.373 452.258 276.979C454.13 283.444 456.092 290.086 460.2 295.382C464.308 300.678 471.126 304.375 477.58 302.784C474.624 300.622 476.77 295.6 479.973 293.839C483.176 292.079 487.154 291.776 489.891 289.346C492.627 286.916 493.45 282.937 494.342 279.317C495.467 274.753 497.086 270.119 500.378 266.788C506.832 260.266 518.457 263.957 526.358 265.034Z" fill="url(#paint16_linear)"/>
</g>
<path opacity="0.7" d="M525.521 264.21C530.055 264.83 535.809 263.295 536.708 258.731C537.812 252.97 530.219 249.223 529.047 243.469C528.608 241.314 529.129 239.06 528.875 236.87C528.368 232.461 524.856 229.067 521.283 226.503C509.945 218.441 496.212 214.72 482.477 215.988C480.776 216.15 478.986 216.432 477.676 217.538C476.181 218.784 475.618 220.812 474.582 222.468C471.071 228.229 463.184 228.905 457.525 232.496C450.907 236.722 447.628 244.941 447.333 252.857C447.038 260.773 449.261 268.542 451.448 276.148C453.321 282.613 455.282 289.255 459.391 294.551C463.499 299.847 470.316 303.544 476.77 301.953C473.814 299.791 475.961 294.769 479.164 293.008C482.367 291.248 486.345 290.945 489.082 288.515C491.818 286.085 492.641 282.106 493.533 278.486C494.658 273.922 496.276 269.288 499.568 265.957C506.015 259.442 517.641 263.126 525.521 264.21Z" fill="url(#paint17_linear)"/>
<g opacity="0.1">
<path opacity="0.1" d="M496.125 286.142C495.577 290.071 494.356 296.875 492.058 301.171C489.02 306.762 486.421 312.593 484.287 318.609C484.287 318.609 499.28 330.392 506.921 338.441C509.273 340.97 512.283 342.751 515.592 343.574C518.902 344.397 522.372 344.226 525.59 343.083C529.561 341.618 533.038 338.787 533.964 333.476C535.418 325.102 533.69 318.785 532.057 315.045C531.271 313.278 530.859 311.36 530.849 309.417C530.84 307.474 531.233 305.552 532.003 303.777C532.565 302.509 533.223 301.516 533.957 301.27C533.957 301.27 519.307 297.966 518.491 302.094C517.675 306.221 506.283 310.355 503.841 302.918L503.155 286.522C503.113 285.593 502.722 284.716 502.065 284.076C501.409 283.435 500.536 283.08 499.63 283.085C498.786 283.077 497.966 283.381 497.323 283.942C496.679 284.504 496.254 285.284 496.125 286.142Z" fill="url(#paint18_linear)"/>
</g>
<path opacity="0.7" d="M496.125 286.973C495.577 290.903 494.356 297.706 492.058 302.002C489.02 307.593 486.421 313.424 484.287 319.44C484.287 319.44 499.28 331.223 506.921 339.273C509.273 341.801 512.283 343.582 515.592 344.405C518.902 345.228 522.372 345.057 525.59 343.914C529.561 342.449 533.038 339.618 533.964 334.307C535.418 325.933 533.69 319.616 532.057 315.876C531.271 314.109 530.859 312.191 530.849 310.248C530.84 308.305 531.233 306.383 532.003 304.608C532.565 303.34 533.223 302.347 533.957 302.101C533.957 302.101 519.307 298.798 518.491 302.925C517.675 307.052 506.283 311.186 503.841 303.749L503.155 287.353C503.113 286.424 502.722 285.547 502.065 284.907C501.409 284.266 500.536 283.911 499.63 283.916C498.786 283.908 497.966 284.212 497.323 284.773C496.679 285.335 496.254 286.116 496.125 286.973Z" fill="url(#paint19_linear)"/>
</g>
<path d="M470.838 525.872C470.838 525.872 413.795 504.208 405.983 534.696L427.862 592.448L430.187 629.401H477.854V598.096C477.854 598.096 470.824 566.805 488.828 547.543L470.838 525.872Z" fill="#535461"/>
<path opacity="0.1" d="M480.392 353.95C477.971 353.119 475.049 352.372 473.08 354.034C471.935 354.999 471.441 356.549 470.55 357.767C467.594 361.795 461.633 361.042 456.928 362.486C450.008 364.598 445.742 371.726 443.287 378.684C432.45 409.454 444.528 444.668 435.098 475.917C432.354 485.115 427.78 495.327 432.265 503.786C433.76 506.603 436.195 508.962 436.943 512.082C437.958 516.308 436.003 521.871 439.419 524.449C440.482 525.252 441.833 525.499 443.108 525.858C450.797 527.971 456.627 534.182 462.484 539.711C468.341 545.24 475.392 550.585 483.334 550.226C485.899 550.005 488.43 549.483 490.878 548.669L530.315 537.26C534.273 536.112 538.546 534.732 540.857 531.231C542.229 529.119 542.702 526.456 543.059 523.9C544.419 514.176 545.063 504.361 544.986 494.538C544.986 491.299 544.842 487.981 543.683 484.967C542.311 481.488 539.732 478.706 537.812 475.516C534.115 469.374 533.114 461.965 532.201 454.803C530.747 443.401 529.293 431.773 531.303 420.462C532.167 415.61 533.655 410.891 534.643 406.067C536.245 398.209 536.5 390.125 535.398 382.177C534.479 375.578 532.496 368.881 528.162 363.915C525.331 360.614 521.462 358.436 517.229 357.76C511.893 357.056 509.239 360.267 504.486 361.457C497.456 363.225 487.154 356.274 480.392 353.95Z" fill="black"/>
<path d="M480.392 352.344C477.971 351.513 475.049 350.766 473.08 352.428C471.935 353.393 471.441 354.943 470.55 356.161C467.594 360.19 461.633 359.436 456.928 360.88C450.008 362.993 445.742 370.12 443.287 377.078C432.45 407.848 444.528 443.062 435.098 474.311C432.354 483.509 427.78 493.721 432.265 502.18C433.76 504.997 436.195 507.356 436.943 510.476C437.958 514.702 436.003 520.266 439.419 522.843C440.482 523.646 441.833 523.893 443.108 524.252C450.797 526.365 456.627 532.577 462.484 538.105C468.341 543.634 475.392 548.979 483.334 548.62C485.899 548.4 488.43 547.877 490.878 547.064L530.322 535.661C534.28 534.513 538.553 533.133 540.864 529.633C542.236 527.52 542.709 524.858 543.065 522.301C544.426 512.578 545.07 502.763 544.993 492.94C544.993 489.7 544.849 486.383 543.69 483.368C542.318 479.889 539.739 477.107 537.819 473.917C534.122 467.776 533.121 460.367 532.208 453.204C530.754 441.802 529.3 430.174 531.31 418.863C532.174 414.011 533.662 409.292 534.65 404.468C536.251 396.61 536.507 388.526 535.404 380.579C534.485 373.98 532.503 367.282 528.169 362.317C525.346 359.012 521.485 356.826 517.257 356.14C511.921 355.436 509.266 358.647 504.513 359.838C497.456 361.626 487.154 354.668 480.392 352.344Z" fill="#E0E0E0"/>
<path d="M469.281 291.579C469.281 291.579 470.063 322.067 460.687 321.264C451.311 320.461 487.257 371.817 487.257 371.817L517.73 354.964C517.73 354.964 499.76 325.278 512.243 306.819C524.726 288.36 469.281 291.579 469.281 291.579Z" fill="#FDA57D"/>
<path opacity="0.1" d="M416.922 550.754C416.922 550.754 410.674 594.884 395.044 582.848C379.413 570.812 381.758 550.754 381.758 550.754C381.758 550.754 412.231 465.698 410.667 452.859C409.104 440.02 462.71 340.209 462.71 340.209L482.552 504.208C482.552 504.208 423.171 526.682 416.922 550.754Z" fill="black"/>
<path d="M415.359 550.754C415.359 550.754 409.11 594.884 393.48 582.848C377.849 570.812 380.195 550.754 380.195 550.754C380.195 550.754 410.667 465.698 409.104 452.859C407.54 440.02 461.147 340.209 461.147 340.209L480.988 504.208C480.988 504.208 421.607 526.682 415.359 550.754Z" fill="#009600"/>
<path d="M470.838 310.834C470.838 310.834 440.365 332.497 428.644 331.694L419.535 334.265C410.492 336.817 402.323 341.914 395.949 348.98C389.576 356.046 385.253 364.8 383.466 374.254L383.322 375.022C378.631 400.7 377.074 471.311 377.074 471.311C377.074 471.311 377.856 489.763 385.668 494.552L435.674 529.893C435.674 529.893 434.11 491.376 452.868 487.369C471.626 483.361 448.177 485.763 448.177 485.763L413.795 464.895C413.795 464.895 414.577 433.604 423.952 423.174C433.328 412.743 466.146 358.182 466.146 358.182L456.771 324.447L470.838 310.834Z" fill="#009600"/>
<path opacity="0.1" d="M504.438 331.702C504.438 331.702 523.642 336.92 537.071 339.449C539.172 339.844 541.153 340.744 542.85 342.076C544.547 343.408 545.914 345.133 546.838 347.111C550.891 355.809 557.071 371.522 556.008 384.635L567.729 431.977L601.336 473.699L570.856 488.165L536.495 448.852L564.615 523.505L512.257 525.872C512.257 525.872 496.626 405.51 500.535 385.452L504.438 331.702Z" fill="black"/>
<path d="M506.002 331.702C506.002 331.702 525.206 336.92 538.635 339.449C540.736 339.844 542.716 340.744 544.414 342.076C546.111 343.408 547.478 345.133 548.401 347.111C552.455 355.809 558.634 371.522 557.571 384.635L569.293 431.977L602.9 473.699L572.427 488.143L538.045 448.823L566.165 523.477L513.814 525.872C513.814 525.872 498.183 405.51 502.092 385.452L506.002 331.702Z" fill="#009600"/>
<path d="M468.273 308.284L479.047 362.591L461.462 371.817L451.833 322.898L468.273 308.284Z" fill="#E0E0E0"/>
<path d="M497.799 366.606L506.002 331.702L516.55 352.161L511.084 369.014L497.799 366.606Z" fill="#E0E0E0"/>
<path opacity="0.1" d="M527.49 377.036C527.49 377.036 527.49 431.597 534.52 435.611L527.49 377.036Z" fill="black"/>
<path opacity="0.1" d="M426.689 390.65C426.689 390.65 410.468 444.386 415.029 450.014L426.689 390.65Z" fill="black"/>
<path opacity="0.1" d="M423.561 464.494C423.561 464.494 454.823 485.481 459.116 485.819L423.561 464.494Z" fill="black"/>
<path opacity="0.1" d="M470.056 294.79C470.056 294.79 470.179 299.488 469.754 305.143C472.891 312.762 478.428 319.079 485.479 323.08C492.529 327.081 500.684 328.535 508.635 327.208C508.43 321.201 509.548 315.179 513.032 310.031C525.521 291.579 470.056 294.79 470.056 294.79Z" fill="black"/>
<path d="M502.092 324.483C521.945 324.483 538.038 307.957 538.038 287.571C538.038 267.186 521.945 250.66 502.092 250.66C482.24 250.66 466.146 267.186 466.146 287.571C466.146 307.957 482.24 324.483 502.092 324.483Z" fill="#FDA57D"/>
<path opacity="0.1" d="M524.897 272.056C529.252 272.655 534.801 271.162 535.638 266.739C536.701 261.14 529.41 257.506 528.285 251.949C527.86 249.836 528.368 247.667 528.121 245.547C527.634 241.265 524.259 237.969 520.83 235.483C509.971 227.662 496.763 224.048 483.554 225.285C481.921 225.447 480.2 225.714 478.938 226.785C477.504 227.996 476.949 229.961 475.968 231.588C472.594 237.18 464.994 237.842 459.596 241.328C453.239 245.406 450.097 253.414 449.809 261.104C449.521 268.795 451.661 276.338 453.774 283.719C455.57 290.001 457.457 296.445 461.4 301.586C465.344 306.728 471.894 310.32 478.08 308.77C475.241 306.657 477.305 301.791 480.378 300.086C483.451 298.382 487.237 298.086 489.905 295.72C492.573 293.353 493.334 289.494 494.177 285.98C495.261 281.543 496.825 277.049 499.973 273.81C506.159 267.401 517.291 271.007 524.897 272.056Z" fill="black"/>
<path d="M524.15 271.253C528.505 271.852 534.053 270.359 534.89 265.936C535.953 260.337 528.662 256.703 527.538 251.146C527.112 249.033 527.62 246.864 527.373 244.744C526.852 240.427 523.464 237.117 520.034 234.645C509.182 226.826 495.982 223.21 482.779 224.44C481.146 224.601 479.425 224.869 478.163 225.94C476.729 227.151 476.174 229.116 475.193 230.743C471.819 236.335 464.219 236.997 458.821 240.483C452.464 244.561 449.322 252.568 449.034 260.259C448.746 267.95 450.886 275.493 452.999 282.874C454.795 289.156 456.682 295.6 460.625 300.741C464.569 305.883 471.119 309.474 477.305 307.925C474.466 305.812 476.53 300.946 479.603 299.241C482.676 297.537 486.462 297.241 489.13 294.875C491.798 292.508 492.559 288.649 493.402 285.134C494.486 280.697 496.05 276.204 499.198 272.964C505.378 266.619 516.536 270.218 524.15 271.253Z" fill="#72351C"/>
<path opacity="0.1" d="M495.878 292.551C495.35 296.368 494.177 302.974 491.969 307.143C489.051 312.566 486.556 318.218 484.507 324.046C484.507 324.046 498.91 335.491 506.214 343.308C508.457 345.759 511.343 347.49 514.524 348.29C517.705 349.09 521.044 348.925 524.136 347.815C527.949 346.407 531.289 343.639 532.174 338.491C533.546 330.356 531.913 324.222 530.35 320.588C529.6 318.87 529.21 317.009 529.205 315.126C529.201 313.243 529.581 311.38 530.322 309.658C530.864 308.425 531.495 307.467 532.201 307.221C532.201 307.221 518.135 304.009 517.353 308.024C516.571 312.038 505.631 316.045 503.286 308.826L502.641 292.903C502.606 292.005 502.233 291.155 501.601 290.533C500.97 289.911 500.128 289.564 499.253 289.564C498.434 289.558 497.64 289.857 497.019 290.406C496.398 290.955 495.993 291.717 495.878 292.551Z" fill="black"/>
<path d="M495.878 293.353C495.35 297.171 494.177 303.777 491.969 307.946C489.051 313.369 486.556 319.021 484.507 324.849C484.507 324.849 498.91 336.293 506.214 344.111C508.457 346.562 511.343 348.292 514.524 349.092C517.705 349.893 521.044 349.728 524.136 348.618C527.949 347.21 531.289 344.442 532.174 339.294C533.546 331.159 531.913 325.025 530.35 321.391C529.593 319.67 529.197 317.805 529.189 315.917C529.181 314.029 529.56 312.16 530.302 310.432C530.843 309.2 531.474 308.242 532.181 307.995C532.181 307.995 518.114 304.784 517.332 308.798C516.55 312.813 505.631 316.855 503.265 309.657L502.62 293.734C502.585 292.836 502.212 291.986 501.581 291.364C500.949 290.742 500.108 290.395 499.232 290.395C498.421 290.393 497.635 290.69 497.019 291.234C496.404 291.777 495.999 292.529 495.878 293.353Z" fill="#72351C"/>
<path d="M775.174 521.646C775.174 521.646 761.052 507.131 755.86 487.841H757.074L756.491 486.164H757.074L755.236 480.798C760.442 475.544 764.289 470.452 764.913 467.557C765.97 462.684 767.019 436.315 767.657 417.99L768.219 418.131C769.591 415.722 769.879 412.687 769.783 409.933C769.835 406.84 769.447 403.755 768.631 400.777L766.086 374.613C765.841 372.206 765.122 369.876 763.973 367.763C762.823 365.65 761.267 363.8 759.399 362.324L733.611 341.78C734.968 339.9 736.692 338.331 738.672 337.174C740.147 336.371 741.862 335.822 742.856 334.448C744.653 331.962 743.124 328.258 744.351 325.426C745.27 323.314 747.534 322.13 748.857 320.236C751.567 316.355 749.605 310.996 747.582 306.7L735.826 281.747C732.568 274.838 729.283 267.873 724.729 261.788C710.785 243.138 683.955 233.863 662.083 241.948C655.848 244.251 650.107 248.674 647.446 254.9C646.52 257.069 645.965 259.435 644.621 261.358C641.623 265.647 635.773 266.457 631.589 269.542C626.246 273.507 624.264 280.972 625.012 287.698C625.759 294.424 628.763 300.636 631.726 306.714C634.84 313.052 638.057 319.581 643.167 324.384C645.553 326.631 648.475 328.715 649.236 331.948C649.888 334.723 648.736 337.582 648.976 340.456C649.076 341.651 649.417 342.812 649.977 343.864C638.434 345.35 630.245 355.196 626.576 369.845C626.349 370.754 626.26 371.254 626.26 371.254L624.635 386.424C624.6 387.079 624.635 387.713 624.635 388.34C624.487 391.753 625.196 395.148 626.692 398.2V451.465L577.31 483.566C569.903 486.946 571.549 513.984 586.364 519.047C601.178 524.111 614.354 492.066 614.354 492.066C623.373 491.447 638.544 479.093 646.699 469.529C647.801 471.356 649.266 472.923 650.999 474.128C645.114 487.749 633.475 515.927 635.334 521.646C636.452 525.097 665.354 525.414 696.595 524.738C697.394 525.194 698.232 525.573 699.098 525.872C702.432 527.013 705.683 526.266 708.7 524.428C742.499 523.435 775.174 521.646 775.174 521.646ZM733.467 418.363C734.153 416.412 736.402 415.349 739.413 414.842V435.386L733.467 418.363ZM730.593 346.175L730.689 346.027L730.593 346.175Z" fill="url(#paint20_linear)"/>
<path d="M656.424 392.685C656.424 392.685 654.86 449.655 653.297 456.88C651.733 464.106 629.086 485.728 617.351 486.566C617.351 486.566 604.848 517.054 590.781 512.244C576.714 507.434 575.15 481.756 582.187 478.544L629.086 448.049V387.065L656.424 392.685Z" fill="#FDB797"/>
<path d="M655.251 462.487C655.251 462.487 634.936 507.42 637.282 514.646C639.628 521.871 770.119 514.646 770.119 514.646C770.119 514.646 745.894 489.77 750.586 462.487H655.251Z" fill="#009600"/>
<path d="M670.882 329.293C670.882 329.293 674.01 360.584 668.536 367.81C663.063 375.036 690.415 379.078 692.761 379.078C695.107 379.078 720.113 370.254 724.797 367.81C729.482 365.366 733.391 347.752 733.391 347.752C733.391 347.752 709.949 352.569 702.919 324.511L670.882 329.293Z" fill="#FDB797"/>
<path d="M662.693 249.019C656.774 251.209 651.315 255.407 648.791 261.323C647.913 263.379 647.385 265.626 646.109 267.457C643.263 271.528 637.707 272.295 633.763 275.204C628.688 278.972 626.809 286.057 627.515 292.452C628.222 298.847 631.075 304.742 633.887 310.489C636.843 316.524 639.902 322.708 644.751 327.272C647.014 329.384 649.792 331.385 650.512 334.455C651.129 337.089 650.039 339.843 650.265 342.54C650.828 349.21 658.591 352.316 665.073 353.055C667.892 353.379 671.115 353.393 673.104 351.316C674.119 350.245 674.634 348.794 675.272 347.456C676.746 344.391 679.019 341.806 681.838 339.987C684.657 338.168 687.911 337.187 691.24 337.152C694.569 337.117 697.842 338.03 700.697 339.789C703.551 341.548 705.875 344.085 707.411 347.118C708.934 350.118 709.818 353.767 712.582 355.57C716.814 358.387 722.479 355.084 725.614 351.013C728.748 346.942 730.998 341.857 735.449 339.413C736.821 338.646 738.48 338.132 739.427 336.822C741.135 334.462 739.681 330.941 740.847 328.258C741.724 326.236 743.871 325.131 745.126 323.328C747.698 319.644 745.812 314.552 743.912 310.474L732.747 286.775C729.653 280.212 726.533 273.598 722.212 267.816C708.94 250.153 683.461 241.342 662.693 249.019Z" fill="black"/>
<path opacity="0.1" d="M691.197 373.423C691.197 373.423 721.67 373.423 729.489 344.548L755.14 364.972C756.911 366.382 758.384 368.147 759.469 370.161C760.553 372.175 761.228 374.394 761.45 376.684L763.871 401.531C763.871 401.531 766.614 410.757 763.48 416.377C763.48 416.377 731.052 407.926 730.271 417.582L752.904 482.573C752.904 482.573 717.74 483.375 708.364 476.938C708.364 476.938 670.073 484.96 660.697 476.135C651.321 467.311 641.946 468.114 649.723 448.049C649.723 448.049 634.093 431.998 641.13 409.532C648.166 387.065 641.52 409.933 641.52 409.933C641.52 409.933 626.342 402.313 627.124 387.833L628.688 373.388C628.688 373.388 628.77 372.909 628.99 372.05C633.757 353.034 646.555 342.47 664.552 349.203C669.812 351.161 675.189 348.914 675.189 348.914C675.189 348.914 669.318 375.029 691.197 373.423Z" fill="black"/>
<path d="M691.197 371.817C691.197 371.817 721.67 371.817 729.489 342.942L755.14 363.366C756.911 364.776 758.384 366.542 759.469 368.555C760.553 370.569 761.228 372.788 761.45 375.078L763.871 399.925C763.871 399.925 766.614 409.151 763.48 414.771C763.48 414.771 731.052 406.32 730.271 415.976L752.904 480.967C752.904 480.967 717.74 481.77 708.364 475.333C708.364 475.333 670.073 483.354 660.697 474.53C651.321 465.705 641.946 466.508 649.723 446.443C649.723 446.443 634.093 430.392 641.13 407.926C648.166 385.459 641.52 408.327 641.52 408.327C641.52 408.327 626.342 400.707 627.124 386.262L628.688 371.817C628.688 371.817 628.77 371.338 628.99 370.479C633.757 351.464 646.555 340.899 664.552 347.632C669.812 349.59 675.189 347.344 675.189 347.344C675.189 347.344 669.318 373.423 691.197 371.817Z" fill="#009600"/>
<path d="M763.48 399.101C763.48 399.101 761.916 456.071 760.352 463.296C758.789 470.522 736.128 492.172 724.406 492.982C724.406 492.982 711.903 523.47 697.836 518.66C683.769 513.85 682.206 488.172 689.243 484.96L736.128 454.472V393.467L763.48 399.101Z" fill="#FDB797"/>
<path opacity="0.1" d="M729.907 401.108C729.907 401.108 747.877 413.631 763.514 412.588C763.514 412.588 765.078 391.079 760.387 389.875C755.695 388.671 735.346 389.875 729.907 401.108Z" fill="black"/>
<path d="M729.907 400.306C729.907 400.306 747.877 412.828 763.514 411.785C763.514 411.785 765.078 390.277 760.387 389.072C755.695 387.868 735.346 389.072 729.907 400.306Z" fill="#006A9A"/>
<path opacity="0.1" d="M704.482 326.081L672.446 330.899C672.446 330.899 673.166 338.139 673.31 346.456C679.538 349.153 686.381 349.994 693.053 348.88C699.725 347.766 705.956 344.744 711.032 340.16C708.33 336.772 706.019 332.194 704.482 326.081Z" fill="black"/>
<path d="M685.731 347.752C705.583 347.752 721.677 331.226 721.677 310.841C721.677 290.455 705.583 273.929 685.731 273.929C665.879 273.929 649.785 290.455 649.785 310.841C649.785 331.226 665.879 347.752 685.731 347.752Z" fill="#FDB797"/>
<path opacity="0.1" d="M695.203 303.742C693.671 304.333 692.033 304.573 690.402 304.446C684.046 304.404 677.693 304.169 671.342 303.742C666.541 303.411 661.397 302.826 657.686 299.664C652.693 295.438 651.904 287.43 654.483 281.317C657.062 275.204 662.323 270.697 667.878 267.232C671.016 265.199 674.414 263.625 677.974 262.555C688.262 259.682 699.674 263.21 707.857 270.253C716.039 277.296 721.258 287.466 724.022 298.058C724.976 301.72 726.203 306.087 729.736 307.214C727.383 311.228 721.642 311.869 717.527 309.855C711.451 306.89 708.337 295.537 702.884 293.748C696.801 291.741 700.34 301.319 695.203 303.742Z" fill="black"/>
<path d="M695.203 302.939C693.671 303.53 692.033 303.77 690.402 303.643C684.046 303.601 677.693 303.366 671.342 302.939C666.541 302.608 661.397 302.023 657.686 298.861C652.693 294.635 651.904 286.628 654.483 280.514C657.062 274.401 662.323 269.894 667.878 266.429C671.014 264.402 674.41 262.833 677.967 261.766C688.255 258.893 699.668 262.421 707.85 269.464C716.032 276.507 721.252 286.677 724.016 297.269C724.969 300.932 726.197 305.298 729.729 306.425C727.376 310.439 721.636 311.08 717.52 309.066C711.444 306.101 708.33 294.748 702.877 292.959C696.801 290.938 700.34 300.502 695.203 302.939Z" fill="black"/>
<path opacity="0.1" d="M649.394 446.042C661.114 442.826 673.195 441.206 685.326 441.224L649.394 446.042Z" fill="black"/>
<path opacity="0.1" d="M729.907 402.714C729.907 402.714 718.186 411.539 721.313 416.356L729.907 402.714Z" fill="black"/>
<g opacity="0.7">
<path opacity="0.7" d="M810.365 490.172H426.689V524.625H449.021V531.344V633H788.829V531.344V524.625H810.365V490.172Z" fill="url(#paint21_linear)"/>
</g>
<path d="M785.359 510.237H452.477V633.007H785.359V510.237Z" fill="#E0E0E0"/>
<path opacity="0.1" d="M785.359 516.653H452.477V535.908H785.359V516.653Z" fill="black"/>
<path d="M806.456 496.595H430.598V529.492H806.456V496.595Z" fill="#E0E0E0"/>
<path d="M551.899 488.496H488.924C486.462 488.496 484.466 490.545 484.466 493.073V494.348C484.466 496.876 486.462 498.926 488.924 498.926H551.899C554.361 498.926 556.357 496.876 556.357 494.348V493.073C556.357 490.545 554.361 488.496 551.899 488.496Z" fill="#535461"/>
<g opacity="0.7">
<path opacity="0.7" d="M687.548 372.198H547.578C536.889 372.198 528.223 381.096 528.223 392.073V479.185C528.223 490.162 536.889 499.06 547.578 499.06H687.548C698.238 499.06 706.903 490.162 706.903 479.185V392.073C706.903 381.096 698.238 372.198 687.548 372.198Z" fill="url(#paint22_linear)"/>
</g>
<path d="M682.261 374.536H549.814C539.648 374.536 531.406 382.999 531.406 393.439V480.15C531.406 490.59 539.648 499.053 549.814 499.053H682.261C692.427 499.053 700.669 490.59 700.669 480.15V393.439C700.669 382.999 692.427 374.536 682.261 374.536Z" fill="#3E3F49"/>
<path d="M684.606 374.536H552.16C541.993 374.536 533.752 382.999 533.752 393.439V480.15C533.752 490.59 541.993 499.053 552.16 499.053H684.606C694.773 499.053 703.014 490.59 703.014 480.15V393.439C703.014 382.999 694.773 374.536 684.606 374.536Z" fill="#535461"/>
<path d="M626.288 441.562C629.31 441.562 631.761 439.046 631.761 435.942C631.761 432.838 629.31 430.322 626.288 430.322C623.265 430.322 620.814 432.838 620.814 435.942C620.814 439.046 623.265 441.562 626.288 441.562Z" fill="#E0E0E0"/>
<path opacity="0.1" d="M402.464 512.638C402.464 512.638 407.087 519.604 420.797 521.738L402.464 512.638Z" fill="black"/>
<path opacity="0.2" d="M524.835 155.342H476.139V127.171H524.835V155.342ZM478.197 153.23H522.778V129.284H478.197V153.23Z" fill="black"/>
<path opacity="0.2" d="M573.531 155.342H524.835V127.171H573.531V155.342ZM526.893 153.23H571.474V129.284H526.893V153.23Z" fill="black"/>
<path opacity="0.2" d="M622.227 155.342H573.531V127.171H622.227V155.342ZM575.589 153.23H620.17V129.284H575.589V153.23Z" fill="black"/>
<path opacity="0.2" d="M670.923 155.342H622.227V127.171H670.923V155.342ZM624.285 153.23H668.866V129.284H624.285V153.23Z" fill="black"/>
<path opacity="0.2" d="M622.227 127.171H573.531V99H622.227V127.171ZM575.589 125.058H620.17V101.113H575.589V125.058Z" fill="black"/>
<path opacity="0.2" d="M573.531 127.171H524.835V99H573.531V127.171ZM526.893 125.058H571.474V101.113H526.893V125.058Z" fill="black"/>
<path opacity="0.2" d="M344.455 155.342H295.759V127.171H344.455V155.342ZM297.816 153.23H342.397V129.284H297.816V153.23Z" fill="black"/>
<path opacity="0.2" d="M393.15 155.342H344.455V127.171H393.15V155.342ZM346.512 153.23H391.093V129.284H346.512V153.23Z" fill="black"/>
<path opacity="0.2" d="M393.15 127.171H344.455V99H393.15V127.171ZM346.512 125.058H391.093V101.113H346.512V125.058Z" fill="black"/>
<path opacity="0.2" d="M769.687 155.342H720.991V127.171H769.687V155.342ZM723.048 153.23H767.629V129.284H723.048V153.23Z" fill="black"/>
<path opacity="0.2" d="M818.383 155.342H769.687V127.171H818.383V155.342ZM771.744 153.23H816.325V129.284H771.744V153.23Z" fill="black"/>
<path opacity="0.2" d="M818.383 127.171H769.687V99H818.383V127.171ZM771.744 125.058H816.325V101.113H771.744V125.058Z" fill="black"/>
</g>
<defs>
<linearGradient id="paint0_linear" x1="402.478" y1="575.862" x2="488.766" y2="575.862" gradientUnits="userSpaceOnUse">
<stop stop-color="#808080" stop-opacity="0.25"/>
<stop offset="0.54" stop-color="#808080" stop-opacity="0.12"/>
<stop offset="1" stop-color="#808080" stop-opacity="0.1"/>
</linearGradient>
<linearGradient id="paint1_linear" x1="48986.8" y1="115926" x2="69778.9" y2="115926" gradientUnits="userSpaceOnUse">
<stop stop-color="#808080" stop-opacity="0.25"/>
<stop offset="0.54" stop-color="#808080" stop-opacity="0.12"/>
<stop offset="1" stop-color="#808080" stop-opacity="0.1"/>
</linearGradient>
<linearGradient id="paint2_linear" x1="48986.8" y1="115472" x2="69778.9" y2="115472" gradientUnits="userSpaceOnUse">
<stop stop-color="#808080" stop-opacity="0.25"/>
<stop offset="0.54" stop-color="#808080" stop-opacity="0.12"/>
<stop offset="1" stop-color="#808080" stop-opacity="0.1"/>
</linearGradient>
<linearGradient id="paint3_linear" x1="27933.4" y1="32901" x2="33364.3" y2="32901" gradientUnits="userSpaceOnUse">
<stop stop-color="#808080" stop-opacity="0.25"/>
<stop offset="0.54" stop-color="#808080" stop-opacity="0.12"/>
<stop offset="1" stop-color="#808080" stop-opacity="0.1"/>
</linearGradient>
<linearGradient id="paint4_linear" x1="35338" y1="147806" x2="51449.9" y2="147806" gradientUnits="userSpaceOnUse">
<stop stop-color="#808080" stop-opacity="0.25"/>
<stop offset="0.54" stop-color="#808080" stop-opacity="0.12"/>
<stop offset="1" stop-color="#808080" stop-opacity="0.1"/>
</linearGradient>
<linearGradient id="paint5_linear" x1="35085" y1="147806" x2="51195.9" y2="147806" gradientUnits="userSpaceOnUse">
<stop stop-color="#808080" stop-opacity="0.25"/>
<stop offset="0.54" stop-color="#808080" stop-opacity="0.12"/>
<stop offset="1" stop-color="#808080" stop-opacity="0.1"/>
</linearGradient>
<linearGradient id="paint6_linear" x1="32185.8" y1="118383" x2="46097.3" y2="118383" gradientUnits="userSpaceOnUse">
<stop stop-color="#808080" stop-opacity="0.25"/>
<stop offset="0.54" stop-color="#808080" stop-opacity="0.12"/>
<stop offset="1" stop-color="#808080" stop-opacity="0.1"/>
</linearGradient>
<linearGradient id="paint7_linear" x1="54613.8" y1="107467" x2="70887.4" y2="107467" gradientUnits="userSpaceOnUse">
<stop stop-color="#808080" stop-opacity="0.25"/>
<stop offset="0.54" stop-color="#808080" stop-opacity="0.12"/>
<stop offset="1" stop-color="#808080" stop-opacity="0.1"/>
</linearGradient>
<linearGradient id="paint8_linear" x1="54863.3" y1="107467" x2="71135.9" y2="107467" gradientUnits="userSpaceOnUse">
<stop stop-color="#808080" stop-opacity="0.25"/>
<stop offset="0.54" stop-color="#808080" stop-opacity="0.12"/>
<stop offset="1" stop-color="#808080" stop-opacity="0.1"/>
</linearGradient>
<linearGradient id="paint9_linear" x1="9924.81" y1="22231.7" x2="11096.4" y2="22231.7" gradientUnits="userSpaceOnUse">
<stop stop-color="#808080" stop-opacity="0.25"/>
<stop offset="0.54" stop-color="#808080" stop-opacity="0.12"/>
<stop offset="1" stop-color="#808080" stop-opacity="0.1"/>
</linearGradient>
<linearGradient id="paint10_linear" x1="8393.31" y1="13784.6" x2="8950.01" y2="13784.6" gradientUnits="userSpaceOnUse">
<stop stop-color="#808080" stop-opacity="0.25"/>
<stop offset="0.54" stop-color="#808080" stop-opacity="0.12"/>
<stop offset="1" stop-color="#808080" stop-opacity="0.1"/>
</linearGradient>
<linearGradient id="paint11_linear" x1="4588.19" y1="30709" x2="4666.42" y2="30709" gradientUnits="userSpaceOnUse">
<stop stop-color="#808080" stop-opacity="0.25"/>
<stop offset="0.54" stop-color="#808080" stop-opacity="0.12"/>
<stop offset="1" stop-color="#808080" stop-opacity="0.1"/>
</linearGradient>
<linearGradient id="paint12_linear" x1="5365.41" y1="32388.4" x2="5610.44" y2="32388.4" gradientUnits="userSpaceOnUse">
<stop stop-color="#808080" stop-opacity="0.25"/>
<stop offset="0.54" stop-color="#808080" stop-opacity="0.12"/>
<stop offset="1" stop-color="#808080" stop-opacity="0.1"/>
</linearGradient>
<linearGradient id="paint13_linear" x1="15098.7" y1="13718.2" x2="17098.6" y2="13718.2" gradientUnits="userSpaceOnUse">
<stop stop-color="#808080" stop-opacity="0.25"/>
<stop offset="0.54" stop-color="#808080" stop-opacity="0.12"/>
<stop offset="1" stop-color="#808080" stop-opacity="0.1"/>
</linearGradient>
<linearGradient id="paint14_linear" x1="22389.9" y1="12701.7" x2="25609.4" y2="12701.7" gradientUnits="userSpaceOnUse">
<stop stop-color="#808080" stop-opacity="0.25"/>
<stop offset="0.54" stop-color="#808080" stop-opacity="0.12"/>
<stop offset="1" stop-color="#808080" stop-opacity="0.1"/>
</linearGradient>
<linearGradient id="paint15_linear" x1="27122.4" y1="19889.6" x2="35298.1" y2="19889.6" gradientUnits="userSpaceOnUse">
<stop stop-color="#808080" stop-opacity="0.25"/>
<stop offset="0.54" stop-color="#808080" stop-opacity="0.12"/>
<stop offset="1" stop-color="#808080" stop-opacity="0.1"/>
</linearGradient>
<linearGradient id="paint16_linear" x1="39498.1" y1="26132.8" x2="51188.2" y2="26132.8" gradientUnits="userSpaceOnUse">
<stop stop-color="#808080" stop-opacity="0.25"/>
<stop offset="0.54" stop-color="#808080" stop-opacity="0.12"/>
<stop offset="1" stop-color="#808080" stop-opacity="0.1"/>
</linearGradient>
<linearGradient id="paint17_linear" x1="39378.8" y1="26028.9" x2="51065.3" y2="26028.9" gradientUnits="userSpaceOnUse">
<stop stop-color="#808080" stop-opacity="0.25"/>
<stop offset="0.54" stop-color="#808080" stop-opacity="0.12"/>
<stop offset="1" stop-color="#808080" stop-opacity="0.1"/>
</linearGradient>
<linearGradient id="paint18_linear" x1="25037.4" y1="23194.8" x2="28713.3" y2="23194.8" gradientUnits="userSpaceOnUse">
<stop stop-color="#808080" stop-opacity="0.25"/>
<stop offset="0.54" stop-color="#808080" stop-opacity="0.12"/>
<stop offset="1" stop-color="#808080" stop-opacity="0.1"/>
</linearGradient>
<linearGradient id="paint19_linear" x1="25037.4" y1="23267" x2="28713.3" y2="23267" gradientUnits="userSpaceOnUse">
<stop stop-color="#808080" stop-opacity="0.25"/>
<stop offset="0.54" stop-color="#808080" stop-opacity="0.12"/>
<stop offset="1" stop-color="#808080" stop-opacity="0.1"/>
</linearGradient>
<linearGradient id="paint20_linear" x1="155357" y1="195021" x2="155357" y2="77747.8" gradientUnits="userSpaceOnUse">
<stop stop-color="#808080" stop-opacity="0.25"/>
<stop offset="0.54" stop-color="#808080" stop-opacity="0.12"/>
<stop offset="1" stop-color="#808080" stop-opacity="0.1"/>
</linearGradient>
<linearGradient id="paint21_linear" x1="222805" y1="108785" x2="222805" y2="79819.8" gradientUnits="userSpaceOnUse">
<stop stop-color="#808080" stop-opacity="0.25"/>
<stop offset="0.54" stop-color="#808080" stop-opacity="0.12"/>
<stop offset="1" stop-color="#808080" stop-opacity="0.1"/>
</linearGradient>
<linearGradient id="paint22_linear" x1="103841" y1="72435" x2="103841" y2="49583.3" gradientUnits="userSpaceOnUse">
<stop stop-color="#808080" stop-opacity="0.25"/>
<stop offset="0.54" stop-color="#808080" stop-opacity="0.12"/>
<stop offset="1" stop-color="#808080" stop-opacity="0.1"/>
</linearGradient>
<clipPath id="clip0">
<rect width="1121" height="814" fill="white"/>
</clipPath>
</defs>
</svg>
