<svg width="1121" height="814" viewBox="0 0 1121 814" fill="none" xmlns="http://www.w3.org/2000/svg">
<path d="M1032.19 197.872C905.025 24.7947 636.398 -45.4129 372.212 30.2023C232.545 70.1777 97.88 150.275 31.1433 305.368C-88.1557 582.614 162.327 671.16 326.116 699.38C405.316 713.026 479.908 735.948 548.071 767.156C670.703 823.304 887.769 873.056 1051.46 639.177C1170.09 469.662 1116.89 313.158 1032.19 197.872Z" fill="white"/>
<g clip-path="url(#clip0)">
<g opacity="0.1">
<path opacity="0.1" d="M774.796 565.743C784.52 565.743 792.403 556.149 792.403 544.313C792.403 532.478 784.52 522.883 774.796 522.883C765.073 522.883 757.19 532.478 757.19 544.313C757.19 556.149 765.073 565.743 774.796 565.743Z" fill="#0072A6"/>
<path opacity="0.1" d="M788.728 452.633C791.195 448.652 792.474 444.13 792.434 439.535C792.434 427.675 784.552 418.105 774.828 418.105C765.104 418.105 757.23 427.697 757.23 439.535C757.18 444.127 758.449 448.649 760.904 452.633C758.495 456.634 757.23 461.143 757.23 465.728C757.23 470.313 758.495 474.822 760.904 478.822C758.495 482.824 757.23 487.334 757.23 491.92C757.23 496.507 758.495 501.017 760.904 505.019C758.449 509.003 757.18 513.524 757.23 518.117C757.23 529.977 765.112 539.547 774.828 539.547C784.544 539.547 792.434 529.955 792.434 518.117C792.484 513.524 791.216 509.003 788.76 505.019C791.169 501.017 792.434 496.507 792.434 491.92C792.434 487.334 791.169 482.824 788.76 478.822C791.169 474.822 792.434 470.313 792.434 465.728C792.434 461.143 791.169 456.634 788.76 452.633H788.728Z" fill="#0072A6"/>
<path opacity="0.1" d="M774.796 434.776C784.52 434.776 792.403 425.182 792.403 413.346C792.403 401.511 784.52 391.916 774.796 391.916C765.073 391.916 757.19 401.511 757.19 413.346C757.19 425.182 765.073 434.776 774.796 434.776Z" fill="#0072A6"/>
<path opacity="0.1" d="M774.796 408.58C784.52 408.58 792.403 398.985 792.403 387.15C792.403 375.315 784.52 365.72 774.796 365.72C765.073 365.72 757.19 375.315 757.19 387.15C757.19 398.985 765.073 408.58 774.796 408.58Z" fill="#0072A6"/>
<path opacity="0.1" d="M840.694 207.897C843.097 205.048 845.286 202.049 847.246 198.92L801.018 191.856L851.048 192.205C855.842 182.493 858.457 171.974 858.731 161.291C859.005 150.608 856.933 139.985 852.642 130.072L785.516 162.435L847.429 120.139C841.627 110.826 833.826 102.724 824.512 96.3366C815.197 89.9491 804.569 85.4131 793.288 83.0109C782.008 80.6087 770.316 80.3917 758.941 82.3734C747.566 84.3552 736.752 88.4933 727.171 94.5301C717.59 100.567 709.448 108.373 703.251 117.463C697.054 126.553 692.935 136.732 691.151 147.366C689.366 158.001 689.955 168.863 692.879 179.276C695.803 189.69 701.001 199.432 708.149 207.897C704.403 212.329 701.18 217.123 698.537 222.196L758.577 251.209L694.56 231.195C690.055 243.549 688.935 256.753 691.301 269.611C693.667 282.469 699.444 294.575 708.109 304.832C698.326 316.399 692.241 330.293 690.548 344.925C688.856 359.557 691.624 374.337 698.537 387.575C705.451 400.812 716.23 411.974 729.642 419.782C743.054 427.591 758.558 431.732 774.382 431.732C790.205 431.732 805.709 427.591 819.122 419.782C832.534 411.974 843.313 400.812 850.226 387.575C857.139 374.337 859.908 359.557 858.215 344.925C856.523 330.293 850.437 316.399 840.654 304.832C852.345 291.011 858.7 273.936 858.7 256.35C858.7 238.765 852.345 221.689 840.654 207.868L840.694 207.897Z" fill="#F9A826"/>
<path opacity="0.1" d="M690.104 256.383C690.075 273.972 696.434 291.054 708.149 304.862C698.366 316.429 692.281 330.323 690.588 344.955C688.896 359.587 691.664 374.366 698.577 387.604C705.491 400.842 716.27 412.003 729.682 419.812C743.094 427.62 758.598 431.762 774.422 431.762C790.245 431.762 805.749 427.62 819.162 419.812C832.574 412.003 843.353 400.842 850.266 387.604C857.179 374.366 859.948 359.587 858.255 344.955C856.563 330.323 850.477 316.429 840.694 304.862C851.996 291.519 690.104 247.577 690.104 256.383Z" fill="#000102"/>
</g>
<g opacity="0.1">
<path opacity="0.1" d="M280.991 542.823C286.907 542.823 291.703 536.982 291.703 529.777C291.703 522.572 286.907 516.731 280.991 516.731C275.075 516.731 270.279 522.572 270.279 529.777C270.279 536.982 275.075 542.823 280.991 542.823Z" fill="#0072A6"/>
<path opacity="0.1" d="M289.511 473.967C291.007 471.541 291.78 468.788 291.751 465.991C291.751 458.786 286.969 452.945 281.031 452.945C275.093 452.945 270.319 458.786 270.319 465.991C270.288 468.787 271.058 471.54 272.551 473.967C271.088 476.404 270.32 479.148 270.32 481.939C270.32 484.73 271.088 487.475 272.551 489.912C271.088 492.348 270.32 495.093 270.32 497.884C270.32 500.675 271.088 503.419 272.551 505.856C271.057 508.28 270.287 511.031 270.319 513.825C270.319 521.037 275.101 526.878 281.031 526.878C286.961 526.878 291.751 521.037 291.751 513.825C291.781 511.03 291.008 508.279 289.511 505.856C290.979 503.421 291.749 500.676 291.749 497.884C291.749 495.092 290.979 492.347 289.511 489.912C290.979 487.476 291.749 484.731 291.749 481.939C291.749 479.148 290.979 476.402 289.511 473.967V473.967Z" fill="#0072A6"/>
<path opacity="0.1" d="M280.991 463.093C286.907 463.093 291.703 457.252 291.703 450.046C291.703 442.841 286.907 437 280.991 437C275.075 437 270.279 442.841 270.279 450.046C270.279 457.252 275.075 463.093 280.991 463.093Z" fill="#0072A6"/>
<path opacity="0.1" d="M280.991 447.148C286.907 447.148 291.703 441.307 291.703 434.102C291.703 426.896 286.907 421.055 280.991 421.055C275.075 421.055 270.279 426.896 270.279 434.102C270.279 441.307 275.075 447.148 280.991 447.148Z" fill="#0072A6"/>
<path opacity="0.1" d="M240.893 324.973C239.43 323.24 238.098 321.414 236.908 319.51L265.067 315.21L234.612 315.425C231.697 309.516 230.106 303.116 229.938 296.617C229.769 290.117 231.026 283.654 233.632 277.621L274.464 297.346L236.788 271.55C240.322 265.884 245.071 260.956 250.741 257.071C256.41 253.186 262.879 250.427 269.744 248.967C276.609 247.507 283.724 247.377 290.646 248.583C297.567 249.79 304.148 252.309 309.978 255.983C315.808 259.657 320.763 264.407 324.534 269.938C328.306 275.469 330.813 281.663 331.9 288.134C332.987 294.605 332.631 301.215 330.853 307.553C329.076 313.89 325.915 319.82 321.568 324.973C323.848 327.667 325.81 330.582 327.418 333.668L290.866 351.339L329.841 339.175C332.578 346.699 333.255 354.738 331.81 362.566C330.366 370.394 326.846 377.763 321.568 384.007C327.522 391.049 331.226 399.506 332.256 408.414C333.286 417.321 331.601 426.318 327.392 434.376C323.184 442.434 316.622 449.228 308.457 453.981C300.293 458.735 290.855 461.256 281.222 461.256C271.59 461.256 262.152 458.735 253.987 453.981C245.823 449.228 239.261 442.434 235.052 434.376C230.844 426.318 229.158 417.321 230.188 408.414C231.218 399.506 234.922 391.049 240.877 384.007C233.761 375.591 229.893 365.196 229.893 354.49C229.893 343.784 233.761 333.388 240.877 324.973H240.893Z" fill="#F9A826"/>
<path opacity="0.1" d="M332.551 354.49C332.568 365.198 328.698 375.599 321.568 384.007C327.522 391.049 331.226 399.506 332.256 408.414C333.286 417.321 331.601 426.318 327.392 434.376C323.184 442.434 316.622 449.228 308.457 453.981C300.293 458.735 290.855 461.256 281.222 461.256C271.59 461.256 262.152 458.735 253.987 453.981C245.823 449.228 239.261 442.434 235.052 434.376C230.844 426.318 229.158 417.321 230.188 408.414C231.218 399.506 234.922 391.049 240.877 384.007C233.999 375.92 332.551 349.13 332.551 354.49Z" fill="#000102"/>
</g>
<g opacity="0.1">
<path opacity="0.1" d="M522.49 554.179C530.409 554.179 536.828 546.364 536.828 536.722C536.828 527.081 530.409 519.266 522.49 519.266C514.571 519.266 508.151 527.081 508.151 536.722C508.151 546.364 514.571 554.179 522.49 554.179Z" fill="#0072A6"/>
<path opacity="0.1" d="M533.839 462.033C535.838 458.785 536.869 455.1 536.828 451.358C536.828 441.722 530.452 433.902 522.482 433.902C514.512 433.902 508.135 441.722 508.135 451.358C508.093 455.101 509.128 458.787 511.132 462.033C509.168 465.292 508.136 468.966 508.136 472.703C508.136 476.44 509.168 480.114 511.132 483.374C509.168 486.632 508.136 490.305 508.136 494.04C508.136 497.776 509.168 501.449 511.132 504.707C509.128 507.953 508.093 511.639 508.135 515.381C508.135 525.018 514.559 532.838 522.482 532.838C530.404 532.838 536.828 525.018 536.828 515.381C536.869 511.64 535.838 507.955 533.839 504.707C535.8 501.448 536.829 497.775 536.829 494.04C536.829 490.306 535.8 486.633 533.839 483.374C535.8 480.113 536.829 476.439 536.829 472.703C536.829 468.967 535.8 465.294 533.839 462.033V462.033Z" fill="#0072A6"/>
<path opacity="0.1" d="M522.49 447.482C530.409 447.482 536.828 439.666 536.828 430.025C536.828 420.384 530.409 412.568 522.49 412.568C514.571 412.568 508.151 420.384 508.151 430.025C508.151 439.666 514.571 447.482 522.49 447.482Z" fill="#0072A6"/>
<path opacity="0.1" d="M522.49 426.141C530.409 426.141 536.828 418.325 536.828 408.684C536.828 399.043 530.409 391.227 522.49 391.227C514.571 391.227 508.151 399.043 508.151 408.684C508.151 418.325 514.571 426.141 522.49 426.141Z" fill="#0072A6"/>
<path opacity="0.1" d="M468.842 262.655C466.882 260.336 465.098 257.894 463.502 255.346L501.177 249.593L460.433 249.875C456.524 241.964 454.391 233.395 454.165 224.691C453.939 215.987 455.624 207.331 459.118 199.254L513.794 225.628L463.367 191.159C468.078 183.545 474.427 176.916 482.017 171.686C489.608 166.457 498.276 162.74 507.481 160.767C516.686 158.794 526.229 158.608 535.515 160.22C544.801 161.832 553.629 165.208 561.449 170.137C569.268 175.066 575.91 181.442 580.961 188.866C586.011 196.29 589.361 204.603 590.801 213.286C592.241 221.968 591.74 230.834 589.329 239.328C586.919 247.823 582.65 255.764 576.791 262.655C579.842 266.266 582.466 270.173 584.618 274.307L535.713 297.939L587.862 281.631C591.525 291.698 592.431 302.456 590.498 312.931C588.565 323.405 583.854 333.267 576.791 341.622C584.76 351.045 589.716 362.363 591.095 374.282C592.473 386.202 590.217 398.241 584.585 409.025C578.953 419.808 570.172 428.9 559.246 435.261C548.321 441.622 535.691 444.995 522.801 444.995C509.911 444.995 497.281 441.622 486.355 435.261C475.429 428.9 466.648 419.808 461.016 409.025C455.384 398.241 453.129 386.202 454.507 374.282C455.885 362.363 460.842 351.045 468.81 341.622C459.289 330.36 454.114 316.449 454.114 302.123C454.114 287.797 459.289 273.887 468.81 262.625L468.842 262.655Z" fill="#F9A826"/>
<path opacity="0.1" d="M591.488 302.157C591.512 316.485 586.333 330.402 576.791 341.651C584.76 351.074 589.716 362.392 591.095 374.312C592.473 386.231 590.217 398.271 584.585 409.054C578.953 419.838 570.172 428.929 559.246 435.29C548.321 441.651 535.691 445.025 522.801 445.025C509.911 445.025 497.281 441.651 486.355 435.29C475.429 428.929 466.648 419.838 461.016 409.054C455.384 398.271 453.129 386.231 454.507 374.312C455.885 362.392 460.842 351.074 468.81 341.651C459.605 330.784 591.488 294.981 591.488 302.157Z" fill="#000102"/>
</g>
<path d="M1016 552.608C1016 557.7 975.973 562.355 909.796 565.951C897.761 566.595 884.865 567.211 871.188 567.789C859.371 568.283 846.985 568.75 834.031 569.19C821.481 569.605 808.449 569.99 794.937 570.346C752.264 571.48 705.088 572.296 654.971 572.703C642.809 572.807 630.484 572.886 617.997 572.941C604.99 572.995 591.834 573.02 578.529 573.015C336.918 573.015 141.065 563.89 141.065 552.63C141.065 541.37 336.918 532.245 578.529 532.245C682.548 532.245 778.072 533.943 853.152 536.76L861.361 537.071H861.409C955.984 540.799 1016 546.411 1016 552.608Z" fill="#0072A6"/>
<path opacity="0.15" d="M1016 552.608C1016 557.7 975.973 562.355 909.796 565.951C897.761 566.595 884.865 567.211 871.188 567.789C859.371 568.283 846.985 568.75 834.031 569.19C821.481 569.605 808.449 569.99 794.937 570.346C752.264 571.48 705.088 572.296 654.971 572.703C642.809 572.807 630.484 572.886 617.997 572.941C604.99 572.995 591.834 573.02 578.529 573.015C336.918 573.015 141.065 563.89 141.065 552.63C141.065 541.37 336.918 532.245 578.529 532.245C682.548 532.245 778.072 533.943 853.152 536.76L861.361 537.071H861.409C955.984 540.799 1016 546.411 1016 552.608Z" fill="#000102"/>
<path d="M979.935 549.02C979.935 553.275 939.908 557.174 873.731 560.139C861.704 560.68 848.8 561.192 835.131 561.673C823.308 562.089 810.923 562.479 797.974 562.845C785.423 563.191 772.392 563.514 758.88 563.816C716.199 564.765 669.023 565.447 618.906 565.788C606.754 565.872 594.429 565.936 581.932 565.98C568.925 566.025 555.771 566.047 542.471 566.047C300.861 566.047 105 558.419 105 548.998C105 539.576 300.861 531.949 542.471 531.949C646.483 531.949 742.007 533.365 817.086 535.722L825.296 535.981H825.351C919.958 539.146 979.935 543.809 979.935 549.02Z" fill="#0072A6"/>
<path d="M217.986 394.148L207.003 362.874L470.022 360.198L480.797 391.16L217.986 394.148Z" fill="#0072A6"/>
<path opacity="0.15" d="M217.986 394.148L207.003 362.874L470.022 360.198L480.797 391.16L217.986 394.148Z" fill="#000102"/>
<path d="M200.452 394.148L189.469 362.874L452.487 360.198L463.263 391.16L200.452 394.148Z" fill="#0072A6"/>
<path d="M649.456 346.091C622.262 346.091 600.83 336.052 585.16 315.974C569.49 295.895 561.656 271.572 561.656 243.004C561.656 214.242 569.233 189.968 584.387 170.182C599.541 150.395 620.917 140.511 648.516 140.531C677.782 140.531 699.833 150.956 714.669 171.805C729.504 192.654 736.924 216.785 736.93 244.197C736.93 271.411 729.252 295.201 713.896 315.566C698.54 335.931 677.06 346.106 649.456 346.091ZM650.253 323.505C668.144 323.505 681.515 316.253 690.367 301.749C699.22 287.245 703.646 268.96 703.646 246.895C703.646 222.335 699.116 202.224 690.056 186.564C680.997 170.903 667.102 163.07 648.372 163.065C612.772 163.065 594.971 189.366 594.971 241.966C594.971 296.33 613.393 323.51 650.237 323.505H650.253ZM659.212 539.799H619.878L877.381 144.556H915.973L659.212 539.799ZM887.017 543.853C859.414 543.853 837.894 533.723 822.458 513.462C807.023 493.2 799.273 468.874 799.209 440.484C799.209 411.916 806.733 387.738 821.781 367.951C836.829 348.164 858.258 338.281 886.069 338.301C915.128 338.301 937.025 348.725 951.76 369.575C966.494 390.424 973.864 414.552 973.869 441.959C973.869 468.996 966.242 492.741 950.987 513.195C935.732 533.649 914.403 543.868 887.001 543.853H887.017ZM887.48 520.689C905.285 520.689 918.585 513.56 927.379 499.303C936.173 485.046 940.57 466.836 940.57 444.672C940.57 420.952 936.119 401.059 927.219 384.993C918.319 368.927 904.454 360.882 885.623 360.857C849.815 360.857 831.911 387.157 831.911 439.758C831.9 493.717 850.418 520.694 887.464 520.689H887.48Z" fill="#0072A6"/>
<path d="M649.456 346.091C622.262 346.091 600.83 336.052 585.16 315.974C569.49 295.895 561.656 271.572 561.656 243.004C561.656 214.242 569.233 189.968 584.387 170.182C599.541 150.395 620.917 140.511 648.516 140.531C677.782 140.531 699.833 150.956 714.669 171.805C729.504 192.654 736.924 216.785 736.93 244.197C736.93 271.411 729.252 295.201 713.896 315.566C698.54 335.931 677.06 346.106 649.456 346.091ZM650.253 323.505C668.144 323.505 681.515 316.253 690.367 301.749C699.22 287.245 703.646 268.96 703.646 246.895C703.646 222.335 699.116 202.224 690.056 186.564C680.997 170.903 667.102 163.07 648.372 163.065C612.772 163.065 594.971 189.366 594.971 241.966C594.971 296.33 613.393 323.51 650.237 323.505H650.253ZM659.212 539.799H619.878L877.381 144.556H915.973L659.212 539.799ZM887.017 543.853C859.414 543.853 837.894 533.723 822.458 513.462C807.023 493.2 799.273 468.874 799.209 440.484C799.209 411.916 806.733 387.738 821.781 367.951C836.829 348.164 858.258 338.281 886.069 338.301C915.128 338.301 937.025 348.725 951.76 369.575C966.494 390.424 973.864 414.552 973.869 441.959C973.869 468.996 966.242 492.741 950.987 513.195C935.732 533.649 914.403 543.868 887.001 543.853H887.017ZM887.48 520.689C905.285 520.689 918.585 513.56 927.379 499.303C936.173 485.046 940.57 466.836 940.57 444.672C940.57 420.952 936.119 401.059 927.219 384.993C918.319 368.927 904.454 360.882 885.623 360.857C849.815 360.857 831.911 387.157 831.911 439.758C831.9 493.717 850.418 520.694 887.464 520.689H887.48Z" fill="#0072A6"/>
<path opacity="0.15" d="M649.456 346.091C622.262 346.091 600.83 336.052 585.16 315.974C569.49 295.895 561.656 271.572 561.656 243.004C561.656 214.242 569.233 189.968 584.387 170.182C599.541 150.395 620.917 140.511 648.516 140.531C677.782 140.531 699.833 150.956 714.669 171.805C729.504 192.654 736.924 216.785 736.93 244.197C736.93 271.411 729.252 295.201 713.896 315.566C698.54 335.931 677.06 346.106 649.456 346.091ZM650.253 323.505C668.144 323.505 681.515 316.253 690.367 301.749C699.22 287.245 703.646 268.96 703.646 246.895C703.646 222.335 699.116 202.224 690.056 186.564C680.997 170.903 667.102 163.07 648.372 163.065C612.772 163.065 594.971 189.366 594.971 241.966C594.971 296.33 613.393 323.51 650.237 323.505H650.253ZM659.212 539.799H619.878L877.381 144.556H915.973L659.212 539.799ZM887.017 543.853C859.414 543.853 837.894 533.723 822.458 513.462C807.023 493.2 799.273 468.874 799.209 440.484C799.209 411.916 806.733 387.738 821.781 367.951C836.829 348.164 858.258 338.281 886.069 338.301C915.128 338.301 937.025 348.725 951.76 369.575C966.494 390.424 973.864 414.552 973.869 441.959C973.869 468.996 966.242 492.741 950.987 513.195C935.732 533.649 914.403 543.868 887.001 543.853H887.017ZM887.48 520.689C905.285 520.689 918.585 513.56 927.379 499.303C936.173 485.046 940.57 466.836 940.57 444.672C940.57 420.952 936.119 401.059 927.219 384.993C918.319 368.927 904.454 360.882 885.623 360.857C849.815 360.857 831.911 387.157 831.911 439.758C831.9 493.717 850.418 520.694 887.464 520.689H887.48Z" fill="#000102"/>
<path d="M624.748 346.091C597.554 346.091 576.122 336.052 560.452 315.974C544.783 295.895 536.948 271.572 536.948 243.004C536.948 214.242 544.525 189.968 559.679 170.182C574.833 150.395 596.209 140.511 623.808 140.531C653.074 140.531 675.126 150.956 689.961 171.805C704.796 192.654 712.216 216.785 712.222 244.197C712.222 271.411 704.544 295.201 689.188 315.566C673.832 335.931 652.352 346.106 624.748 346.091ZM625.545 323.505C643.436 323.505 656.807 316.253 665.66 301.749C674.512 287.245 678.938 268.96 678.938 246.895C678.938 222.335 674.408 202.224 665.349 186.564C656.289 170.903 642.394 163.07 623.664 163.065C588.064 163.065 570.264 189.366 570.264 241.966C570.264 296.33 588.685 323.51 625.529 323.505H625.545ZM634.504 539.799H595.171L852.674 144.556H891.266L634.504 539.799ZM862.31 543.853C834.706 543.853 813.186 533.723 797.751 513.462C782.315 493.2 774.565 468.874 774.501 440.484C774.501 411.916 782.025 387.738 797.073 367.951C812.121 348.164 833.55 338.281 861.361 338.301C890.421 338.301 912.318 348.725 927.052 369.575C941.786 390.424 949.156 414.552 949.161 441.959C949.161 468.996 941.534 492.741 926.279 513.195C911.024 533.649 889.695 543.868 862.294 543.853H862.31ZM862.772 520.689C880.577 520.689 893.877 513.56 902.671 499.303C911.465 485.046 915.862 466.836 915.862 444.672C915.862 420.952 911.412 401.059 902.512 384.993C893.611 368.927 879.741 360.882 860.899 360.857C825.091 360.857 807.187 387.157 807.187 439.758C807.187 493.717 825.71 520.694 862.756 520.689H862.772Z" fill="#0072A6"/>
<path d="M710.795 549.717C714.079 544.054 710.349 537.115 706.061 532.06C701.773 527.005 696.544 521.756 696.656 515.315C696.815 506.071 707.368 500.608 715.784 495.701C722.044 492.064 727.818 487.749 732.984 482.847C735.148 480.959 736.937 478.731 738.269 476.265C740.014 472.648 739.958 468.533 739.863 464.575C739.496 451.371 738.795 438.186 737.758 425.021" stroke="#0072A6" stroke-width="4" stroke-miterlimit="10"/>
<path d="M753.795 424.295C753.675 421.879 752.903 419.531 751.55 417.466C750.198 415.401 748.308 413.686 746.055 412.479L742.58 418.869L742.684 411.13C741.026 410.679 739.3 410.487 737.575 410.559C734.511 410.693 731.558 411.668 729.09 413.363C726.622 415.057 724.75 417.394 723.71 420.078C722.67 422.762 722.509 425.672 723.247 428.441C723.986 431.21 725.591 433.713 727.859 435.634C730.127 437.555 732.957 438.807 735.99 439.232C739.023 439.657 742.124 439.236 744.9 438.023C747.676 436.809 750.003 434.857 751.586 432.413C753.169 429.97 753.938 427.145 753.795 424.295V424.295Z" fill="#F9A826"/>
<path d="M726.138 521.949C724.51 524.89 721.845 527.221 718.589 528.551C715.333 529.882 711.685 530.13 708.255 529.256C704.825 528.381 701.823 526.436 699.752 523.748C697.681 521.059 696.667 517.79 696.88 514.488C697.093 511.186 698.52 508.053 700.922 505.614C703.323 503.175 706.554 501.578 710.071 501.091C713.589 500.604 717.18 501.256 720.241 502.939C723.303 504.622 725.649 507.233 726.887 510.333L717.195 517.665L727.875 515.352C727.871 517.648 727.275 519.911 726.138 521.949V521.949Z" fill="#F9A826"/>
<path d="M718.478 493.922C716.444 494.011 714.41 493.726 712.494 493.083C710.577 492.441 708.816 491.454 707.31 490.178C705.804 488.903 704.582 487.364 703.716 485.65C702.849 483.935 702.354 482.079 702.259 480.186C702.138 477.927 702.597 475.673 703.598 473.611C704.524 471.684 705.894 469.969 707.61 468.588C709.325 467.206 711.346 466.19 713.529 465.613L713.441 471.543L716.956 465.079C721.065 464.9 725.083 466.247 728.125 468.823C731.166 471.399 732.983 474.993 733.176 478.815C733.368 482.637 731.92 486.373 729.15 489.202C726.381 492.031 722.516 493.721 718.407 493.9L718.478 493.922Z" fill="#F9A826"/>
<path d="M756.13 470.624C754.071 470.751 752.006 470.495 750.054 469.871C748.103 469.247 746.305 468.267 744.766 466.989C743.227 465.711 741.978 464.16 741.091 462.427C740.204 460.695 739.697 458.815 739.601 456.898C739.504 454.981 739.82 453.065 740.529 451.263C741.238 449.461 742.326 447.808 743.73 446.402C745.134 444.996 746.826 443.864 748.706 443.073C750.586 442.283 752.617 441.848 754.679 441.796C757.578 441.665 760.457 442.3 762.984 443.627L760.242 450.61L765.885 445.576C768.914 448.144 770.723 451.725 770.915 455.532C770.985 456.867 770.851 458.205 770.516 459.505C769.745 462.561 767.923 465.3 765.327 467.307C762.731 469.313 759.502 470.478 756.13 470.624V470.624Z" fill="#F9A826"/>
<path opacity="0.1" d="M751.706 428.142C748.128 428.505 744.653 429.543 741.058 429.75C737.464 429.958 733.518 429.157 731.247 426.556C730.019 425.162 729.414 423.39 728.378 421.863C727.399 420.442 726.057 419.268 724.472 418.446C723.476 420.275 722.911 422.279 722.814 424.327C722.717 426.374 723.09 428.418 723.908 430.321C724.727 432.224 725.972 433.942 727.56 435.363C729.149 436.783 731.045 437.872 733.122 438.558C735.199 439.243 737.409 439.509 739.605 439.338C741.801 439.167 743.932 438.562 745.857 437.565C747.783 436.567 749.457 435.2 750.769 433.553C752.082 431.907 753.001 430.019 753.468 428.016C752.878 428.046 752.296 428.083 751.706 428.142Z" fill="#000102"/>
<path opacity="0.1" d="M756.13 470.624C753.457 470.737 750.798 470.206 748.411 469.082C746.024 467.959 743.99 466.28 742.505 464.21C741.021 462.139 740.137 459.748 739.939 457.266C739.742 454.784 740.237 452.297 741.377 450.046C742.606 450.821 743.664 451.807 744.493 452.952C745.601 454.501 746.271 456.295 747.57 457.718C749.961 460.365 754.113 461.225 757.851 461.069C761.589 460.913 765.208 459.92 768.938 459.586C769.456 459.542 769.982 459.512 770.532 459.497C769.762 462.558 767.938 465.3 765.338 467.308C762.739 469.317 759.506 470.481 756.13 470.624V470.624Z" fill="#000102"/>
<path opacity="0.1" d="M718.478 493.922C716.444 494.011 714.41 493.726 712.494 493.083C710.577 492.441 708.816 491.454 707.31 490.178C705.804 488.903 704.582 487.364 703.716 485.65C702.849 483.935 702.354 482.079 702.259 480.186C702.138 477.927 702.597 475.673 703.598 473.611C704.877 474.404 705.987 475.409 706.874 476.576C708.077 478.155 708.834 479.979 710.245 481.439C712.859 484.145 717.259 485.101 721.22 485.012C725.181 484.923 728.76 484.063 732.578 483.789C731.632 486.62 729.77 489.112 727.248 490.925C724.725 492.738 721.663 493.784 718.478 493.922V493.922Z" fill="#000102"/>
<path opacity="0.1" d="M726.138 521.949C724.333 525.248 721.234 527.775 717.481 529.008C713.729 530.241 709.611 530.086 705.978 528.574C702.346 527.062 699.477 524.309 697.966 520.885C696.455 517.461 696.417 513.627 697.859 510.178C699.136 510.959 700.283 511.911 701.263 513.002C702.737 514.677 703.71 516.575 705.415 518.132C708.603 521.022 713.704 522.216 718.263 522.327C720.894 522.347 723.523 522.221 726.138 521.949V521.949Z" fill="#000102"/>
<path d="M950.7 548.976C953.983 543.312 950.253 536.374 945.965 531.319C941.677 526.263 936.449 521.015 936.56 514.573C936.72 505.33 947.272 499.867 955.689 494.96C961.949 491.323 967.722 487.008 972.889 482.106C975.052 480.218 976.841 477.989 978.173 475.524C979.919 471.906 979.863 467.792 979.767 463.834C979.401 450.629 978.699 437.445 977.663 424.28" stroke="#0072A6" stroke-width="4" stroke-miterlimit="10"/>
<path d="M993.699 423.554C993.579 421.138 992.808 418.79 991.455 416.725C990.103 414.66 988.213 412.945 985.96 411.738L982.485 418.127L982.589 410.389C980.931 409.938 979.205 409.745 977.48 409.818C974.416 409.951 971.463 410.927 968.995 412.621C966.527 414.316 964.655 416.653 963.615 419.336C962.575 422.02 962.414 424.931 963.152 427.7C963.891 430.469 965.495 432.972 967.764 434.893C970.032 436.814 972.861 438.066 975.895 438.491C978.928 438.916 982.029 438.495 984.805 437.282C987.581 436.068 989.907 434.116 991.491 431.672C993.074 429.229 993.842 426.403 993.699 423.554V423.554Z" fill="#F9A826"/>
<path d="M966.042 521.208C964.415 524.149 961.75 526.48 958.494 527.81C955.238 529.14 951.589 529.389 948.159 528.515C944.73 527.64 941.728 525.695 939.657 523.006C937.586 520.318 936.571 517.048 936.784 513.747C936.997 510.445 938.424 507.312 940.826 504.873C943.228 502.434 946.459 500.837 949.976 500.35C953.494 499.863 957.084 500.515 960.146 502.198C963.207 503.881 965.554 506.491 966.792 509.592L957.1 516.923L967.78 514.611C967.776 516.907 967.18 519.169 966.042 521.208V521.208Z" fill="#F9A826"/>
<path d="M958.383 493.181C956.348 493.269 954.315 492.984 952.398 492.342C950.482 491.7 948.72 490.713 947.214 489.437C945.708 488.162 944.487 486.623 943.62 484.908C942.754 483.194 942.259 481.337 942.164 479.445C942.043 477.185 942.502 474.932 943.503 472.87C944.429 470.943 945.798 469.228 947.514 467.846C949.23 466.464 951.25 465.449 953.434 464.872L953.346 470.802L956.861 464.338H956.901C958.935 464.249 960.969 464.534 962.885 465.177C964.801 465.819 966.563 466.806 968.069 468.082C969.575 469.357 970.796 470.896 971.663 472.61C972.53 474.325 973.025 476.181 973.12 478.074C973.215 479.966 972.909 481.857 972.218 483.639C971.528 485.422 970.466 487.06 969.095 488.461C967.723 489.861 966.069 490.997 964.225 491.803C962.382 492.609 960.386 493.07 958.351 493.158L958.383 493.181Z" fill="#F9A826"/>
<path d="M996.035 469.883C993.976 470.01 991.91 469.754 989.959 469.13C988.008 468.505 986.21 467.526 984.671 466.247C983.132 464.969 981.882 463.419 980.995 461.686C980.108 459.953 979.602 458.073 979.505 456.157C979.409 454.24 979.724 452.324 980.433 450.522C981.143 448.72 982.231 447.067 983.635 445.661C985.039 444.255 986.731 443.123 988.611 442.332C990.491 441.541 992.521 441.107 994.584 441.055C997.483 440.923 1000.36 441.558 1002.89 442.886L1000.15 449.868L1005.79 444.835C1008.82 447.403 1010.63 450.983 1010.82 454.79C1010.89 456.126 1010.76 457.464 1010.42 458.764C1009.65 461.82 1007.83 464.559 1005.23 466.566C1002.64 468.572 999.406 469.737 996.035 469.883V469.883Z" fill="#F9A826"/>
<path opacity="0.1" d="M991.611 427.401C988.032 427.764 984.557 428.802 980.963 429.009C977.368 429.217 973.423 428.416 971.151 425.814C969.924 424.421 969.318 422.649 968.282 421.122C967.304 419.701 965.962 418.527 964.377 417.705C963.381 419.533 962.816 421.538 962.719 423.586C962.621 425.633 962.994 427.676 963.813 429.579C964.631 431.482 965.876 433.201 967.465 434.622C969.054 436.042 970.95 437.131 973.027 437.816C975.103 438.502 977.313 438.768 979.509 438.597C981.705 438.425 983.837 437.821 985.762 436.823C987.687 435.826 989.362 434.458 990.674 432.812C991.986 431.165 992.906 429.278 993.372 427.275C992.783 427.304 992.201 427.341 991.611 427.401Z" fill="#000102"/>
<path opacity="0.1" d="M996.035 469.883C993.362 469.996 990.703 469.465 988.316 468.341C985.929 467.217 983.894 465.539 982.41 463.469C980.926 461.398 980.042 459.006 979.844 456.525C979.646 454.043 980.142 451.556 981.282 449.305C982.51 450.08 983.568 451.066 984.398 452.211C985.506 453.76 986.175 455.554 987.474 456.977C989.866 459.623 994.018 460.483 997.756 460.328C1001.49 460.172 1005.11 459.179 1008.84 458.845C1009.36 458.801 1009.89 458.771 1010.44 458.756C1009.67 461.816 1007.84 464.559 1005.24 466.567C1002.64 468.575 999.41 469.739 996.035 469.883V469.883Z" fill="#000102"/>
<path opacity="0.1" d="M958.383 493.181C956.348 493.269 954.315 492.984 952.398 492.342C950.482 491.7 948.72 490.713 947.214 489.437C945.708 488.162 944.487 486.623 943.62 484.908C942.754 483.194 942.259 481.337 942.164 479.445C942.043 477.185 942.502 474.932 943.503 472.87C944.781 473.662 945.892 474.667 946.778 475.835C947.982 477.414 948.739 479.237 950.15 480.698C952.764 483.403 957.164 484.359 961.125 484.271C964.966 484.196 968.665 483.322 972.482 483.047C971.536 485.879 969.675 488.371 967.152 490.184C964.63 491.997 961.568 493.043 958.383 493.181V493.181Z" fill="#000102"/>
<path opacity="0.1" d="M966.042 521.208C964.238 524.507 961.138 527.034 957.386 528.267C953.634 529.5 949.515 529.345 945.883 527.832C942.25 526.32 939.382 523.568 937.871 520.143C936.359 516.719 936.321 512.886 937.764 509.437C939.041 510.218 940.188 511.17 941.167 512.261C942.642 513.936 943.614 515.834 945.32 517.39C948.508 520.281 953.609 521.475 958.168 521.586C960.798 521.606 963.428 521.48 966.042 521.208V521.208Z" fill="#000102"/>
<path d="M192.617 539.339C189.333 533.676 193.063 526.738 197.351 521.682C201.639 516.627 206.868 511.379 206.756 504.937C206.597 495.693 196.044 490.23 187.628 485.323C181.368 481.686 175.594 477.372 170.428 472.47C168.264 470.581 166.475 468.353 165.144 465.887C163.398 462.27 163.454 458.156 163.549 454.197C163.916 440.993 164.617 427.808 165.654 414.643" stroke="#0072A6" stroke-width="4" stroke-miterlimit="10"/>
<path d="M149.618 413.917C149.737 411.502 150.509 409.153 151.862 407.088C153.214 405.023 155.104 403.308 157.357 402.101L160.832 408.491L160.728 400.752C162.386 400.302 164.112 400.109 165.837 400.181C168.901 400.315 171.854 401.291 174.322 402.985C176.79 404.679 178.662 407.016 179.702 409.7C180.742 412.384 180.903 415.294 180.165 418.063C179.426 420.832 177.821 423.336 175.553 425.256C173.285 427.177 170.455 428.429 167.422 428.855C164.389 429.28 161.288 428.859 158.512 427.645C155.736 426.431 153.409 424.479 151.826 422.036C150.243 419.592 149.474 416.767 149.618 413.917V413.917Z" fill="#F9A826"/>
<path d="M177.274 511.571C178.902 514.512 181.567 516.843 184.823 518.174C188.079 519.504 191.728 519.753 195.157 518.878C198.587 518.003 201.589 516.059 203.66 513.37C205.731 510.681 206.745 507.412 206.532 504.11C206.319 500.809 204.892 497.676 202.491 495.236C200.089 492.797 196.858 491.2 193.341 490.713C189.823 490.226 186.232 490.879 183.171 492.562C180.109 494.244 177.763 496.855 176.525 499.956L186.217 507.287L175.537 504.974C175.541 507.271 176.137 509.533 177.274 511.571V511.571Z" fill="#F9A826"/>
<path d="M184.934 483.544C186.968 483.633 189.002 483.348 190.918 482.706C192.835 482.063 194.596 481.076 196.102 479.801C197.609 478.525 198.83 476.986 199.696 475.272C200.563 473.557 201.058 471.701 201.153 469.808C201.274 467.549 200.815 465.295 199.814 463.233C198.888 461.306 197.518 459.592 195.803 458.21C194.087 456.828 192.066 455.813 189.883 455.235L189.971 461.165L186.456 454.701C182.347 454.523 178.329 455.869 175.288 458.445C172.246 461.021 170.429 464.615 170.237 468.437C170.044 472.259 171.492 475.995 174.262 478.824C177.032 481.653 180.896 483.343 185.005 483.522L184.934 483.544Z" fill="#F9A826"/>
<path d="M147.282 460.246C149.341 460.373 151.407 460.117 153.358 459.493C155.309 458.869 157.107 457.889 158.646 456.611C160.185 455.333 161.435 453.782 162.322 452.05C163.209 450.317 163.715 448.437 163.812 446.52C163.908 444.603 163.592 442.688 162.883 440.885C162.174 439.083 161.086 437.431 159.682 436.025C158.278 434.618 156.586 433.487 154.706 432.696C152.826 431.905 150.795 431.471 148.733 431.418C145.847 431.294 142.983 431.929 140.468 433.249L143.209 440.232L137.527 435.221C134.504 437.783 132.695 441.355 132.497 445.154C132.427 446.489 132.561 447.827 132.896 449.127C133.667 452.184 135.489 454.923 138.085 456.929C140.681 458.936 143.91 460.1 147.282 460.246Z" fill="#F9A826"/>
<path opacity="0.1" d="M151.706 417.764C155.284 418.127 158.759 419.165 162.354 419.373C165.949 419.58 169.894 418.78 172.165 416.178C173.393 414.784 173.999 413.013 175.035 411.486C176.013 410.064 177.355 408.89 178.94 408.068C179.936 409.897 180.501 411.902 180.598 413.949C180.695 415.997 180.322 418.04 179.504 419.943C178.685 421.846 177.44 423.565 175.852 424.985C174.263 426.405 172.367 427.495 170.29 428.18C168.213 428.865 166.003 429.131 163.807 428.96C161.611 428.789 159.48 428.184 157.555 427.187C155.63 426.19 153.955 424.822 152.643 423.176C151.331 421.529 150.411 419.641 149.944 417.638C150.534 417.668 151.116 417.705 151.706 417.764Z" fill="#000102"/>
<path opacity="0.1" d="M147.282 460.246C149.955 460.359 152.614 459.828 155.001 458.705C157.388 457.581 159.422 455.902 160.907 453.832C162.391 451.762 163.275 449.37 163.473 446.888C163.67 444.407 163.175 441.92 162.035 439.669C160.806 440.443 159.748 441.43 158.919 442.574C157.811 444.124 157.141 445.917 155.842 447.341C153.451 449.987 149.299 450.847 145.561 450.691C141.823 450.536 138.204 449.542 134.474 449.209C133.956 449.164 133.43 449.135 132.88 449.12C133.651 452.18 135.474 454.922 138.074 456.931C140.673 458.939 143.906 460.103 147.282 460.246V460.246Z" fill="#000102"/>
<path opacity="0.1" d="M184.934 483.544C186.968 483.633 189.002 483.348 190.918 482.706C192.835 482.063 194.596 481.076 196.102 479.801C197.609 478.525 198.83 476.986 199.696 475.272C200.563 473.557 201.058 471.701 201.153 469.808C201.274 467.549 200.815 465.295 199.814 463.233C198.535 464.026 197.425 465.031 196.538 466.198C195.335 467.777 194.578 469.601 193.167 471.061C190.553 473.767 186.153 474.723 182.192 474.634C178.35 474.56 174.652 473.685 170.834 473.411C171.781 476.243 173.642 478.734 176.164 480.547C178.687 482.36 181.749 483.407 184.934 483.544V483.544Z" fill="#000102"/>
<path opacity="0.1" d="M177.274 511.571C179.079 514.87 182.178 517.398 185.931 518.631C189.683 519.864 193.801 519.708 197.434 518.196C201.066 516.684 203.935 513.931 205.446 510.507C206.957 507.083 206.996 503.25 205.553 499.8C204.276 500.582 203.129 501.533 202.149 502.624C200.675 504.3 199.703 506.197 197.997 507.754C194.809 510.645 189.708 511.838 185.149 511.949C182.518 511.969 179.889 511.843 177.274 511.571V511.571Z" fill="#000102"/>
<path d="M641.797 469.875C641.812 468.078 641.374 466.303 640.518 464.691C639.663 463.079 638.414 461.676 636.871 460.595C636.68 453.797 631.467 448.245 624.764 447.385C624.246 445.076 623.084 442.934 621.394 441.175C619.704 439.415 617.546 438.101 615.136 437.363V437.363C614.55 437.191 613.95 437.059 613.343 436.97H613.167L612.857 436.933H612.594H612.331H611.988H611.781H611.215C604.376 436.933 598.686 441.796 597.514 448.208C593.09 447.259 589.034 448.49 588.308 451.091C588.121 451.781 588.163 452.507 588.428 453.174C589.177 455.191 591.616 457.118 594.924 458.074L595.354 458.193C595.569 458.252 595.784 458.297 596 458.341H596.143C594.927 460.752 594.754 463.506 595.661 466.033C596.567 468.559 598.484 470.665 601.013 471.914C600.913 471.964 600.817 472.021 600.726 472.084C600.317 472.433 599.992 472.857 599.769 473.329C598.97 474.634 598.349 476.026 597.92 477.473C597.602 478.711 597.546 480.008 597.123 481.231C596.398 483.455 594.533 485.405 594.318 487.769C594.222 488.822 594.406 490.06 593.601 490.779C593.4 490.939 593.187 491.086 592.963 491.216C592.399 491.575 591.921 492.04 591.56 492.58C591.325 493.027 591.01 493.433 590.628 493.781C589.902 494.292 588.707 494.241 588.348 495.026C587.989 495.812 588.914 496.739 588.699 497.599C588.523 498.295 587.703 498.614 587.105 499.081C586.436 499.755 585.969 500.581 585.75 501.475C584.559 501.689 583.332 501.655 582.157 501.377C580.982 501.099 579.887 500.584 578.951 499.867C579.272 500.63 579.507 501.423 579.653 502.231C578.704 501.29 577.142 501.016 575.986 500.526C574.496 499.891 573.165 498.972 572.081 497.828L574.169 497.561L564.924 484.515L562.198 483.996L564.645 488.362C564.444 488.452 564.269 488.582 564.13 488.744C563.992 488.906 563.896 489.095 563.848 489.296C563.716 489.781 563.683 490.283 563.752 490.779C563.881 491.949 564.092 493.11 564.382 494.255L565.091 497.324C565.151 497.612 565.228 497.897 565.322 498.177C564.398 498.146 563.474 498.243 562.58 498.466C560.748 497.835 558.839 497.415 556.897 497.213C556.47 497.143 556.032 497.164 555.614 497.272C555.14 497.476 554.729 497.787 554.419 498.177C552.825 499.891 551.41 501.742 550.194 503.707C545.229 511.742 538.598 518.754 532.389 526.019C528.101 527.642 523.781 529.184 519.453 530.711L510.152 534.009C508.295 534.669 506.366 535.344 504.389 535.225C503.497 535.173 502.413 535.047 501.911 535.751C501.666 536.1 501.476 536.48 501.345 536.878C501.018 536.878 500.691 536.952 500.388 536.967H500.333C499.743 535.603 499.233 534.143 498.101 533.15C497.873 533.182 497.658 533.267 497.474 533.396C497.29 533.526 497.144 533.696 497.049 533.891C496.826 534.276 496.69 534.699 496.435 535.055C495.933 535.737 495.064 536.07 494.443 536.648C493.821 537.227 493.43 538.131 492.761 538.694C491.823 539.328 490.725 539.724 489.573 539.843C487.847 540.221 486.183 540.809 484.623 541.593C484.048 541.922 483.433 542.185 482.79 542.378C482.083 542.504 481.36 542.527 480.646 542.445L475.72 542.111C475.282 542.058 474.837 542.076 474.405 542.163C473.898 542.336 473.466 542.661 473.178 543.086C472.89 543.511 472.761 544.013 472.811 544.513C472.871 545.01 473.04 545.49 473.308 545.923C473.575 546.357 473.935 546.735 474.365 547.034C475.221 547.617 476.167 548.074 477.171 548.39C481.451 549.932 485.864 551.134 490.362 551.985V552.912C493.48 554.372 496.921 555.134 500.412 555.136C500.67 555.154 500.928 555.111 501.161 555.009C501.484 554.784 501.708 554.458 501.791 554.09C502.836 551.183 503.497 548.169 503.76 545.114C504.375 545.077 504.978 544.933 505.537 544.691C507.235 544.261 508.917 545.343 510.662 545.521C512.814 545.736 514.815 544.572 516.847 543.853C517.142 543.75 517.437 543.661 517.732 543.572C517.152 544.269 516.467 544.886 515.699 545.403C514.854 545.966 513.906 546.381 513.077 546.967C512.388 547.552 511.65 548.085 510.869 548.561C510.319 548.799 509.752 549.002 509.172 549.168C508.33 549.454 507.528 549.829 506.78 550.288C506.111 550.655 505.543 551.162 505.123 551.77C504.911 552.054 504.781 552.383 504.745 552.727C504.708 553.071 504.767 553.417 504.916 553.734C505.065 554.051 505.298 554.326 505.593 554.535C505.889 554.744 506.237 554.88 506.605 554.928C507.271 555.038 507.95 555.055 508.622 554.98C511.284 554.795 513.938 554.565 516.592 554.342C517.716 554.273 518.832 554.124 519.931 553.898C520.513 553.764 521.087 553.586 521.669 553.445C522.662 553.202 523.68 553.06 524.706 553.023C525.003 553.001 525.303 553.029 525.59 553.104C526.212 553.29 526.65 553.846 527.28 553.994C527.689 554.031 528.101 553.978 528.484 553.838C530.426 553.446 532.409 553.25 534.397 553.253C535.266 553.208 536.286 553.053 536.693 552.304C537.187 551.377 536.358 550.34 536.031 549.339C535.865 548.703 535.774 548.051 535.76 547.397C535.609 545.782 535.11 544.211 534.294 542.779C533.86 542.11 533.494 541.405 533.202 540.673C537.011 539.326 540.655 537.607 544.073 535.544C546.034 534.41 548.058 533.187 550.274 532.772C552.857 532.29 555.519 532.927 558.061 533.609C564.117 535.239 570.074 537.171 575.907 539.398C578.696 540.458 581.486 541.585 584.339 542.364C585.173 543.41 586.182 544.326 587.328 545.077C589.241 546.226 591.576 546.559 593.824 546.722C596.86 546.98 599.909 547.087 602.958 547.041C605.285 547.004 607.684 546.856 609.764 545.87C610.272 545.627 610.751 545.334 611.191 544.995C612.785 545.262 614.419 544.469 615.67 543.453C617.326 542.143 618.52 540.399 619.097 538.45C619.831 535.774 619.265 532.653 621.034 530.466C621.504 529.881 622.118 529.406 622.58 528.813C623.15 528.019 623.429 527.076 623.377 526.122L623.457 526.011C623.858 525.151 624.126 524.243 624.254 523.313C624.464 522.587 624.73 521.876 625.051 521.186C625.95 519.117 626.732 517.007 627.394 514.863C627.855 513.44 628.217 511.992 628.478 510.526C628.67 509.355 628.781 508.176 628.885 506.998C629.013 505.153 629.399 503.331 630.033 501.579C631.606 497.397 632.495 493.019 632.671 488.592C632.671 488.503 632.671 488.422 632.671 488.333C634.985 488.097 637.121 487.066 638.661 485.443C640.201 483.82 641.035 481.721 641 479.556C641.002 478.251 640.708 476.961 640.139 475.768C641.239 473.973 641.81 471.941 641.797 469.875V469.875ZM596.725 520.808C596.86 521.26 597.02 521.712 597.179 522.164C596.446 521.489 595.721 520.793 594.979 520.126C595.274 520.207 595.569 520.296 595.856 520.392C596.162 520.505 596.455 520.644 596.733 520.808H596.725ZM593.154 518.584C588.802 515.07 583.765 512.342 579.31 508.947C581.701 510.067 584.092 511.364 586.483 512.609C589.267 514.092 592.084 515.51 594.932 516.864C594.464 517.523 593.87 518.096 593.178 518.554L593.154 518.584ZM595.011 509.733L595.218 509.533C595.218 510.03 595.218 510.497 595.218 510.919C594.828 510.8 594.421 510.682 594.047 510.548C594.391 510.287 594.716 510.005 595.019 509.703L595.011 509.733ZM556.698 519.251C558.49 517.366 560.049 515.3 561.345 513.091C563.066 515.9 565.872 517.924 568.263 520.274C564.421 519.77 560.572 519.377 556.706 519.221L556.698 519.251Z" fill="url(#paint0_linear)"/>
<path d="M562.915 485.079L565.665 485.597L575.03 498.466L570.893 498.985L562.915 485.079Z" fill="#2F2E41"/>
<path d="M496.323 537.308C497.065 539.589 497.978 541.818 499.057 543.979C502.16 543.376 505.213 542.566 508.191 541.556C507.615 540.72 506.981 539.921 506.294 539.161C505.562 538.404 504.687 537.779 503.712 537.316C502.763 536.93 501.592 537.219 500.58 537.271C499.161 537.32 497.742 537.333 496.323 537.308Z" fill="#FBBEBE"/>
<path d="M503.728 540.748C502.182 540.295 501.233 538.843 500.604 537.442C499.974 536.041 499.464 534.514 498.268 533.483C498.041 533.516 497.826 533.601 497.642 533.731C497.458 533.86 497.312 534.03 497.216 534.224C496.985 534.595 496.85 535.018 496.587 535.373C496.092 536.041 495.216 536.367 494.586 536.937C493.956 537.508 493.566 538.376 492.888 538.946C491.948 539.575 490.851 539.968 489.7 540.088C487.963 540.454 486.285 541.032 484.711 541.808C484.128 542.122 483.507 542.371 482.862 542.549C482.15 542.675 481.421 542.697 480.702 542.616L475.736 542.282C475.295 542.231 474.847 542.251 474.413 542.341C473.907 542.505 473.475 542.822 473.186 543.241C472.897 543.661 472.768 544.158 472.819 544.654C472.885 545.148 473.061 545.624 473.335 546.052C473.61 546.479 473.977 546.849 474.413 547.137C475.277 547.711 476.228 548.161 477.235 548.472C481.561 549.985 486.012 551.167 490.545 552.007V552.919C493.695 554.369 497.16 555.13 500.675 555.143C500.948 555.165 501.223 555.122 501.472 555.017C501.795 554.797 502.022 554.476 502.11 554.113C503.301 550.874 503.996 547.495 504.174 544.076C504.266 543.211 504.196 542.339 503.967 541.496C503.696 540.666 504.621 541.014 503.76 540.688" fill="#2F2E41"/>
<path d="M598.925 523.343C584.204 524.173 569.666 520.155 554.921 519.725C553.091 519.622 551.254 519.731 549.453 520.051C547.576 520.519 545.759 521.176 544.033 522.008C536.135 525.426 527.957 528.257 519.788 531.089L510.415 534.336C508.534 534.981 506.597 535.64 504.597 535.529C503.704 535.477 502.612 535.351 502.102 536.048C500.58 538.146 501.305 541.237 502.309 543.594C502.636 544.335 503.186 545.188 504.063 545.277C504.683 545.237 505.29 545.094 505.856 544.854C507.562 544.432 509.267 545.499 511.021 545.67C513.197 545.884 515.213 544.736 517.261 544.031C520.657 542.868 524.371 542.905 527.942 542.349C533.935 541.422 539.482 538.835 544.679 535.885C546.656 534.766 548.664 533.565 550.928 533.157C553.534 532.683 556.22 533.305 558.778 533.98C564.878 535.586 570.882 537.488 576.767 539.68C579.83 540.918 582.971 541.982 586.172 542.868C593.149 544.576 600.529 544.176 607.246 541.726C609.637 540.859 612.155 539.332 612.291 536.967C612.37 535.618 611.247 534.432 610.497 533.261C610.011 532.519 609.533 531.778 609.007 531.074C606.472 527.635 603.396 523.091 598.925 523.343Z" fill="#2F2E41"/>
<path opacity="0.1" d="M598.925 523.343C584.204 524.173 569.666 520.155 554.921 519.725C553.091 519.622 551.254 519.731 549.453 520.051C547.576 520.519 545.759 521.176 544.033 522.008C536.135 525.426 527.957 528.257 519.788 531.089L510.415 534.336C508.534 534.981 506.597 535.64 504.597 535.529C503.704 535.477 502.612 535.351 502.102 536.048C500.58 538.146 501.305 541.237 502.309 543.594C502.636 544.335 503.186 545.188 504.063 545.277C504.683 545.237 505.29 545.094 505.856 544.854C507.562 544.432 509.267 545.499 511.021 545.67C513.197 545.884 515.213 544.736 517.261 544.031C520.657 542.868 524.371 542.905 527.942 542.349C533.935 541.422 539.482 538.835 544.679 535.885C546.656 534.766 548.664 533.565 550.928 533.157C553.534 532.683 556.22 533.305 558.778 533.98C564.878 535.586 570.882 537.488 576.767 539.68C579.83 540.918 582.971 541.982 586.172 542.868C593.149 544.576 600.529 544.176 607.246 541.726C609.637 540.859 612.155 539.332 612.291 536.967C612.37 535.618 611.247 534.432 610.497 533.261C610.011 532.519 609.533 531.778 609.007 531.074C606.472 527.635 603.396 523.091 598.925 523.343Z" fill="#000102"/>
<path d="M524.578 537.975C526.884 538.702 529.206 539.374 531.544 539.992C532.859 537.983 535.314 536.589 535.872 534.299C535.904 534.199 535.904 534.094 535.872 533.995C535.811 533.897 535.719 533.819 535.609 533.772C533.929 532.91 532.064 532.404 530.149 532.29C528.635 532.201 527.949 533.669 527.264 534.699C527.025 535.114 525.192 538.168 524.578 537.975Z" fill="#FBBEBE"/>
<path d="M527.822 536.507C527.134 536.401 526.477 536.162 525.894 535.806C525.31 535.45 524.813 534.984 524.435 534.439C524.108 533.913 523.765 533.201 523.112 533.238C522.458 533.276 522.235 533.943 522.099 534.499C521.658 536.575 521.021 538.612 520.194 540.584C519.361 542.563 517.951 544.285 516.122 545.558C515.269 546.107 514.32 546.522 513.483 547.1C512.786 547.679 512.04 548.204 511.252 548.672C510.697 548.908 510.124 549.106 509.538 549.265C508.679 549.544 507.858 549.914 507.091 550.369C506.419 550.735 505.849 551.243 505.426 551.852C505.222 552.161 505.102 552.511 505.077 552.873C505.052 553.235 505.122 553.597 505.282 553.927C505.454 554.196 505.685 554.428 505.959 554.608C506.234 554.788 506.546 554.912 506.876 554.972C507.548 555.076 508.232 555.091 508.909 555.017C511.595 554.832 514.273 554.609 516.951 554.387C518.084 554.322 519.211 554.178 520.322 553.957C520.912 553.823 521.486 553.646 522.067 553.505C523.072 553.267 524.1 553.128 525.136 553.09C525.436 553.068 525.738 553.096 526.029 553.171C526.65 553.356 527.089 553.912 527.726 554.046C528.137 554.086 528.552 554.035 528.938 553.898C530.898 553.512 532.896 553.318 534.9 553.319C535.776 553.275 536.812 553.119 537.211 552.385C537.713 551.474 536.884 550.451 536.549 549.472C536.384 548.846 536.291 548.205 536.27 547.56C536.12 545.967 535.618 544.42 534.796 543.016C534.11 541.845 533.202 540.555 533.656 539.309C533.9 538.921 534.055 538.489 534.11 538.042C533.999 536.033 529.033 536.774 527.822 536.507Z" fill="#2F2E41"/>
<path d="M576.855 501.386C574.247 500.316 572.158 498.386 570.989 495.968C570.75 495.449 570.543 494.908 570.311 494.381C569.536 492.641 568.335 491.093 566.804 489.86C566.641 489.692 566.44 489.559 566.215 489.471C565.991 489.383 565.749 489.341 565.505 489.348C565.27 489.413 565.057 489.536 564.889 489.702C564.721 489.869 564.604 490.074 564.549 490.297C564.412 490.78 564.377 491.284 564.445 491.78C564.581 492.93 564.794 494.071 565.083 495.197L565.8 498.221C565.891 498.686 566.041 499.139 566.247 499.57C566.553 500.078 566.959 500.528 567.442 500.897C568.096 501.46 568.757 502.002 569.427 502.528C569.796 502.839 570.199 503.112 570.63 503.343C571.337 503.655 572.093 503.86 572.87 503.951C575.795 504.455 578.768 505.182 581.231 506.916C581.231 506.916 581.231 504.893 581.175 504.692C581.145 504.106 580.929 503.541 580.553 503.069C579.629 502.142 578.035 501.868 576.855 501.386Z" fill="#FBBEBE"/>
<path opacity="0.1" d="M576.855 501.386C574.247 500.316 572.158 498.386 570.989 495.968C570.75 495.449 570.543 494.908 570.311 494.381C569.536 492.641 568.335 491.093 566.804 489.86C566.641 489.692 566.44 489.559 566.215 489.471C565.991 489.383 565.749 489.341 565.505 489.348C565.27 489.413 565.057 489.536 564.889 489.702C564.721 489.869 564.604 490.074 564.549 490.297C564.412 490.78 564.377 491.284 564.445 491.78C564.581 492.93 564.794 494.071 565.083 495.197L565.8 498.221C565.891 498.686 566.041 499.139 566.247 499.57C566.553 500.078 566.959 500.528 567.442 500.897C568.096 501.46 568.757 502.002 569.427 502.528C569.796 502.839 570.199 503.112 570.63 503.343C571.337 503.655 572.093 503.86 572.87 503.951C575.795 504.455 578.768 505.182 581.231 506.916C581.231 506.916 581.231 504.893 581.175 504.692C581.145 504.106 580.929 503.541 580.553 503.069C579.629 502.142 578.035 501.868 576.855 501.386Z" fill="#000102"/>
<path d="M606.823 478.259C608.8 478.259 610.402 476.759 610.402 474.908C610.402 473.058 608.8 471.558 606.823 471.558C604.847 471.558 603.244 473.058 603.244 474.908C603.244 476.759 604.847 478.259 606.823 478.259Z" fill="#2F2E41"/>
<path d="M604.607 472.885C603.646 472.681 602.638 472.816 601.778 473.263C601.364 473.603 601.035 474.023 600.814 474.493C600.009 475.773 599.382 477.143 598.949 478.57C598.63 479.793 598.574 481.068 598.151 482.277C597.418 484.5 595.537 486.391 595.322 488.711C595.226 489.748 595.41 490.972 594.597 491.676C594.395 491.833 594.179 491.975 593.951 492.098C593.385 492.452 592.905 492.911 592.54 493.447C592.297 493.929 591.959 494.364 591.544 494.73C590.811 495.234 589.607 495.182 589.249 495.96C588.89 496.739 589.815 497.643 589.599 498.488C589.424 499.177 588.595 499.496 588.005 499.971C587.334 500.632 586.863 501.448 586.642 502.335C585.445 502.545 584.213 502.511 583.031 502.236C581.85 501.961 580.746 501.451 579.796 500.741C580.792 503.032 580.816 505.56 580.856 508.028C580.971 508.818 580.744 509.617 580.226 510.252C583.08 510.311 585.853 510.993 588.635 511.608C589.825 511.979 591.112 511.979 592.301 511.608C592.937 511.29 593.507 510.868 593.983 510.363C595.497 508.932 597.083 507.398 597.45 505.404C597.547 504.282 597.568 503.156 597.514 502.031C597.66 500.643 597.968 499.274 598.43 497.947C599.231 495.192 599.764 492.377 600.025 489.534C600.192 487.777 601.818 486.368 602.679 484.797C604.273 481.832 605.946 478.756 606.074 475.435C606.186 474.352 605.787 473.026 604.607 472.885Z" fill="#2F2E41"/>
<path opacity="0.1" d="M604.607 472.885C603.646 472.681 602.638 472.816 601.778 473.263C601.364 473.603 601.035 474.023 600.814 474.493C600.009 475.773 599.382 477.143 598.949 478.57C598.63 479.793 598.574 481.068 598.151 482.277C597.418 484.5 595.537 486.391 595.322 488.711C595.226 489.748 595.41 490.972 594.597 491.676C594.395 491.833 594.179 491.975 593.951 492.098C593.385 492.452 592.905 492.911 592.54 493.447C592.297 493.929 591.959 494.364 591.544 494.73C590.811 495.234 589.607 495.182 589.249 495.96C588.89 496.739 589.815 497.643 589.599 498.488C589.424 499.177 588.595 499.496 588.005 499.971C587.334 500.632 586.863 501.448 586.642 502.335C585.445 502.545 584.213 502.511 583.031 502.236C581.85 501.961 580.746 501.451 579.796 500.741C580.792 503.032 580.816 505.56 580.856 508.028C580.971 508.818 580.744 509.617 580.226 510.252C583.08 510.311 585.853 510.993 588.635 511.608C589.825 511.979 591.112 511.979 592.301 511.608C592.937 511.29 593.507 510.868 593.983 510.363C595.497 508.932 597.083 507.398 597.45 505.404C597.547 504.282 597.568 503.156 597.514 502.031C597.66 500.643 597.968 499.274 598.43 497.947C599.231 495.192 599.764 492.377 600.025 489.534C600.192 487.777 601.818 486.368 602.679 484.797C604.273 481.832 605.946 478.756 606.074 475.435C606.186 474.352 605.787 473.026 604.607 472.885Z" fill="#000102"/>
<path d="M601.26 526.226C598.191 524.87 595.952 522.342 593.473 520.177C588.739 516.041 582.952 513.121 577.979 509.244C574.687 506.679 571.738 503.692 568.112 501.542C564.922 499.65 561.305 498.47 557.543 498.095C557.113 498.025 556.672 498.046 556.252 498.154C555.777 498.352 555.363 498.658 555.048 499.044C553.441 500.728 552.014 502.553 550.784 504.492C544.48 514.44 535.529 522.809 528.109 532.067C527.871 532.285 527.73 532.579 527.714 532.889C527.697 533.199 527.807 533.504 528.021 533.743L529.528 536.493C530.372 538.027 531.727 539.821 533.513 539.517C534.332 539.297 535.065 538.862 535.625 538.264L542.4 532.238L549.501 525.922C553.662 522.216 557.894 518.435 560.612 513.706C562.732 517.123 566.494 519.362 569.076 522.498C570.056 523.684 570.853 524.996 571.73 526.256C573.141 528.279 574.735 530.177 576.329 532.067L584.483 541.741C585.511 543.119 586.786 544.322 588.252 545.299C590.181 546.433 592.532 546.737 594.804 546.922C597.864 547.182 600.937 547.286 604.01 547.234C606.353 547.197 608.792 547.056 610.864 546.085C612.936 545.114 614.698 543.12 614.586 540.948C614.459 539.81 614.059 538.713 613.415 537.738C610.537 532.772 606.728 528.62 601.26 526.226Z" fill="#2F2E41"/>
<path d="M609.023 479.801C610.542 479.801 611.773 478.649 611.773 477.229C611.773 475.808 610.542 474.656 609.023 474.656C607.504 474.656 606.273 475.808 606.273 477.229C606.273 478.649 607.504 479.801 609.023 479.801Z" fill="#E8E8F0"/>
<path d="M608.417 475.294C609.038 476.444 609.147 477.776 608.72 479C608.295 480.205 607.7 481.351 606.951 482.41C606.306 483.504 605.533 484.528 604.647 485.464C608.895 485.657 613.016 484.107 616.762 482.225C619.783 480.742 622.795 478.852 624.405 476.028C623.926 476.134 623.428 476.146 622.944 476.063C622.46 475.98 621.999 475.804 621.592 475.546C620.781 475.02 620.054 474.392 619.432 473.678L617.304 471.454C616.801 470.966 616.36 470.426 615.989 469.846C615.523 469.056 615.326 468.154 615.423 467.258C614.576 468.083 613.629 468.815 612.602 469.438C611.079 470.364 609.413 471.032 607.875 471.943C607.333 472.269 606.13 472.796 606.441 473.426C606.751 474.056 607.987 474.582 608.417 475.294Z" fill="#FBBEBE"/>
<path opacity="0.1" d="M608.417 475.294C609.038 476.444 609.147 477.776 608.72 479C608.295 480.205 607.7 481.351 606.951 482.41C606.306 483.504 605.533 484.528 604.647 485.464C608.895 485.657 613.016 484.107 616.762 482.225C619.783 480.742 622.795 478.852 624.405 476.028C623.926 476.134 623.428 476.146 622.944 476.063C622.46 475.98 621.999 475.804 621.592 475.546C620.781 475.02 620.054 474.392 619.432 473.678L617.304 471.454C616.801 470.966 616.36 470.426 615.989 469.846C615.523 469.056 615.326 468.154 615.423 467.258C614.576 468.083 613.629 468.815 612.602 469.438C611.079 470.364 609.413 471.032 607.875 471.943C607.333 472.269 606.13 472.796 606.441 473.426C606.751 474.056 607.987 474.582 608.417 475.294Z" fill="#000102"/>
<path d="M608.473 475.679C608.043 476.244 607.813 476.919 607.813 477.61C607.813 478.302 608.043 478.977 608.473 479.541C608.593 479.682 609.047 480.564 609.27 480.572C609.458 480.557 609.632 480.474 609.756 480.342C610.719 479.406 611.619 478.416 612.45 477.377C613.29 476.324 614.505 475.583 615.877 475.286C617.543 475.042 619.145 475.865 620.604 476.65C621.23 476.94 621.776 477.361 622.198 477.881C622.505 478.396 622.687 478.968 622.732 479.556C623.15 483.09 623.31 486.646 623.21 490.201C623.287 492.763 623.106 495.327 622.668 497.858C622.397 499.163 621.99 500.438 621.799 501.757C621.66 502.918 621.604 504.087 621.632 505.256V510.148C621.597 511.044 621.666 511.942 621.839 512.824C622.168 513.877 622.554 514.913 622.995 515.93C623.383 517.14 623.65 518.381 623.792 519.636L624.509 524.699C624.74 526.3 624.908 528.042 623.864 529.325C623.401 529.91 622.78 530.37 622.269 530.948C620.476 533.068 621.074 536.144 620.277 538.776C619.687 540.707 618.481 542.426 616.818 543.705C615.551 544.706 613.909 545.499 612.267 545.188C610.059 544.802 608.728 542.66 608.122 540.636C607.517 538.613 607.325 536.404 605.994 534.706C604.926 533.305 603.276 532.431 601.786 531.43C600.295 530.429 598.829 529.147 598.502 527.457C598.359 526.715 598.446 525.974 598.367 525.233C598.248 524.288 597.859 523.391 597.239 522.634C596.619 521.878 595.792 521.29 594.844 520.934C593.712 520.526 592.309 520.378 591.656 519.451C593.278 518.503 594.461 517.025 594.971 515.307C595.466 513.615 595.734 511.872 595.768 510.118L596.151 504.233C596.318 501.601 596.398 498.992 597.641 496.627C598.199 495.575 598.893 494.582 599.467 493.536C600.235 492.069 600.891 490.553 601.427 489C602.328 486.591 603.236 484.174 604.041 481.735C604.364 480.554 604.846 479.416 605.476 478.348C606.217 477.236 607.198 475.902 608.473 475.679Z" fill="#E8E8F0"/>
<path d="M594.421 513.921L596.095 513.973L596.454 511.623C596.501 511.153 596.62 510.692 596.805 510.252C597.082 509.788 597.405 509.349 597.769 508.94C599.419 506.775 599.299 503.899 599.706 501.268C600.248 497.762 601.826 494.47 603.388 491.238L606.64 484.5C606.929 483.946 607.162 483.368 607.333 482.773C607.475 482.117 607.542 481.449 607.532 480.779C607.532 479.741 607.899 475.954 607.923 474.908C607.923 474.523 607.014 474.738 606.823 474.397C606.417 473.656 605.859 475.672 605.094 476.117C604.372 476.629 603.847 477.344 603.595 478.155C602.894 479.853 602.463 481.639 601.81 483.344C601.236 485.09 600.191 486.67 598.773 487.932C598.112 488.481 597.339 488.911 596.709 489.489C594.684 491.35 594.493 494.285 594.421 496.902C594.374 498.525 594.047 513.921 594.421 513.921Z" fill="#2F2E41"/>
<path d="M618.531 472.87C616.937 473.463 616.013 475.094 615.558 476.68C615.104 478.266 614.913 479.942 614.036 481.35C611.996 484.656 606.791 485.62 605.349 489.193C604.981 490.399 604.786 491.645 604.767 492.899C604.512 495.456 603.603 497.932 603.332 500.489C603.191 502.479 603.242 504.476 603.484 506.457L605.309 526.641C605.663 529.614 605.477 532.621 604.759 535.536C606.631 535.787 608.54 535.495 610.226 534.699C611.94 533.958 613.502 532.979 615.144 532.134C617.973 530.651 621.098 529.651 623.569 527.686C624.017 527.362 624.402 526.968 624.708 526.523C625.105 525.674 625.373 524.779 625.505 523.862C625.715 523.147 625.981 522.449 626.302 521.771C627.218 519.737 628.016 517.658 628.693 515.545C629.158 514.143 629.522 512.714 629.785 511.267C629.985 510.118 630.088 508.955 630.2 507.798C630.327 505.979 630.716 504.184 631.356 502.461C632.936 498.35 633.831 494.038 634.01 489.674C634.065 489.044 634.019 488.409 633.874 487.792C633.599 487.042 633.23 486.326 632.774 485.657C632.017 484.33 631.563 482.87 630.845 481.528C629.251 478.489 626.39 476.183 623.401 474.249C621.871 473.307 620.189 472.284 618.531 472.87Z" fill="#2F2E41"/>
<path d="M580.481 505.804C579.187 505.175 578.015 504.348 577.014 503.358C576.56 502.861 576.217 502.306 575.723 501.816C574.553 500.656 573.033 499.85 571.363 499.503C569.705 499.164 568.008 499.012 566.31 499.051C565.176 498.979 564.038 499.107 562.955 499.429C562.411 499.595 561.922 499.885 561.531 500.274C561.141 500.663 560.863 501.137 560.723 501.653C560.476 502.913 561.361 504.136 562.421 504.937C563.407 505.686 564.566 506.211 565.808 506.471C566.821 506.635 567.843 506.746 568.869 506.805C574.894 507.391 580.274 510.437 585.551 513.217C590.189 515.653 594.918 517.934 599.738 520.059C599.929 518.717 600.009 517.364 599.977 516.012C599.977 515.003 599.897 513.462 598.869 512.869C597.673 512.172 595.681 512.016 594.358 511.601C591.251 510.658 588.218 509.519 585.28 508.191C583.614 507.442 582.02 506.649 580.481 505.804Z" fill="#FBBEBE"/>
<path d="M606.823 474.145C612.752 474.145 617.559 469.648 617.559 464.101C617.559 458.554 612.752 454.057 606.823 454.057C600.894 454.057 596.087 458.554 596.087 464.101C596.087 469.648 600.894 474.145 606.823 474.145Z" fill="#FBBEBE"/>
<path d="M621.6 484.256C620.745 485.373 620.046 486.586 619.52 487.866C618.189 490.408 616.108 492.588 615.072 495.278C613.972 498.073 614.012 501.401 611.884 503.603C611.456 503.937 611.134 504.372 610.952 504.863C610.939 505.169 610.901 505.474 610.84 505.775C610.537 506.575 609.127 506.612 608.864 507.428C608.792 507.665 608.864 507.924 608.736 508.169C608.521 508.695 607.78 508.769 607.277 509.088C606.233 509.748 606.48 511.275 605.683 512.224C605.359 512.576 604.941 512.842 604.471 512.996C604.001 513.15 603.495 513.185 603.005 513.098C602.028 512.907 601.088 512.58 600.216 512.127C599.909 511.967 599.57 511.868 599.22 511.838C598.803 511.846 598.4 511.973 598.064 512.201C596.079 513.373 595.147 515.7 595.163 517.894C595.303 520.089 595.861 522.242 596.813 524.254C596.925 524.602 597.112 524.925 597.362 525.203C598.016 525.848 599.164 525.744 600.04 525.381C600.862 524.929 601.736 524.566 602.647 524.299C604.305 524.017 605.93 525.085 607.612 524.996C608.843 524.822 610.001 524.346 610.968 523.617C612.675 522.653 614.203 521.439 615.495 520.022C616.228 519.125 616.77 518.102 617.416 517.146C618.24 515.971 619.145 514.847 620.125 513.78L626.318 506.731C626.94 506.063 627.497 505.347 627.984 504.589C628.543 503.564 628.978 502.485 629.283 501.372C629.947 499.514 630.377 497.591 630.566 495.642C630.598 494.028 630.446 492.415 630.112 490.831C629.904 489.255 629.456 487.715 628.781 486.257C627.402 483.663 624.127 481.513 621.6 484.256Z" fill="#2F2E41"/>
<path d="M643.167 471.172C643.176 469.392 642.729 467.634 641.865 466.045C641 464.456 639.742 463.081 638.194 462.033C638.147 458.871 636.895 455.828 634.66 453.445C632.425 451.063 629.353 449.496 625.992 449.023C625.342 446.029 623.576 443.343 621.006 441.441C618.436 439.538 615.227 438.54 611.943 438.622C608.659 438.705 605.512 439.862 603.056 441.891C600.601 443.92 598.993 446.69 598.518 449.713C594.055 448.779 589.974 449.994 589.233 452.552C588.436 455.228 591.624 458.356 596.342 459.542C597.821 459.931 599.361 460.074 600.893 459.964C601.99 461.463 603.412 462.731 605.068 463.689C606.723 464.646 608.575 465.271 610.505 465.524C611.072 467.942 612.354 470.165 614.205 471.942C616.057 473.719 618.406 474.98 620.986 475.583C621.7 477.188 622.809 478.614 624.222 479.749C624.222 480.06 624.166 480.379 624.166 480.705C624.115 481.845 624.312 482.982 624.746 484.049C625.179 485.116 625.84 486.09 626.689 486.913C627.538 487.736 628.557 488.391 629.685 488.839C630.813 489.286 632.026 489.517 633.252 489.517C634.479 489.517 635.692 489.286 636.82 488.839C637.948 488.391 638.967 487.736 639.816 486.913C640.665 486.09 641.326 485.116 641.759 484.049C642.193 482.982 642.39 481.845 642.339 480.705C642.339 479.426 642.043 478.162 641.47 476.999C642.59 475.234 643.177 473.221 643.167 471.172V471.172Z" fill="#F86D70"/>
<path opacity="0.1" d="M592.261 453.063C593.003 450.506 597.044 449.29 601.547 450.224C602.071 447.154 603.744 444.355 606.271 442.32C608.798 440.286 612.017 439.147 615.359 439.105C615.67 439.105 615.981 439.105 616.284 439.105C614.992 438.739 613.649 438.554 612.299 438.557C608.957 438.599 605.738 439.737 603.211 441.772C600.683 443.806 599.01 446.606 598.486 449.676C594.023 448.742 589.942 449.957 589.201 452.515C588.404 455.191 591.592 458.319 596.31 459.505C597.188 459.731 598.088 459.875 598.996 459.935C594.517 458.719 591.504 455.68 592.261 453.063Z" fill="#000102"/>
<path opacity="0.1" d="M627.195 481.224C627.195 480.898 627.195 480.579 627.251 480.26C625.837 479.129 624.729 477.705 624.015 476.102C621.436 475.493 619.09 474.229 617.239 472.451C615.388 470.674 614.106 468.452 613.534 466.035C611.603 465.784 609.751 465.16 608.095 464.202C606.44 463.245 605.018 461.975 603.922 460.476C603.029 460.542 602.132 460.519 601.244 460.409C602.346 461.79 603.732 462.954 605.322 463.832C606.912 464.71 608.674 465.285 610.505 465.524C611.072 467.942 612.354 470.165 614.205 471.942C616.057 473.719 618.406 474.98 620.986 475.583C621.7 477.188 622.809 478.614 624.222 479.749C624.222 480.06 624.166 480.379 624.166 480.705C624.126 482.978 625.053 485.173 626.747 486.812C628.44 488.45 630.762 489.399 633.205 489.452C631.422 488.812 629.891 487.682 628.817 486.212C627.743 484.741 627.177 483.001 627.195 481.224Z" fill="#000102"/>
<path d="M611.735 467.781C612.464 467.266 612.457 466.116 611.72 465.213C610.982 464.31 609.793 463.996 609.064 464.511C608.335 465.026 608.342 466.175 609.079 467.078C609.817 467.981 611.006 468.296 611.735 467.781Z" fill="#FBBEBE"/>
<path d="M355.107 517.761L365.723 511.957C364.288 509.676 362.454 507.634 360.295 505.916L340.274 511.705L355.959 503.128C352.075 501.15 347.704 500.147 343.276 500.216C338.849 500.286 334.517 501.427 330.707 503.527C326.897 505.626 323.741 508.612 321.549 512.191C319.357 515.769 318.204 519.817 318.204 523.936C318.204 537.034 329.626 537.486 343.709 537.486C357.793 537.486 369.214 537.034 369.214 523.936C369.222 520.616 368.475 517.332 367.022 514.299L355.107 517.761Z" fill="#F9A826"/>
<path opacity="0.1" d="M357.808 530.496C356.678 529.442 355.415 528.519 354.047 527.746C352.126 526.552 350.125 525.337 347.854 524.936C345.861 524.581 343.805 524.884 341.772 524.773C338.243 524.573 334.921 523.156 332.455 520.8C331.005 519.407 329.865 517.694 328.119 516.627C326.168 515.549 323.867 515.157 321.631 515.522C320.984 515.606 320.342 515.728 319.711 515.886C318.712 518.468 318.202 521.191 318.204 523.936C318.204 537.034 329.626 537.486 343.709 537.486C350.548 537.486 356.748 537.382 361.331 535.774L360.534 534.447C359.81 533.027 358.894 531.699 357.808 530.496Z" fill="#000102"/>
</g>
<defs>
<linearGradient id="paint0_linear" x1="557.312" y1="555.143" x2="557.312" y2="436.807" gradientUnits="userSpaceOnUse">
<stop stop-color="#808080" stop-opacity="0.25"/>
<stop offset="0.54" stop-color="#808080" stop-opacity="0.12"/>
<stop offset="1" stop-color="#808080" stop-opacity="0.1"/>
</linearGradient>
<clipPath id="clip0">
<rect width="911" height="492" fill="white" transform="translate(105 81)"/>
</clipPath>
</defs>
</svg>
